<?xml version="1.0" standalone="no"?>
<!DOCTYPE svg PUBLIC "-//W3C//DTD SVG 1.1//EN" "http://www.w3.org/Graphics/SVG/1.1/DTD/svg11.dtd" >
<svg xmlns="http://www.w3.org/2000/svg" xmlns:xlink="http://www.w3.org/1999/xlink" version="1.1">
<metadata>
Created by FontForge 20160405 at Fri May 26 10:54:24 2017
 By www-data
Copyright (c) 2015 Apple Inc. All rights reserved.
</metadata>
<defs>
<font id="PingFangSC-Medium" horiz-adv-x="1000" >
  <font-face 
    font-family="PingFang SC Medium"
    font-weight="400"
    font-stretch="normal"
    units-per-em="1000"
    panose-1="2 11 4 0 0 0 0 0 0 0"
    ascent="860"
    descent="-140"
    x-height="517"
    cap-height="714"
    bbox="-33 -212 1126 910"
    underline-thickness="64"
    underline-position="-132"
    unicode-range="U+0020-FFE5"
  />
<missing-glyph 
 />
    <glyph glyph-name="uniFB00" unicode="ff" horiz-adv-x="686" 
d="M368 714v-69h-89q-35 0 -49 -17q-15 -16 -15 -54v-57h233v59q0 64 33 100q32 38 101 38h99v-69h-90q-34 0 -48 -17q-16 -16 -16 -54v-57h147v-67h-147v-450h-79v450h-233v-450h-80v450h-130v67h130v59q0 65 33 101q34 37 101 37h99z" />
    <glyph glyph-name="uniFB01" unicode="fi" horiz-adv-x="608" 
d="M368 714v-69h-89q-35 0 -49 -17q-15 -16 -15 -54v-57h315v-517h-79v450h-236v-450h-80v450h-130v67h130v59q0 65 33 101q34 37 101 37h99z" />
    <glyph glyph-name="uniFB02" unicode="fl" horiz-adv-x="608" 
d="M530 714v-714h-79v645h-172q-35 0 -49 -17q-15 -16 -15 -54v-57h146v-67h-146v-450h-80v450h-130v67h130v59q0 65 33 101q34 37 101 37h261z" />
    <glyph glyph-name="uniFB03" unicode="ffi" horiz-adv-x="921" 
d="M368 714v-69h-89q-35 0 -49 -17q-15 -16 -15 -54v-57h233v59q0 64 33 100q32 38 101 38h99v-69h-90q-34 0 -48 -17q-16 -16 -16 -54v-57h316v-517h-80v450h-236v-450h-79v450h-233v-450h-80v450h-130v67h130v59q0 65 33 101q34 37 101 37h99z" />
    <glyph glyph-name="uniFB04" unicode="ffl" horiz-adv-x="921" 
d="M368 714v-69h-89q-35 0 -49 -17q-15 -16 -15 -54v-57h233v59q0 64 33 100q32 38 101 38h261v-714h-80v645h-172q-34 0 -48 -17q-16 -16 -16 -54v-57h147v-67h-147v-450h-79v450h-233v-450h-80v450h-130v67h130v59q0 65 33 101q34 37 101 37h99z" />
    <glyph glyph-name=".notdef" 
 />
    <glyph glyph-name="glyph1" horiz-adv-x="0" 
 />
    <glyph glyph-name="glyph1" horiz-adv-x="0" 
 />
    <glyph glyph-name="glyph2" horiz-adv-x="333" 
 />
    <glyph glyph-name="space" unicode=" " horiz-adv-x="333" 
 />
    <glyph glyph-name="exclam" unicode="!" horiz-adv-x="333" 
d="M120 714h93l-15 -522h-62zM210 102q17 -17 17 -42q0 -26 -17 -43q-19 -17 -44 -17t-42 17q-18 18 -18 43q0 26 18 42q16 17 42 17q27 0 44 -17z" />
    <glyph glyph-name="quotedbl" unicode="&#x22;" horiz-adv-x="457" 
d="M397 631q0 -129 -113 -191l-27 43q78 51 84 129q-8 -2 -16 -2q-25 0 -43 16q-18 17 -18 42q0 28 17 44t44 16q72 0 72 -97zM200 631q0 -129 -113 -191l-27 43q78 51 84 129q-8 -2 -16 -2q-25 0 -44 16q-17 16 -17 42q0 28 17 44t44 16q72 0 72 -97z" />
    <glyph glyph-name="numbersign" unicode="#" horiz-adv-x="600" 
d="M74 545h114l27 169h66l-27 -169h152l27 169h66l-27 -169h101l-9 -60h-101l-41 -257h113l-9 -60h-113l-27 -168h-67l27 168h-151l-27 -168h-67l27 168h-101l9 60h101l41 257h-113zM204 228h151l41 257h-151z" />
    <glyph glyph-name="dollar" unicode="$" horiz-adv-x="600" 
d="M273 809h50v-82q88 -6 142 -51q60 -51 75 -156h-80q-10 71 -53 106q-32 26 -84 32v-262q102 -37 123 -46q106 -56 106 -160q0 -105 -74 -158q-60 -41 -155 -45v-88h-50v88q-99 6 -154 62q-60 60 -70 179h81q9 -89 48 -130q33 -35 95 -41v277q-58 22 -106 39
q-107 54 -107 159q0 99 71 149q57 43 142 46v82zM323 57q65 5 103 34q44 35 44 97q0 73 -106 114q-28 10 -41 14v-259zM273 414v244q-53 -3 -86 -28q-45 -31 -45 -98t106 -109z" />
    <glyph glyph-name="percent" unicode="%" horiz-adv-x="970" 
d="M862 332q38 -52 38 -137q0 -84 -38 -137q-44 -58 -123 -58q-80 0 -123 58q-38 53 -38 137q0 87 38 137q41 59 123 59q80 0 123 -59zM653 728h64l-400 -742h-65zM354 655q38 -52 38 -137q0 -84 -38 -137q-44 -58 -123 -58q-80 0 -123 58q-38 53 -38 137q0 87 38 137
q41 59 123 59q80 0 123 -59zM672 295q-19 -35 -19 -100q0 -63 19 -98q22 -43 67 -43q44 0 67 44q19 38 19 97q0 61 -19 99q-22 43 -67 43q-46 0 -67 -42zM164 618q-19 -35 -19 -100q0 -63 19 -98q22 -43 67 -43q44 0 67 44q19 38 19 97q0 62 -20 99q-21 43 -66 43
q-46 0 -67 -42z" />
    <glyph glyph-name="ampersand" unicode="&#x26;" horiz-adv-x="726" 
d="M234 640q-26 -20 -26 -63q0 -29 32 -73q13 -18 47 -57q9 6 21 12q93 54 93 117q0 38 -24 62q-26 26 -72 26q-47 0 -71 -24zM221 410q-46 49 -65 79q-29 44 -29 87q0 71 54 113q50 39 126 39t124 -39q52 -40 52 -108q0 -70 -67 -125q-7 -5 -42 -27q-26 -18 -43 -28
l179 -189q38 83 46 206h81q-6 -158 -68 -268l142 -150h-104l-83 88q-90 -102 -232 -102q-108 0 -177 52q-73 57 -73 157t93 167zM470 145l-204 217q-47 -30 -89 -62q-53 -44 -53 -106q0 -60 48 -99q45 -36 117 -36q112 0 181 86z" />
    <glyph glyph-name="quotesingle" unicode="'" horiz-adv-x="260" 
d="M200 631q0 -129 -113 -191l-27 43q78 51 84 129q-8 -2 -16 -2q-25 0 -44 16q-17 16 -17 42q0 28 17 44t44 16q72 0 72 -97z" />
    <glyph glyph-name="parenleft" unicode="(" horiz-adv-x="333" 
d="M275 827q-62 -101 -95 -207q-44 -129 -44 -260t44 -260q32 -105 95 -207h-70q-65 95 -103 206q-44 126 -44 260q0 136 44 262q38 112 103 206h70z" />
    <glyph glyph-name="parenright" unicode=")" horiz-adv-x="333" 
d="M128 827q63 -94 103 -206q44 -130 44 -262q0 -130 -44 -260q-40 -111 -103 -206h-70q61 102 95 207q44 134 44 260t-44 260q-34 106 -95 207h70z" />
    <glyph glyph-name="asterisk" unicode="*" horiz-adv-x="506" 
d="M218 714h70l-7 -195l178 68l22 -66l-184 -55l124 -147l-54 -43l-114 158l-114 -158l-54 43l124 147l-184 55l22 66l179 -68z" />
    <glyph glyph-name="plus" unicode="+" horiz-adv-x="605" 
d="M269 511h68v-218h218v-68h-218v-219h-68v219h-219v68h219v218z" />
    <glyph glyph-name="comma" unicode="," horiz-adv-x="264" 
d="M200 21q0 -129 -113 -191l-27 43q79 52 85 129q-10 -2 -17 -2q-25 0 -43 16q-17 16 -17 42q0 29 16 44q17 16 44 16q72 0 72 -97z" />
    <glyph glyph-name="hyphen" unicode="-" horiz-adv-x="605" 
d="M50 293h505v-68h-505v68z" />
    <glyph glyph-name="period" unicode="." horiz-adv-x="264" 
d="M175 102q18 -16 18 -42t-18 -43q-19 -17 -43 -17t-43 17q-18 18 -18 43q0 26 18 42q17 17 43 17t43 -17z" />
    <glyph glyph-name="slash" unicode="/" horiz-adv-x="500" 
d="M392 820h71l-354 -920h-72z" />
    <glyph glyph-name="zero" unicode="0" horiz-adv-x="600" 
d="M493 615q57 -96 57 -258t-57 -258q-66 -113 -193 -113q-128 0 -193 113q-57 96 -57 258t57 258q64 113 193 113q128 0 193 -113zM162 555q-30 -72 -30 -198q0 -124 30 -198q42 -103 138 -103t138 103q31 76 31 198q0 124 -31 198q-42 103 -138 103t-138 -103z" />
    <glyph glyph-name="one" unicode="1" horiz-adv-x="600" 
d="M361 714v-714h-82v614q-66 -68 -168 -98v82q47 13 100 44q49 30 86 72h64z" />
    <glyph glyph-name="two" unicode="2" horiz-adv-x="600" 
d="M473 671q64 -58 64 -151q0 -92 -70 -168q-41 -43 -148 -115q-136 -91 -156 -164h375v-73h-476q0 99 71 177q46 52 155 127q85 61 112 89q55 60 55 128q0 65 -39 101t-109 36q-75 0 -113 -50q-43 -49 -44 -143h-82q0 119 67 191q66 72 175 72q99 0 163 -57z" />
    <glyph glyph-name="three" unicode="3" horiz-adv-x="600" 
d="M473 676q62 -53 62 -142q0 -121 -117 -160q64 -20 96 -61q36 -42 36 -105q0 -97 -68 -159q-69 -63 -180 -63q-100 0 -166 52q-76 63 -85 183h83q3 -84 56 -128q46 -37 112 -37q76 0 123 44q43 43 43 105q0 64 -42 100q-41 35 -116 35h-58v64h55q71 0 109 32q38 33 38 93
q0 59 -37 93q-38 35 -109 35q-73 0 -112 -38q-41 -38 -49 -111h-81q9 103 76 162q62 58 165 58q104 0 166 -52z" />
    <glyph glyph-name="four" unicode="4" horiz-adv-x="600" 
d="M384 714h77v-485h116v-67h-116v-162h-78v162h-359v78zM380 607l-287 -378h290v378h-3z" />
    <glyph glyph-name="five" unicode="5" horiz-adv-x="600" 
d="M105 714h415v-73h-348l-24 -239h4q30 36 77 54q40 17 91 17q102 0 165 -64q64 -67 64 -181q0 -108 -77 -177q-73 -65 -178 -65q-95 0 -161 51q-74 57 -82 155h81q6 -68 54 -104q43 -32 109 -32q75 0 124 48q49 49 49 123q0 84 -46 132q-43 47 -122 47q-51 0 -91 -22
q-43 -21 -64 -64h-78z" />
    <glyph glyph-name="six" unicode="6" horiz-adv-x="600" 
d="M538 537h-81q-24 122 -148 122q-85 0 -132 -83q-47 -76 -47 -200q0 -13 1 -26h4q28 57 77 86q47 31 111 31q102 0 165 -66q62 -67 62 -170q0 -105 -68 -175q-70 -70 -173 -70q-129 0 -196 97q-62 90 -62 255q0 172 67 278q70 112 192 112q198 0 228 -191zM190 351
q-46 -47 -46 -122q0 -76 44 -123q45 -51 119 -51q71 0 117 49q45 51 45 127q0 75 -44 121q-44 47 -118 47q-70 0 -117 -48z" />
    <glyph glyph-name="seven" unicode="7" horiz-adv-x="600" 
d="M66 714h469v-67l-263 -647h-87l266 639h-385v75z" />
    <glyph glyph-name="eight" unicode="8" horiz-adv-x="600" 
d="M475 670q58 -53 58 -131q0 -57 -27 -96q-31 -43 -85 -62v-2q56 -14 95 -62q42 -51 42 -120q0 -95 -66 -152q-70 -59 -192 -59q-124 0 -192 59q-66 57 -66 152q0 69 42 120q40 49 95 62v2q-56 19 -85 62q-27 39 -27 96q0 79 58 131q62 58 175 58t175 -58zM181 622
q-37 -33 -37 -86q0 -55 33 -88q40 -40 123 -40q81 0 123 40q33 33 33 88q0 52 -37 86q-43 39 -119 39q-77 0 -119 -39zM167 301q-44 -38 -44 -104q0 -65 44 -103q46 -41 133 -41q86 0 134 42q43 40 43 102q0 64 -43 104q-47 43 -134 43t-133 -43z" />
    <glyph glyph-name="nine" unicode="9" horiz-adv-x="600" 
d="M487 632q63 -90 63 -256q0 -168 -67 -278q-73 -112 -192 -112q-199 0 -228 191h81q23 -122 148 -122q82 0 132 83q47 80 47 200l-1 26h-4q-27 -54 -77 -86q-50 -31 -111 -31q-103 0 -166 68q-61 64 -61 168q0 107 68 175q67 70 173 70q129 0 195 -96zM176 610
q-44 -48 -44 -127q0 -77 44 -121q44 -47 118 -47q69 0 117 48q46 49 46 122q0 74 -44 123q-45 51 -119 51q-73 0 -118 -49z" />
    <glyph glyph-name="colon" unicode=":" horiz-adv-x="264" 
d="M175 468q18 -16 18 -42t-18 -43q-19 -17 -43 -17t-43 17q-18 18 -18 43q0 26 18 42q17 17 43 17t43 -17zM175 102q18 -16 18 -42t-18 -43q-19 -17 -43 -17t-43 17q-18 18 -18 43q0 26 18 42q17 17 43 17t43 -17z" />
    <glyph glyph-name="semicolon" unicode=";" horiz-adv-x="264" 
d="M175 468q18 -16 18 -42t-18 -43q-19 -17 -43 -17t-43 17q-18 18 -18 43q0 26 18 42q17 17 43 17t43 -17zM204 21q0 -129 -113 -191l-27 43q78 51 84 129q-8 -2 -16 -2q-25 0 -44 16q-17 16 -17 42q0 30 17 44q17 16 44 16q72 0 72 -97z" />
    <glyph glyph-name="less" unicode="&#x3c;" horiz-adv-x="605" 
d="M555 515v-74l-411 -183l411 -182v-75l-505 226v63z" />
    <glyph glyph-name="equal" unicode="=" horiz-adv-x="605" 
d="M50 395h505v-67h-505v67zM50 190h505v-68h-505v68z" />
    <glyph glyph-name="greater" unicode="&#x3e;" horiz-adv-x="605" 
d="M50 515l505 -225v-63l-505 -226v75l411 182l-411 183v74z" />
    <glyph glyph-name="question" unicode="?" horiz-adv-x="537" 
d="M431 675q56 -51 56 -141q0 -66 -37 -117q-14 -17 -82 -77q-31 -26 -46 -54q-19 -32 -19 -74v-23h-81v23q0 50 19 87q18 43 101 116q20 20 34 36q29 38 29 79q0 60 -33 93q-35 35 -99 35q-74 0 -111 -49q-32 -43 -32 -115h-80q0 104 59 168q62 66 168 66q98 0 154 -53z
M306 102q17 -17 17 -42q0 -26 -17 -43q-19 -17 -43 -17q-26 0 -43 17q-18 18 -18 43q0 26 18 42q16 17 43 17q26 0 43 -17z" />
    <glyph glyph-name="at" unicode="@" horiz-adv-x="858" 
d="M689 634q84 -85 84 -214q0 -106 -67 -194q-66 -83 -144 -83q-63 0 -69 66q-51 -68 -126 -68q-62 0 -102 43q-39 42 -39 107q0 113 68 193q65 80 155 80q72 0 96 -75l15 56h65l-71 -261q-12 -43 -12 -61q0 -25 28 -25q46 0 93 59q54 69 54 162q0 107 -72 177
q-77 76 -208 76q-138 0 -228 -91q-88 -89 -88 -229q0 -152 89 -234q85 -79 231 -79q105 0 184 38q70 35 111 94h70q-53 -90 -151 -138q-97 -47 -214 -47q-179 0 -283 99q-106 102 -106 269q0 157 106 262q111 112 283 112q157 0 248 -94zM347 439q-51 -63 -51 -151
q0 -41 19 -64q20 -24 57 -24q38 0 74 30t48 70l22 82q10 43 10 48q0 27 -17 47q-19 24 -49 24q-66 0 -113 -62z" />
    <glyph glyph-name="A" unicode="A" horiz-adv-x="657" 
d="M281 714h95l281 -714h-89l-76 200h-328l-76 -200h-88zM190 269h276l-135 357h-4z" />
    <glyph glyph-name="B" unicode="B" horiz-adv-x="677" 
d="M72 714h319q100 0 158 -48q57 -48 57 -132q0 -60 -32 -104q-33 -39 -87 -57q69 -12 109 -58t40 -116q0 -105 -74 -156q-64 -43 -173 -43h-317v714zM154 645v-243h217q74 0 114 31q40 32 40 93q0 60 -39 90q-38 29 -114 29h-218zM154 334v-265h228q72 0 119 28
q53 33 53 103q0 68 -46 102q-42 32 -126 32h-228z" />
    <glyph glyph-name="C" unicode="C" horiz-adv-x="728" 
d="M580 665q81 -63 96 -170h-79q-15 77 -76 120q-58 40 -142 40q-124 0 -192 -87q-63 -81 -63 -214q0 -135 62 -212q66 -83 191 -83q85 0 145 45q64 49 85 141h79q-24 -126 -112 -194q-83 -65 -197 -65q-166 0 -255 110q-80 98 -80 258t82 261q89 113 256 113q119 0 200 -63
z" />
    <glyph glyph-name="D" unicode="D" horiz-adv-x="706" 
d="M72 714h256q170 0 256 -98q80 -91 80 -259q0 -165 -86 -259q-90 -98 -258 -98h-248v714zM154 643v-572h152q139 0 210 74q67 73 67 212q0 143 -62 213q-66 73 -206 73h-161z" />
    <glyph glyph-name="E" unicode="E" horiz-adv-x="637" 
d="M72 714h506v-71h-424v-239h400v-71h-400v-262h441v-71h-523v714z" />
    <glyph glyph-name="F" unicode="F" horiz-adv-x="577" 
d="M72 714h478v-71h-396v-240h375v-71h-375v-332h-82v714z" />
    <glyph glyph-name="G" unicode="G" horiz-adv-x="748" 
d="M590 663q75 -61 94 -178h-82q-16 80 -72 124q-58 46 -153 46q-116 0 -185 -82q-68 -80 -68 -219q0 -135 66 -213q71 -83 210 -83q54 0 112 16q50 14 90 40v182h-224v71h305v-292q-49 -40 -125 -65q-78 -24 -166 -24q-170 0 -263 108q-87 101 -87 260q0 160 86 262
q91 112 249 112q135 0 213 -65z" />
    <glyph glyph-name="H" unicode="H" horiz-adv-x="720" 
d="M72 714h82v-310h413v310h82v-714h-82v333h-413v-333h-82v714z" />
    <glyph glyph-name="I" unicode="I" horiz-adv-x="237" 
d="M78 714h81v-714h-81v714z" />
    <glyph glyph-name="J" unicode="J" horiz-adv-x="517" 
d="M364 714h82v-486q0 -116 -48 -176q-54 -66 -173 -66q-99 0 -154 55q-56 56 -56 162v25h82v-24q0 -145 130 -145q71 0 105 43q32 41 32 129v483z" />
    <glyph glyph-name="K" unicode="K" horiz-adv-x="690" 
d="M538 714h107l-323 -306l368 -408h-110l-315 355l-111 -105v-250h-82v714h82v-371z" />
    <glyph glyph-name="L" unicode="L" horiz-adv-x="588" 
d="M72 714h81v-643h413v-71h-494v714z" />
    <glyph glyph-name="M" unicode="M" horiz-adv-x="882" 
d="M72 714h102l266 -609h3l265 609h102v-714h-82v568h-3l-247 -568h-74l-247 568h-3v-568h-82v714z" />
    <glyph glyph-name="N" unicode="N" horiz-adv-x="719" 
d="M72 714h86l404 -581h3v581h82v-714h-84l-406 587h-3v-587h-82v714z" />
    <glyph glyph-name="O" unicode="O" horiz-adv-x="767" 
d="M637 621q88 -103 88 -265q0 -160 -88 -263q-93 -107 -254 -107q-160 0 -253 107q-88 101 -88 263q0 163 88 264q93 108 254 108t253 -107zM190 570q-66 -81 -66 -214q0 -132 66 -213q69 -84 193 -84q123 0 193 82q67 82 67 215q0 135 -67 217q-69 82 -192 82
q-124 0 -194 -85z" />
    <glyph glyph-name="P" unicode="P" horiz-adv-x="642" 
d="M72 714h292q246 0 246 -210q0 -212 -247 -212h-209v-292h-82v714zM154 643v-280h205q85 0 128 35q41 35 41 106q0 73 -42 104q-41 35 -127 35h-205z" />
    <glyph glyph-name="Q" unicode="Q" horiz-adv-x="767" 
d="M637 621q88 -103 88 -265q0 -160 -88 -263q-4 -4 -5 -6q34 -44 82 -113l-54 -47q-49 70 -82 114q-82 -55 -195 -55q-160 0 -253 107q-88 101 -88 263q0 163 88 264q93 108 254 108t253 -107zM190 570q-66 -81 -66 -214q0 -132 66 -213q69 -84 193 -84q89 0 149 42
q-62 79 -120 140l49 47q69 -74 122 -139q60 80 60 207q0 135 -67 217q-69 82 -192 82q-124 0 -194 -85z" />
    <glyph glyph-name="R" unicode="R" horiz-adv-x="676" 
d="M72 714h308q107 0 168 -49q64 -52 64 -150q0 -59 -33 -106q-35 -47 -97 -62v-2q102 -23 114 -130l11 -110q6 -65 38 -105h-89q-25 37 -29 95l-9 95q-6 64 -45 91q-35 26 -103 26h-216v-307h-82v714zM154 643v-265h216q78 0 121 37q38 35 38 97q0 66 -37 98
q-39 33 -122 33h-216z" />
    <glyph glyph-name="S" unicode="S" horiz-adv-x="632" 
d="M502 673q71 -57 82 -170h-81q-13 77 -60 115t-135 38q-81 0 -124 -26q-51 -30 -51 -91q0 -54 61 -87q26 -15 131 -45q141 -42 186 -69q89 -54 89 -151q0 -94 -75 -148q-76 -53 -202 -53t-198 54q-84 65 -93 196h81q11 -93 65 -137q51 -40 145 -40q88 0 142 33t54 90
q0 67 -71 105q-27 16 -151 52q-126 38 -164 58q-82 48 -82 138q0 94 79 145q71 48 182 48q122 0 190 -55z" />
    <glyph glyph-name="T" unicode="T" horiz-adv-x="619" 
d="M17 714h585v-71h-252v-643h-81v643h-252v71z" />
    <glyph glyph-name="U" unicode="U" horiz-adv-x="714" 
d="M72 714h82v-441q0 -106 47 -159q50 -56 156 -56q105 0 156 56q47 55 47 159v441h82v-440q0 -139 -71 -213q-73 -75 -214 -75t-213 74q-72 75 -72 214v440z" />
    <glyph glyph-name="V" unicode="V" horiz-adv-x="639" 
d="M5 714h90l223 -625h3l223 625h90l-264 -714h-101z" />
    <glyph glyph-name="W" unicode="W" horiz-adv-x="930" 
d="M5 714h92l157 -599h4l163 599h89l162 -599h4l157 599h92l-205 -714h-91l-162 595h-3l-163 -595h-91z" />
    <glyph glyph-name="X" unicode="X" horiz-adv-x="637" 
d="M24 714h101l193 -278l194 278h101l-246 -343l265 -371h-101l-213 306l-212 -306h-101l263 371z" />
    <glyph glyph-name="Y" unicode="Y" horiz-adv-x="662" 
d="M5 714h99l227 -348l227 348h99l-285 -424v-290h-82v290z" />
    <glyph glyph-name="Z" unicode="Z" horiz-adv-x="624" 
d="M55 714h520v-68l-444 -575h468v-71h-574v67l445 576h-415v71z" />
    <glyph glyph-name="bracketleft" unicode="[" horiz-adv-x="333" 
d="M44 827h245v-67h-171v-800h171v-67h-245v934z" />
    <glyph glyph-name="backslash" unicode="\" horiz-adv-x="500" 
d="M37 820h71l355 -920h-72z" />
    <glyph glyph-name="bracketright" unicode="]" horiz-adv-x="333" 
d="M44 827h245v-934h-245v67h171v800h-171v67z" />
    <glyph glyph-name="asciicircum" unicode="^" horiz-adv-x="518" 
d="M221 714h76l161 -344h-67l-132 275l-132 -275h-67z" />
    <glyph glyph-name="underscore" unicode="_" horiz-adv-x="500" 
d="M0 -73h500v-67h-500v67z" />
    <glyph glyph-name="grave" unicode="`" horiz-adv-x="333" 
d="M71 722h91l101 -146h-55z" />
    <glyph glyph-name="a" unicode="a" horiz-adv-x="559" 
d="M451 473q46 -52 46 -141v-332h-75v87q-31 -43 -80 -70q-59 -31 -128 -31q-78 0 -124 40q-48 41 -48 109q0 99 79 144q64 38 172 38l124 1v17q0 130 -135 130q-63 0 -98 -26q-39 -27 -48 -80h-79q12 89 76 132q56 40 154 40q110 0 164 -58zM417 255l-119 -1
q-174 0 -174 -118q0 -38 28 -62q29 -23 79 -23q78 0 133 48q53 48 53 111v45z" />
    <glyph glyph-name="b" unicode="b" horiz-adv-x="586" 
d="M62 728h80v-306q60 109 171 109t173 -83q58 -76 58 -188q0 -116 -58 -192q-65 -82 -177 -82q-119 0 -172 99v-85h-75v728zM183 409q-44 -54 -44 -146v-10q0 -87 39 -141q42 -60 121 -60q83 0 126 61q37 56 37 147q0 93 -39 145q-43 60 -127 60q-72 0 -113 -56z" />
    <glyph glyph-name="c" unicode="c" horiz-adv-x="547" 
d="M439 486q59 -46 73 -141h-79q-10 60 -48 90q-38 29 -100 29q-75 0 -119 -57q-42 -55 -42 -150q0 -96 41 -149q41 -55 119 -55q133 0 151 134h80q-18 -101 -77 -151t-154 -50q-116 0 -181 78q-61 73 -61 192t61 193q66 82 182 82q96 0 154 -45z" />
    <glyph glyph-name="d" unicode="d" horiz-adv-x="586" 
d="M444 728h80v-728h-75v85q-54 -99 -172 -99q-113 0 -177 82q-58 74 -58 192q0 114 58 188q62 83 173 83t171 -109v306zM162 405q-38 -51 -38 -145t37 -147q43 -61 126 -61q78 0 121 60q38 55 38 141v10q0 89 -43 146q-43 56 -113 56q-86 0 -128 -60z" />
    <glyph glyph-name="e" unicode="e" horiz-adv-x="555" 
d="M463 447q57 -75 60 -211h-408q6 -88 47 -135q42 -48 116 -48q63 0 103 32q32 26 52 81h80q-18 -74 -70 -122q-66 -58 -165 -58q-111 0 -178 73q-68 74 -68 200q0 116 65 191q66 81 178 81q125 0 188 -84zM166 419q-41 -44 -49 -121h323q-15 166 -163 166q-69 0 -111 -45z
" />
    <glyph glyph-name="f" unicode="f" horiz-adv-x="373" 
d="M368 714v-69h-89q-35 0 -49 -17q-15 -16 -15 -54v-57h146v-67h-146v-450h-80v450h-130v67h130v59q0 65 33 101q34 37 101 37h99z" />
    <glyph glyph-name="g" unicode="g" horiz-adv-x="591" 
d="M449 428v89h80v-481q0 -248 -236 -248q-106 0 -160 42q-55 42 -69 126h80q9 -53 44 -77q35 -26 105 -26q156 0 156 172v91q-57 -104 -174 -104q-108 0 -171 74q-62 71 -62 184q0 114 62 185q63 76 171 76q117 0 174 -103zM166 409q-42 -51 -42 -139q0 -83 37 -133
q43 -58 125 -58q77 0 122 54q42 53 42 137q0 88 -42 139q-44 56 -121 56q-78 0 -121 -56z" />
    <glyph glyph-name="h" unicode="h" horiz-adv-x="556" 
d="M62 728h80v-296q27 50 72 75q42 24 94 24q92 0 139 -53q48 -52 48 -152v-326h-80v314q0 71 -34 111q-36 39 -100 39q-60 0 -99 -48q-40 -47 -40 -121v-295h-80v728z" />
    <glyph glyph-name="i" unicode="i" horiz-adv-x="256" 
d="M171 695q18 -15 18 -42q0 -25 -18 -43q-19 -17 -43 -17t-43 17q-17 17 -17 43q0 28 17 42q17 17 43 17t43 -17zM88 517h80v-517h-80v517z" />
    <glyph glyph-name="j" unicode="j" horiz-adv-x="267" 
d="M182 695q17 -15 17 -42q0 -24 -17 -43q-19 -17 -44 -17q-24 0 -43 17q-17 17 -17 43q0 28 17 42q17 17 43 17q27 0 44 -17zM98 517h80v-577q0 -138 -145 -138h-48v67h42q71 0 71 74v574z" />
    <glyph glyph-name="k" unicode="k" horiz-adv-x="529" 
d="M62 728h80v-451l259 240h106l-228 -208l250 -309h-103l-202 257l-82 -74v-183h-80v728z" />
    <glyph glyph-name="l" unicode="l" horiz-adv-x="235" 
d="M78 728h79v-728h-79v728z" />
    <glyph glyph-name="m" unicode="m" horiz-adv-x="855" 
d="M450 433q30 52 72 74q38 24 91 24q80 0 131 -51q49 -54 49 -141v-339h-80v326q0 68 -29 102q-29 35 -96 35q-53 0 -85 -38q-35 -38 -35 -101v-324h-80v326q0 137 -119 137q-56 0 -91 -44q-36 -42 -36 -104v-315h-80v517h80v-69q58 83 146 83q119 0 162 -98z" />
    <glyph glyph-name="n" unicode="n" horiz-adv-x="559" 
d="M497 318v-318h-80v312q0 151 -136 151q-54 0 -93 -39q-41 -41 -46 -112v-312h-80v517h80v-76q27 44 69 66q42 24 93 24q193 0 193 -213z" />
    <glyph glyph-name="o" unicode="o" horiz-adv-x="586" 
d="M478 451q66 -76 66 -193q0 -115 -65 -191q-70 -81 -186 -81t-185 81q-66 75 -66 191q0 117 66 193q68 80 185 80t185 -80zM165 401q-41 -56 -41 -143q0 -86 41 -142q45 -63 128 -63q81 0 129 63q41 58 41 142q0 85 -41 143q-48 63 -129 63q-83 0 -128 -63z" />
    <glyph glyph-name="p" unicode="p" horiz-adv-x="586" 
d="M485 448q59 -76 59 -191q0 -113 -58 -189q-64 -82 -173 -82q-111 0 -171 108v-292h-80v715h75v-85q56 99 172 99q112 0 176 -83zM178 404q-39 -54 -39 -142v-10q0 -91 44 -145q43 -55 113 -55q83 0 127 58q39 54 39 147q0 91 -37 146q-43 62 -126 62q-79 0 -121 -61z" />
    <glyph glyph-name="q" unicode="q" horiz-adv-x="586" 
d="M449 432v85h75v-715h-80v292q-60 -108 -171 -108q-110 0 -174 82q-57 75 -57 189q0 117 58 191q62 83 177 83t172 -99zM161 403q-37 -53 -37 -146t39 -147q43 -58 127 -58q69 0 113 55q43 57 43 145v10q0 87 -38 142q-43 61 -121 61q-85 0 -126 -62z" />
    <glyph glyph-name="r" unicode="r" horiz-adv-x="365" 
d="M360 519v-80q-36 11 -77 11q-61 0 -101 -53q-41 -50 -41 -123v-274h-79v517h79v-90q21 46 54 71q41 33 94 33q43 0 71 -12z" />
    <glyph glyph-name="s" unicode="s" horiz-adv-x="505" 
d="M457 370h-78q-11 50 -40 70q-33 24 -95 24q-55 0 -84 -20q-33 -19 -33 -54q0 -34 44 -56q25 -12 107 -34q92 -22 133 -48q62 -39 62 -106q0 -160 -219 -160q-204 0 -222 179h78q9 -60 43 -88q33 -24 99 -24q139 0 139 88q0 43 -49 67q-25 12 -110 33q-93 23 -128 46
q-59 35 -59 101q0 65 58 104q54 39 142 39q191 0 212 -161z" />
    <glyph glyph-name="t" unicode="t" horiz-adv-x="355" 
d="M200 684v-167h128v-67h-128v-329q0 -30 11 -41q11 -13 38 -13h66v-67h-78q-64 0 -91 33q-25 29 -25 88v329h-104v67h104v134z" />
    <glyph glyph-name="u" unicode="u" horiz-adv-x="560" 
d="M62 517h80v-316q0 -75 31 -110q32 -37 102 -37q50 0 92 40q42 42 51 108v315h80v-517h-80v80q-64 -94 -168 -94q-188 0 -188 211v320z" />
    <glyph glyph-name="v" unicode="v" horiz-adv-x="482" 
d="M5 517h88l148 -417l148 417h88l-196 -517h-81z" />
    <glyph glyph-name="w" unicode="w" horiz-adv-x="755" 
d="M5 517h88l127 -419l120 419h75l120 -419l127 419h88l-176 -517h-76l-120 416l-122 -416h-75z" />
    <glyph glyph-name="x" unicode="x" horiz-adv-x="509" 
d="M27 517h94l134 -184l133 184h94l-183 -243l205 -274h-95l-154 215l-155 -215h-95l205 274z" />
    <glyph glyph-name="y" unicode="y" horiz-adv-x="496" 
d="M5 517h87l158 -408l153 408h88l-283 -715h-87l89 210z" />
    <glyph glyph-name="z" unicode="z" horiz-adv-x="487" 
d="M35 517h411v-56l-317 -394h333v-67h-437v58l316 392h-306v67z" />
    <glyph glyph-name="braceleft" unicode="{" horiz-adv-x="333" 
d="M312 827v-63h-56q-66 0 -66 -74v-208q0 -90 -82 -122q82 -33 82 -122v-209q0 -73 66 -73h56v-63h-69q-62 0 -95 39q-32 35 -32 99v204q0 44 -19 66q-21 24 -76 26v66q56 3 76 26q19 22 19 66v203q0 65 32 100q33 39 95 39h69z" />
    <glyph glyph-name="bar" unicode="|" horiz-adv-x="195" 
d="M64 860h67v-1000h-67v1000z" />
    <glyph glyph-name="braceright" unicode="}" horiz-adv-x="333" 
d="M21 827h69q61 0 95 -39q32 -37 32 -100v-203q0 -45 19 -67q21 -22 76 -25v-66q-55 -1 -76 -26q-19 -20 -19 -66v-204q0 -62 -32 -99q-34 -39 -95 -39h-69v63h56q66 0 66 73v209q0 89 82 122q-82 31 -82 122v208q0 74 -66 74h-56v63z" />
    <glyph glyph-name="asciitilde" unicode="~" horiz-adv-x="500" 
d="M260 391q66 -43 93 -43q33 0 79 70l50 -36q-65 -98 -129 -98q-46 0 -111 44q-65 43 -95 43q-35 0 -79 -69l-50 35q62 98 129 98q48 0 113 -44z" />
    <glyph glyph-name="uni007F" horiz-adv-x="0" 
 />
    <glyph glyph-name="uni00A0" unicode="&#xa0;" horiz-adv-x="333" 
 />
    <glyph glyph-name="exclamdown" unicode="&#xa1;" horiz-adv-x="333" 
d="M210 501q17 -17 17 -44q0 -23 -17 -42q-19 -17 -44 -17t-42 17q-18 18 -18 42q0 26 18 44q16 16 42 16q27 0 44 -16zM136 328h62l15 -526h-93z" />
    <glyph glyph-name="cent" unicode="&#xa2;" horiz-adv-x="600" 
d="M373 624l37 102l47 -17l-36 -100q23 -10 40 -24q59 -44 74 -141h-80q-10 60 -48 90q-6 5 -11 7l-140 -382q26 -7 50 -7q132 0 152 134h79q-18 -99 -76 -151q-59 -50 -155 -50q-41 0 -74 9l-43 -116l-47 17l43 118q-34 19 -60 50q-61 73 -61 192t62 193q66 82 181 82
q36 0 66 -6zM349 559q-17 4 -42 4q-74 0 -118 -57q-43 -55 -43 -150q0 -96 40 -149q9 -12 24 -25z" />
    <glyph glyph-name="sterling" unicode="&#xa3;" horiz-adv-x="600" 
d="M511 644q41 -58 44 -140h-82q-6 76 -37 113q-36 40 -105 40q-68 0 -105 -40q-35 -36 -35 -96q0 -50 20 -139q0 -2 1 -4h205v-50h-195q9 -52 9 -84q0 -102 -74 -173h379v-71h-478v71q97 61 97 166q0 34 -12 91h-104v50h93q-23 92 -23 145q0 89 59 145q60 60 164 60
q121 0 179 -84z" />
    <glyph glyph-name="currency" unicode="&#xa4;" horiz-adv-x="600" 
d="M84 616l74 -73q61 49 143 49q79 0 141 -49l74 73l40 -40l-73 -72q49 -64 49 -144q0 -78 -50 -143l74 -72l-40 -40l-73 73q-64 -49 -142 -49q-79 0 -143 49l-73 -73l-40 40l73 73q-49 62 -49 142q0 82 49 143l-74 73zM192 469q-45 -45 -45 -109q0 -63 45 -108t109 -45
q63 0 108 45t45 108q0 64 -45 109t-108 45q-64 0 -109 -45z" />
    <glyph glyph-name="yen" unicode="&#xa5;" horiz-adv-x="600" 
d="M24 714h99l177 -328l177 328h99l-204 -359h149v-50h-177v-98h177v-50h-177v-157h-88v157h-176v50h176v98h-176v50h148z" />
    <glyph glyph-name="brokenbar" unicode="&#xa6;" horiz-adv-x="195" 
d="M64 714h67v-308h-67v308zM64 308h67v-308h-67v308z" />
    <glyph glyph-name="section" unicode="&#xa7;" horiz-adv-x="600" 
d="M474 804v-73q-76 32 -155 32q-62 0 -95 -24q-35 -23 -35 -67q0 -39 35 -70q26 -23 92 -55q99 -49 129 -72q62 -45 62 -100q0 -45 -40 -91q-27 -31 -73 -62q41 -20 67 -45q54 -48 54 -109q0 -83 -70 -135q-64 -45 -160 -45q-94 0 -180 37v74q92 -40 178 -40q70 0 112 27
t42 71q0 47 -51 81q-27 20 -118 59q-89 37 -125 65q-57 44 -57 99q0 49 54 103q27 29 70 56q-37 24 -60 48q-39 44 -39 100q0 79 61 124q57 42 147 42q73 0 155 -30zM211 437q-47 -40 -47 -68q0 -32 59 -66q13 -8 95 -45q111 72 111 115q0 27 -54 60q-19 12 -97 52
q-36 -20 -67 -48z" />
    <glyph glyph-name="dieresis" unicode="&#xa8;" horiz-adv-x="500" 
d="M372 858q12 -12 12 -33q0 -18 -12 -32q-13 -12 -33 -12t-32 12q-12 14 -12 32q0 21 12 33q13 13 32 13q18 0 33 -13zM193 858q12 -12 12 -33q0 -18 -12 -32q-13 -12 -33 -12t-32 12q-12 14 -12 32q0 21 12 33q13 13 32 13q18 0 33 -13z" />
    <glyph glyph-name="copyright" unicode="&#xa9;" horiz-adv-x="802" 
d="M664 620q108 -108 108 -263q0 -153 -108 -263q-109 -108 -263 -108q-155 0 -263 108q-108 110 -108 263q0 155 108 263t263 108q154 0 263 -108zM172 586q-95 -94 -95 -229q0 -134 95 -229t229 -95q132 0 229 95q95 97 95 229q0 134 -95 229t-229 95q-135 0 -229 -95z
M537 550q53 -39 65 -114h-68q-10 44 -44 67q-32 23 -81 23q-73 0 -111 -48q-36 -45 -36 -123q0 -77 38 -121q37 -46 108 -46q49 0 85 27q33 27 47 79h68q-17 -85 -72 -128q-51 -39 -128 -39q-107 0 -164 69q-52 62 -52 159q0 99 53 161q58 71 165 71q78 0 127 -37z" />
    <glyph glyph-name="ordfeminine" unicode="&#xaa;" horiz-adv-x="355" 
d="M298 690q31 -34 31 -91v-211h-58v51q-51 -60 -129 -60q-51 0 -83 26t-32 71q0 66 53 95q42 24 112 24h76v9q0 73 -82 73q-80 0 -90 -64h-60q16 115 153 115q74 0 109 -38zM195 547q-106 0 -106 -69q0 -24 17 -37q16 -13 47 -13q46 0 81 29q34 29 34 60v30h-73z" />
    <glyph glyph-name="guillemotleft" unicode="&#xab;" horiz-adv-x="565" 
d="M535 589v-71l-227 -157l227 -156v-72l-285 198v61zM315 589v-71l-227 -157l227 -156v-72l-285 198v61z" />
    <glyph glyph-name="logicalnot" unicode="&#xac;" horiz-adv-x="605" 
d="M50 293h505v-225h-67v157h-438v68z" />
    <glyph glyph-name="uni00AD" unicode="&#xad;" horiz-adv-x="333" 
d="M42 293h250v-68h-250v68z" />
    <glyph glyph-name="registered" unicode="&#xae;" horiz-adv-x="802" 
d="M664 620q108 -108 108 -263q0 -153 -108 -263q-109 -108 -263 -108q-155 0 -263 108q-108 110 -108 263q0 155 108 263t263 108q154 0 263 -108zM172 586q-95 -94 -95 -229q0 -134 95 -229t229 -95q132 0 229 95q95 97 95 229q0 134 -95 229t-229 95q-135 0 -229 -95z
M229 578h188q69 0 109 -31q42 -33 42 -95q0 -77 -71 -104q35 -9 51 -43q11 -24 14 -67q5 -71 31 -102h-79q-17 29 -21 91q-5 52 -22 69q-19 22 -69 22h-103v-182h-70v442zM299 518v-139h110q42 0 67 19q22 20 22 51q0 69 -90 69h-109z" />
    <glyph glyph-name="macron" unicode="&#xaf;" horiz-adv-x="683" 
d="M0 860h683v-67h-683v67z" />
    <glyph glyph-name="degree" unicode="&#xb0;" horiz-adv-x="331" 
d="M252 793q37 -37 37 -87t-37 -87q-36 -36 -87 -36t-87 36t-36 87t36 87q36 37 87 37t87 -37zM111 761q-23 -22 -23 -55q0 -32 23 -54q23 -23 54 -23q30 0 55 23q22 24 22 54q0 31 -22 55q-23 22 -55 22t-54 -22z" />
    <glyph glyph-name="plusminus" unicode="&#xb1;" horiz-adv-x="605" 
d="M269 517h68v-155h218v-67h-218v-155h-68v155h-219v67h219v155zM50 67h505v-67h-505v67z" />
    <glyph glyph-name="uni00B2" unicode="&#xb2;" horiz-adv-x="500" 
d="M359 794q40 -35 40 -94q0 -58 -43 -104q-21 -21 -92 -69q-75 -50 -90 -88h226v-54h-301q0 64 45 113q26 30 95 77q54 38 67 51q33 35 33 74q0 38 -23 56q-21 20 -62 20q-43 0 -65 -28q-26 -31 -26 -86h-61q0 77 44 123q38 44 109 44q65 0 104 -35z" />
    <glyph glyph-name="uni00B3" unicode="&#xb3;" horiz-adv-x="500" 
d="M359 796q40 -32 40 -87q0 -68 -62 -95q71 -30 71 -100q0 -60 -44 -99q-44 -38 -113 -38q-60 0 -99 27q-54 37 -60 122h62q1 -54 35 -78q25 -19 62 -19q43 0 71 25q25 25 25 58q0 37 -24 56q-25 19 -67 19h-41v49h39q84 0 84 70q0 34 -21 52q-22 18 -62 18q-85 0 -94 -88
h-60q6 68 48 104q40 37 105 37t105 -33z" />
    <glyph glyph-name="acute" unicode="&#xb4;" horiz-adv-x="333" 
d="M172 901h91l-137 -146h-55z" />
    <glyph glyph-name="mu" unicode="&#xb5;" horiz-adv-x="560" 
d="M62 517h80v-320q0 -143 133 -143q55 0 94 39q42 42 49 109v315h80v-517h-80v80q-33 -48 -70 -71q-40 -23 -88 -23q-77 0 -118 54v-238h-80v715z" />
    <glyph glyph-name="paragraph" unicode="&#xb6;" horiz-adv-x="559" 
d="M489 811v-904h-62v851h-151v-851h-61v559q-89 3 -137 42q-54 44 -54 130q0 85 53 129q50 44 142 44h270z" />
    <glyph glyph-name="periodcentered" unicode="&#xb7;" horiz-adv-x="500" 
d="M301 412q22 -22 22 -52q0 -29 -22 -51q-21 -21 -51 -21t-51 21q-22 21 -22 51q0 31 22 52q21 21 51 21t51 -21z" />
    <glyph glyph-name="cedilla" unicode="&#xb8;" horiz-adv-x="290" 
d="M119 3h42l-20 -56q10 1 22 1q38 0 63 -18q25 -19 25 -56q0 -46 -39 -69q-31 -17 -78 -17q-50 0 -95 24l14 31q41 -19 74 -19q32 0 51 13q18 12 18 36q0 43 -66 43q-16 0 -45 -4z" />
    <glyph glyph-name="uni00B9" unicode="&#xb9;" horiz-adv-x="500" 
d="M289 821v-436h-61v359q-39 -35 -103 -53v60q70 18 118 70h46z" />
    <glyph glyph-name="ordmasculine" unicode="&#xba;" horiz-adv-x="385" 
d="M316 675q43 -49 43 -122q0 -71 -44 -123q-45 -51 -122 -51t-122 51q-44 50 -44 123q0 75 44 123q45 52 122 52t123 -53zM117 642q-28 -32 -28 -89q0 -55 28 -89t76 -34q47 0 76 34q28 36 28 89q0 55 -28 89q-28 35 -76 35q-50 0 -76 -35z" />
    <glyph glyph-name="guillemotright" unicode="&#xbb;" horiz-adv-x="565" 
d="M250 589l285 -197v-61l-285 -198v72l227 156l-227 157v71zM30 589l285 -197v-61l-285 -198v72l227 156l-227 157v71z" />
    <glyph glyph-name="onequarter" unicode="&#xbc;" 
d="M792 336h65v-289h69v-50h-69v-97h-58v97h-223v53zM809 820h70l-687 -920h-71zM256 821v-436h-60v359q-40 -35 -103 -53v60q69 18 117 70h46zM795 264l-160 -217h164v217h-4z" />
    <glyph glyph-name="onehalf" unicode="&#xbd;" 
d="M882 309q40 -35 40 -94q0 -58 -44 -104q-24 -24 -91 -69q-77 -50 -90 -88h226v-54h-301q0 65 44 113q28 31 96 77q54 38 67 51q33 35 33 74q0 38 -23 56q-23 20 -63 20q-42 0 -64 -28q-26 -31 -26 -86h-61q0 76 43 122q41 45 110 45q65 0 104 -35zM809 820h70l-687 -920
h-71zM256 821v-436h-60v359q-40 -35 -103 -53v60q69 18 117 70h46z" />
    <glyph glyph-name="threequarters" unicode="&#xbe;" 
d="M792 336h65v-289h69v-50h-69v-97h-58v97h-223v53zM809 820h70l-687 -920h-71zM331 796q40 -32 40 -87q0 -68 -62 -95q71 -30 71 -100q0 -60 -44 -99q-44 -38 -113 -38q-60 0 -99 27q-54 37 -60 122h62q1 -54 35 -78q25 -19 62 -19q43 0 71 25q25 25 25 58q0 37 -24 56
q-25 19 -67 19h-41v49h39q84 0 84 70q0 34 -21 52q-22 18 -62 18q-85 0 -94 -88h-60q6 68 48 104q40 37 105 37t105 -33zM795 264l-160 -217h164v217h-4z" />
    <glyph glyph-name="questiondown" unicode="&#xbf;" horiz-adv-x="537" 
d="M317 501q18 -18 18 -44q0 -24 -18 -42q-19 -17 -42 -17q-27 0 -44 17t-17 42q0 28 17 44t44 16q25 0 42 -16zM234 328h81v-23q0 -51 -23 -94q-21 -39 -66 -81q-50 -44 -65 -64q-29 -35 -29 -79q0 -59 34 -93q33 -35 98 -35q71 0 111 49q30 43 32 115h80q-1 -104 -59 -168
q-61 -66 -168 -66q-96 0 -154 53q-56 52 -56 141q0 70 37 117q17 22 82 77q32 31 46 54q19 36 19 73v24z" />
    <glyph glyph-name="Agrave" unicode="&#xc0;" horiz-adv-x="657" 
d="M202 901h91l101 -146h-55zM281 714h95l281 -714h-89l-76 200h-328l-76 -200h-88zM190 269h276l-135 357h-4z" />
    <glyph glyph-name="Aacute" unicode="&#xc1;" horiz-adv-x="657" 
d="M364 901h91l-137 -146h-55zM281 714h95l281 -714h-89l-76 200h-328l-76 -200h-88zM190 269h276l-135 357h-4z" />
    <glyph glyph-name="Acircumflex" unicode="&#xc2;" horiz-adv-x="657" 
d="M294 893h68l108 -127h-54l-87 89l-88 -89h-54zM281 714h95l281 -714h-89l-76 200h-328l-76 -200h-88zM190 269h276l-135 357h-4z" />
    <glyph glyph-name="Atilde" unicode="&#xc3;" horiz-adv-x="657" 
d="M330 856q44 -22 64 -22q21 0 49 37l37 -28q-36 -59 -84 -59q-27 0 -71 22q-40 23 -62 23q-25 0 -51 -38l-36 28q39 60 84 60q27 0 70 -23zM281 714h95l281 -714h-89l-76 200h-328l-76 -200h-88zM190 269h276l-135 357h-4z" />
    <glyph glyph-name="Adieresis" unicode="&#xc4;" horiz-adv-x="657" 
d="M450 858q12 -12 12 -33q0 -18 -12 -32q-13 -12 -33 -12t-32 12q-12 14 -12 32q0 21 12 33q13 13 32 13q18 0 33 -13zM272 858q12 -12 12 -33q0 -18 -12 -32q-13 -12 -33 -12t-32 12q-13 13 -13 32q0 21 13 33q13 13 32 13q18 0 33 -13zM281 714h95l281 -714h-89l-76 200
h-328l-76 -200h-88zM190 269h276l-135 357h-4z" />
    <glyph glyph-name="Aring" unicode="&#xc5;" horiz-adv-x="657" 
d="M389 885q25 -27 25 -60q0 -34 -25 -61q-27 -25 -60 -25q-35 0 -60 25q-26 25 -26 61q0 35 26 60q25 25 60 25q33 0 60 -25zM292 861q-14 -14 -14 -36q0 -23 14 -37q16 -14 37 -14q20 0 36 14q15 15 15 37q0 21 -15 36t-36 15q-22 0 -37 -15zM281 714h95l281 -714h-89
l-76 200h-328l-76 -200h-88zM190 269h276l-135 357h-4z" />
    <glyph glyph-name="AE" unicode="&#xc6;" horiz-adv-x="950" 
d="M382 714h521v-71h-378v-239h355v-71h-355v-262h395v-71h-476v200h-247l-108 -200h-89zM234 269h210v358h-17z" />
    <glyph glyph-name="Ccedilla" unicode="&#xc7;" horiz-adv-x="728" 
d="M580 665q81 -63 96 -170h-79q-15 77 -76 120q-58 40 -142 40q-124 0 -192 -87q-63 -81 -63 -214q0 -135 62 -212q66 -83 191 -83q85 0 145 45q64 49 85 141h79q-24 -126 -112 -194q-74 -59 -178 -65l-15 -39q10 1 23 1q37 0 61 -18q27 -18 27 -56q0 -46 -39 -69
q-31 -17 -78 -17q-51 0 -96 24l15 31q41 -19 74 -19q31 0 50 13q18 12 18 36q0 43 -65 43q-17 0 -45 -4l27 75q-150 8 -231 109q-80 98 -80 258t82 261q89 113 256 113q119 0 200 -63z" />
    <glyph glyph-name="Egrave" unicode="&#xc8;" horiz-adv-x="637" 
d="M201 901h92l100 -146h-55zM72 714h506v-71h-424v-239h400v-71h-400v-262h441v-71h-523v714z" />
    <glyph glyph-name="Eacute" unicode="&#xc9;" horiz-adv-x="637" 
d="M353 901h91l-137 -146h-55zM72 714h506v-71h-424v-239h400v-71h-400v-262h441v-71h-523v714z" />
    <glyph glyph-name="Ecircumflex" unicode="&#xca;" horiz-adv-x="637" 
d="M285 893h68l107 -127h-54l-88 89l-87 -89h-54zM72 714h506v-71h-424v-239h400v-71h-400v-262h441v-71h-523v714z" />
    <glyph glyph-name="Edieresis" unicode="&#xcb;" horiz-adv-x="637" 
d="M440 858q13 -13 13 -33q0 -17 -13 -32q-12 -12 -32 -12q-21 0 -33 12q-12 14 -12 32q0 21 12 33q13 13 33 13q19 0 32 -13zM261 858q13 -13 13 -33q0 -17 -13 -32q-12 -12 -32 -12t-32 12q-13 13 -13 32q0 21 13 33q13 13 32 13q17 0 32 -13zM72 714h506v-71h-424v-239
h400v-71h-400v-262h441v-71h-523v714z" />
    <glyph glyph-name="Igrave" unicode="&#xcc;" horiz-adv-x="237" 
d="M-16 901h92l100 -146h-55zM78 714h81v-714h-81v714z" />
    <glyph glyph-name="Iacute" unicode="&#xcd;" horiz-adv-x="237" 
d="M161 901h91l-136 -146h-55zM78 714h81v-714h-81v714z" />
    <glyph glyph-name="Icircumflex" unicode="&#xce;" horiz-adv-x="237" 
d="M84 893h68l108 -127h-54l-88 89l-87 -89h-54zM78 714h81v-714h-81v714z" />
    <glyph glyph-name="Idieresis" unicode="&#xcf;" horiz-adv-x="237" 
d="M240 858q12 -12 12 -33q0 -18 -12 -32q-13 -12 -33 -12t-32 12q-12 14 -12 32q0 21 12 33q13 13 32 13q18 0 33 -13zM62 858q12 -12 12 -33q0 -18 -12 -32q-13 -12 -33 -12t-32 12q-13 15 -13 32q0 20 13 33t32 13q18 0 33 -13zM78 714h81v-714h-81v714z" />
    <glyph glyph-name="Eth" unicode="&#xd0;" horiz-adv-x="714" 
d="M80 714h256q170 0 256 -98q80 -91 80 -259q0 -165 -86 -259q-90 -98 -258 -98h-248v334h-80v51h80v329zM162 643v-258h190v-51h-190v-263h152q139 0 210 74q67 73 67 212q0 143 -62 213q-66 73 -206 73h-161z" />
    <glyph glyph-name="Ntilde" unicode="&#xd1;" horiz-adv-x="719" 
d="M362 856q44 -22 63 -22q23 0 49 37l38 -28q-38 -59 -84 -59q-26 0 -72 22q-40 23 -62 23q-24 0 -50 -38l-36 28q38 60 84 60q26 0 70 -23zM72 714h86l404 -581h3v581h82v-714h-84l-406 587h-3v-587h-82v714z" />
    <glyph glyph-name="Ograve" unicode="&#xd2;" horiz-adv-x="767" 
d="M256 901h91l101 -146h-55zM637 621q88 -103 88 -265q0 -160 -88 -263q-93 -107 -254 -107q-160 0 -253 107q-88 101 -88 263q0 163 88 264q93 108 254 108t253 -107zM190 570q-66 -81 -66 -214q0 -132 66 -213q69 -84 193 -84q123 0 193 82q67 82 67 215q0 135 -67 217
q-69 82 -192 82q-124 0 -194 -85z" />
    <glyph glyph-name="Oacute" unicode="&#xd3;" horiz-adv-x="767" 
d="M420 901h92l-137 -146h-55zM637 621q88 -103 88 -265q0 -160 -88 -263q-93 -107 -254 -107q-160 0 -253 107q-88 101 -88 263q0 163 88 264q93 108 254 108t253 -107zM190 570q-66 -81 -66 -214q0 -132 66 -213q69 -84 193 -84q123 0 193 82q67 82 67 215q0 135 -67 217
q-69 82 -192 82q-124 0 -194 -85z" />
    <glyph glyph-name="Ocircumflex" unicode="&#xd4;" horiz-adv-x="767" 
d="M350 893h67l108 -127h-54l-87 89l-88 -89h-54zM637 621q88 -103 88 -265q0 -160 -88 -263q-93 -107 -254 -107q-160 0 -253 107q-88 101 -88 263q0 163 88 264q93 108 254 108t253 -107zM190 570q-66 -81 -66 -214q0 -132 66 -213q69 -84 193 -84q123 0 193 82
q67 82 67 215q0 135 -67 217q-69 82 -192 82q-124 0 -194 -85z" />
    <glyph glyph-name="Otilde" unicode="&#xd5;" horiz-adv-x="767" 
d="M385 856q44 -22 64 -22q21 0 49 37l37 -28q-36 -59 -84 -59q-27 0 -71 22q-40 23 -62 23q-25 0 -51 -38l-35 28q38 60 83 60q27 0 70 -23zM637 621q88 -103 88 -265q0 -160 -88 -263q-93 -107 -254 -107q-160 0 -253 107q-88 101 -88 263q0 163 88 264q93 108 254 108
t253 -107zM190 570q-66 -81 -66 -214q0 -132 66 -213q69 -84 193 -84q123 0 193 82q67 82 67 215q0 135 -67 217q-69 82 -192 82q-124 0 -194 -85z" />
    <glyph glyph-name="Odieresis" unicode="&#xd6;" horiz-adv-x="767" 
d="M505 858q13 -13 13 -33q0 -17 -13 -32q-13 -12 -33 -12t-32 12q-12 14 -12 32q0 21 12 33q13 13 32 13q18 0 33 -13zM327 858q12 -12 12 -33q0 -18 -12 -32q-13 -12 -33 -12t-32 12q-13 13 -13 32q0 21 13 33q13 13 32 13q18 0 33 -13zM637 621q88 -103 88 -265
q0 -160 -88 -263q-93 -107 -254 -107q-160 0 -253 107q-88 101 -88 263q0 163 88 264q93 108 254 108t253 -107zM190 570q-66 -81 -66 -214q0 -132 66 -213q69 -84 193 -84q123 0 193 82q67 82 67 215q0 135 -67 217q-69 82 -192 82q-124 0 -194 -85z" />
    <glyph glyph-name="multiply" unicode="&#xd7;" horiz-adv-x="605" 
d="M105 504l198 -198l197 198l48 -48l-198 -197l198 -198l-48 -48l-197 198l-198 -198l-48 48l199 198l-199 197z" />
    <glyph glyph-name="Oslash" unicode="&#xd8;" horiz-adv-x="767" 
d="M553 689l52 89l44 -25l-53 -92q25 -21 41 -40q88 -103 88 -265q0 -160 -88 -263q-93 -107 -254 -107q-88 0 -158 34l-51 -88l-44 25l51 89q-31 23 -51 47q-88 101 -88 263q0 163 88 264q93 108 254 108q97 0 169 -39zM190 570q-66 -81 -66 -214q0 -132 66 -213
q14 -16 30 -30l295 511q-55 31 -131 31q-124 0 -194 -85zM263 85q52 -26 120 -26q123 0 193 82q67 82 67 215q0 135 -67 217q-3 4 -19 20z" />
    <glyph glyph-name="Ugrave" unicode="&#xd9;" horiz-adv-x="714" 
d="M224 901h91l101 -146h-55zM72 714h82v-441q0 -106 47 -159q50 -56 156 -56q105 0 156 56q47 55 47 159v441h82v-440q0 -139 -71 -213q-73 -75 -214 -75t-213 74q-72 75 -72 214v440z" />
    <glyph glyph-name="Uacute" unicode="&#xda;" horiz-adv-x="714" 
d="M399 901h91l-137 -146h-55zM72 714h82v-441q0 -106 47 -159q50 -56 156 -56q105 0 156 56q47 55 47 159v441h82v-440q0 -139 -71 -213q-73 -75 -214 -75t-213 74q-72 75 -72 214v440z" />
    <glyph glyph-name="Ucircumflex" unicode="&#xdb;" horiz-adv-x="714" 
d="M323 893h68l108 -127h-54l-88 89l-87 -89h-54zM72 714h82v-441q0 -106 47 -159q50 -56 156 -56q105 0 156 56q47 55 47 159v441h82v-440q0 -139 -71 -213q-73 -75 -214 -75t-213 74q-72 75 -72 214v440z" />
    <glyph glyph-name="Udieresis" unicode="&#xdc;" horiz-adv-x="714" 
d="M479 858q12 -12 12 -33q0 -18 -12 -32q-13 -12 -33 -12t-32 12q-12 14 -12 32q0 21 12 33q13 13 32 13q18 0 33 -13zM300 858q13 -13 13 -33q0 -17 -13 -32q-13 -12 -33 -12t-32 12q-12 14 -12 32q0 21 12 33q13 13 32 13q18 0 33 -13zM72 714h82v-441q0 -106 47 -159
q50 -56 156 -56q105 0 156 56q47 55 47 159v441h82v-440q0 -139 -71 -213q-73 -75 -214 -75t-213 74q-72 75 -72 214v440z" />
    <glyph glyph-name="Yacute" unicode="&#xdd;" horiz-adv-x="662" 
d="M366 901h91l-137 -146h-55zM5 714h99l227 -348l227 348h99l-285 -424v-290h-82v290z" />
    <glyph glyph-name="Thorn" unicode="&#xde;" horiz-adv-x="642" 
d="M72 714h82v-137h210q246 0 246 -210q0 -212 -247 -212h-209v-155h-82v714zM154 506v-279h205q85 0 128 34q41 35 41 106q0 72 -42 105q-41 34 -127 34h-205z" />
    <glyph glyph-name="germandbls" unicode="&#xdf;" horiz-adv-x="632" 
d="M500 676q67 -52 67 -144q0 -51 -27 -93q-30 -44 -81 -64q131 -39 131 -172q0 -100 -61 -159q-63 -58 -161 -58q-51 0 -121 7v74q42 -9 102 -9q72 0 114 36q45 39 45 107t-41 103q-39 35 -116 35h-67v64h67q59 0 96 33q38 35 38 90q0 61 -40 96q-40 34 -116 34
q-85 0 -131 -53q-45 -52 -45 -150v-453h-81v455q0 125 72 200q69 73 179 73q112 0 177 -52z" />
    <glyph glyph-name="agrave" unicode="&#xe0;" horiz-adv-x="559" 
d="M148 722h91l101 -146h-55zM451 473q46 -52 46 -141v-332h-75v87q-31 -43 -80 -70q-59 -31 -128 -31q-78 0 -124 40q-48 41 -48 109q0 99 79 144q64 38 172 38l124 1v17q0 130 -135 130q-63 0 -98 -26q-39 -27 -48 -80h-79q12 89 76 132q56 40 154 40q110 0 164 -58z
M417 255l-119 -1q-174 0 -174 -118q0 -38 28 -62q29 -23 79 -23q78 0 133 48q53 48 53 111v45z" />
    <glyph glyph-name="aacute" unicode="&#xe1;" horiz-adv-x="559" 
d="M311 722h91l-136 -146h-55zM451 473q46 -52 46 -141v-332h-75v87q-31 -43 -80 -70q-59 -31 -128 -31q-78 0 -124 40q-48 41 -48 109q0 99 79 144q64 38 172 38l124 1v17q0 130 -135 130q-63 0 -98 -26q-39 -27 -48 -80h-79q12 89 76 132q56 40 154 40q110 0 164 -58z
M417 255l-119 -1q-174 0 -174 -118q0 -38 28 -62q29 -23 79 -23q78 0 133 48q53 48 53 111v45z" />
    <glyph glyph-name="acircumflex" unicode="&#xe2;" horiz-adv-x="559" 
d="M248 716h68l107 -127h-54l-88 89l-87 -89h-58zM451 473q46 -52 46 -141v-332h-75v87q-31 -43 -80 -70q-59 -31 -128 -31q-78 0 -124 40q-48 41 -48 109q0 99 79 144q64 38 172 38l124 1v17q0 130 -135 130q-63 0 -98 -26q-39 -27 -48 -80h-79q12 89 76 132q56 40 154 40
q110 0 164 -58zM417 255l-119 -1q-174 0 -174 -118q0 -38 28 -62q29 -23 79 -23q78 0 133 48q53 48 53 111v45z" />
    <glyph glyph-name="atilde" unicode="&#xe3;" horiz-adv-x="559" 
d="M282 677q43 -23 63 -23q23 0 49 38l38 -29q-38 -59 -84 -59q-28 0 -72 23q-41 22 -62 22q-23 0 -50 -37l-37 28q38 59 85 59q27 0 70 -22zM451 473q46 -52 46 -141v-332h-75v87q-31 -43 -80 -70q-59 -31 -128 -31q-78 0 -124 40q-48 41 -48 109q0 99 79 144q64 38 172 38
l124 1v17q0 130 -135 130q-63 0 -98 -26q-39 -27 -48 -80h-79q12 89 76 132q56 40 154 40q110 0 164 -58zM417 255l-119 -1q-174 0 -174 -118q0 -38 28 -62q29 -23 79 -23q78 0 133 48q53 48 53 111v45z" />
    <glyph glyph-name="adieresis" unicode="&#xe4;" horiz-adv-x="559" 
d="M401 684q13 -13 13 -33q0 -19 -13 -32t-32 -13t-32 13q-13 12 -13 32q0 21 13 33q12 12 32 12q19 0 32 -12zM222 684q13 -13 13 -33q0 -19 -13 -32t-32 -13t-32 13q-13 12 -13 32q0 21 13 33q12 12 32 12t32 -12zM451 473q46 -52 46 -141v-332h-75v87q-31 -43 -80 -70
q-59 -31 -128 -31q-78 0 -124 40q-48 41 -48 109q0 99 79 144q64 38 172 38l124 1v17q0 130 -135 130q-63 0 -98 -26q-39 -27 -48 -80h-79q12 89 76 132q56 40 154 40q110 0 164 -58zM417 255l-119 -1q-174 0 -174 -118q0 -38 28 -62q29 -23 79 -23q78 0 133 48
q53 48 53 111v45z" />
    <glyph glyph-name="aring" unicode="&#xe5;" horiz-adv-x="559" 
d="M340 712q25 -25 25 -60t-25 -60q-26 -26 -60 -26q-35 0 -61 26q-25 24 -25 60t25 60q25 25 61 25q35 0 60 -25zM451 473q46 -52 46 -141v-332h-75v87q-31 -43 -80 -70q-59 -31 -128 -31q-78 0 -124 40q-48 41 -48 109q0 99 79 144q64 38 172 38l124 1v17q0 130 -135 130
q-63 0 -98 -26q-39 -27 -48 -80h-79q12 89 76 132q56 40 154 40q110 0 164 -58zM243 688q-15 -15 -15 -36q0 -22 15 -37q16 -14 37 -14q20 0 36 14q15 15 15 37q0 21 -15 36t-36 15q-22 0 -37 -15zM417 255l-119 -1q-174 0 -174 -118q0 -38 28 -62q29 -23 79 -23
q78 0 133 48q53 48 53 111v45z" />
    <glyph glyph-name="ae" unicode="&#xe6;" horiz-adv-x="910" 
d="M827 437q45 -71 51 -190h-401q3 -96 47 -146q42 -48 115 -48q110 0 149 113h81q-18 -72 -66 -120q-63 -60 -162 -60q-111 0 -173 69q-20 23 -31 47q-43 -50 -93 -80q-63 -36 -142 -36q-78 0 -123 39q-47 38 -47 107q0 177 249 177h122v27q0 54 -27 87q-33 42 -106 42
q-125 0 -144 -106h-79q12 89 75 132q56 40 153 40q135 0 177 -98q4 7 14 19q63 79 168 79q130 0 193 -94zM522 417q-37 -40 -44 -108h316q-6 67 -41 107q-42 48 -118 48q-72 0 -113 -47zM286 247q-172 0 -172 -114q0 -36 27 -60q28 -22 79 -22q74 0 129 47q54 47 54 108v41
h-117z" />
    <glyph glyph-name="ccedilla" unicode="&#xe7;" horiz-adv-x="547" 
d="M439 486q59 -46 73 -141h-79q-10 60 -48 90q-38 29 -100 29q-75 0 -119 -57q-42 -55 -42 -150q0 -96 41 -149q41 -55 119 -55q133 0 151 134h80q-18 -101 -77 -151q-52 -43 -133 -49l-14 -40q10 1 22 1q38 0 62 -18q27 -18 27 -56q0 -46 -39 -69q-31 -17 -79 -17
q-50 0 -95 24l15 31q41 -19 73 -19q33 0 52 13q17 12 17 36q0 43 -65 43q-17 0 -45 -4l27 75q-101 6 -160 77q-61 73 -61 192t61 193q66 82 182 82q96 0 154 -45z" />
    <glyph glyph-name="egrave" unicode="&#xe8;" horiz-adv-x="555" 
d="M169 722h91l100 -146h-55zM463 447q57 -75 60 -211h-408q6 -88 47 -135q42 -48 116 -48q63 0 103 32q32 26 52 81h80q-18 -74 -70 -122q-66 -58 -165 -58q-111 0 -178 73q-68 74 -68 200q0 116 65 191q66 81 178 81q125 0 188 -84zM166 419q-41 -44 -49 -121h323
q-15 166 -163 166q-69 0 -111 -45z" />
    <glyph glyph-name="eacute" unicode="&#xe9;" horiz-adv-x="555" 
d="M295 722h92l-137 -146h-55zM463 447q57 -75 60 -211h-408q6 -88 47 -135q42 -48 116 -48q63 0 103 32q32 26 52 81h80q-18 -74 -70 -122q-66 -58 -165 -58q-111 0 -178 73q-68 74 -68 200q0 116 65 191q66 81 178 81q125 0 188 -84zM166 419q-41 -44 -49 -121h323
q-15 166 -163 166q-69 0 -111 -45z" />
    <glyph glyph-name="ecircumflex" unicode="&#xea;" horiz-adv-x="555" 
d="M244 716h68l107 -127h-54l-87 89l-88 -89h-54zM463 447q57 -75 60 -211h-408q6 -88 47 -135q42 -48 116 -48q63 0 103 32q32 26 52 81h80q-18 -74 -70 -122q-66 -58 -165 -58q-111 0 -178 73q-68 74 -68 200q0 116 65 191q66 81 178 81q125 0 188 -84zM166 419
q-41 -44 -49 -121h323q-15 166 -163 166q-69 0 -111 -45z" />
    <glyph glyph-name="edieresis" unicode="&#xeb;" horiz-adv-x="555" 
d="M399 684q13 -13 13 -33q0 -19 -13 -32t-32 -13q-20 0 -33 13q-12 12 -12 32q0 21 12 33t33 12q20 0 32 -12zM221 684q12 -12 12 -33q0 -20 -12 -32q-15 -13 -33 -13q-19 0 -32 13q-12 12 -12 32q0 21 12 33t32 12t33 -12zM463 447q57 -75 60 -211h-408q6 -88 47 -135
q42 -48 116 -48q63 0 103 32q32 26 52 81h80q-18 -74 -70 -122q-66 -58 -165 -58q-111 0 -178 73q-68 74 -68 200q0 116 65 191q66 81 178 81q125 0 188 -84zM166 419q-41 -44 -49 -121h323q-15 166 -163 166q-69 0 -111 -45z" />
    <glyph glyph-name="igrave" unicode="&#xec;" horiz-adv-x="256" 
d="M-10 722h91l100 -146h-55zM89 517h79v-517h-79v517z" />
    <glyph glyph-name="iacute" unicode="&#xed;" horiz-adv-x="256" 
d="M176 722h91l-136 -146h-55zM89 517h79v-517h-79v517z" />
    <glyph glyph-name="icircumflex" unicode="&#xee;" horiz-adv-x="256" 
d="M94 716h68l108 -127h-54l-88 89l-87 -89h-54zM89 517h79v-517h-79v517z" />
    <glyph glyph-name="idieresis" unicode="&#xef;" horiz-adv-x="256" 
d="M250 684q12 -12 12 -33q0 -20 -12 -32q-15 -13 -33 -13q-19 0 -32 13q-13 12 -13 32q0 21 13 33q12 12 32 12t33 -12zM71 684q13 -13 13 -33q0 -19 -13 -32t-32 -13t-32 13t-13 32q0 20 13 33q12 12 32 12t32 -12zM89 517h79v-517h-79v517z" />
    <glyph glyph-name="eth" unicode="&#xf0;" horiz-adv-x="588" 
d="M471 675q-48 -12 -99 -30q43 -42 77 -92q97 -139 97 -301q0 -115 -66 -189q-71 -77 -189 -77q-115 0 -184 75q-65 71 -65 182t68 183q67 76 174 76q84 0 135 -52q-26 67 -106 150l-16 16q-64 -24 -150 -67l-26 47q59 31 132 62q-44 39 -84 62l50 38q65 -37 106 -71
q75 27 127 40zM169 380q-45 -51 -45 -137t44 -136q45 -54 123 -54q79 0 128 55q44 55 44 140t-47 135q-48 51 -126 51q-76 0 -121 -54z" />
    <glyph glyph-name="ntilde" unicode="&#xf1;" horiz-adv-x="559" 
d="M282 677q43 -23 64 -23q22 0 49 38l37 -29q-36 -59 -84 -59q-28 0 -71 23q-41 22 -62 22q-24 0 -51 -37l-36 28q37 59 84 59q29 0 70 -22zM497 318v-318h-80v312q0 151 -136 151q-54 0 -93 -39q-41 -41 -46 -112v-312h-80v517h80v-76q27 44 69 66q42 24 93 24
q193 0 193 -213z" />
    <glyph glyph-name="ograve" unicode="&#xf2;" horiz-adv-x="586" 
d="M156 722h91l101 -146h-55zM479 449q65 -76 65 -191q0 -114 -65 -191q-69 -81 -186 -81t-186 81q-65 75 -65 191q0 117 65 191q69 82 186 82q116 0 186 -82zM168 406q-44 -56 -44 -148q0 -90 44 -146q47 -59 125 -59q77 0 125 59q44 58 44 146q0 90 -44 148
q-48 58 -125 58q-79 0 -125 -58z" />
    <glyph glyph-name="oacute" unicode="&#xf3;" horiz-adv-x="586" 
d="M340 722h91l-137 -146h-55zM479 449q65 -76 65 -191q0 -114 -65 -191q-69 -81 -186 -81t-186 81q-65 75 -65 191q0 117 65 191q69 82 186 82q116 0 186 -82zM168 406q-44 -56 -44 -148q0 -90 44 -146q47 -59 125 -59q77 0 125 59q44 58 44 146q0 90 -44 148
q-48 58 -125 58q-79 0 -125 -58z" />
    <glyph glyph-name="ocircumflex" unicode="&#xf4;" horiz-adv-x="586" 
d="M259 716h68l108 -127h-54l-88 89l-87 -89h-54zM479 449q65 -76 65 -191q0 -114 -65 -191q-69 -81 -186 -81t-186 81q-65 75 -65 191q0 117 65 191q69 82 186 82q116 0 186 -82zM168 406q-44 -56 -44 -148q0 -90 44 -146q47 -59 125 -59q77 0 125 59q44 58 44 146
q0 90 -44 148q-48 58 -125 58q-79 0 -125 -58z" />
    <glyph glyph-name="otilde" unicode="&#xf5;" horiz-adv-x="586" 
d="M295 677q43 -23 64 -23q22 0 49 38l37 -29q-36 -59 -84 -59q-28 0 -71 23q-41 22 -62 22q-24 0 -51 -37l-36 28q37 59 84 59q29 0 70 -22zM479 449q65 -76 65 -191q0 -114 -65 -191q-69 -81 -186 -81t-186 81q-65 75 -65 191q0 117 65 191q69 82 186 82q116 0 186 -82z
M168 406q-44 -56 -44 -148q0 -90 44 -146q47 -59 125 -59q77 0 125 59q44 58 44 146q0 90 -44 148q-48 58 -125 58q-79 0 -125 -58z" />
    <glyph glyph-name="odieresis" unicode="&#xf6;" horiz-adv-x="586" 
d="M415 684q13 -13 13 -33q0 -19 -13 -32q-15 -13 -33 -13q-19 0 -32 13q-12 12 -12 32q0 21 12 33t32 12t33 -12zM236 684q13 -13 13 -33q0 -19 -13 -32q-15 -13 -32 -13q-20 0 -33 13q-12 12 -12 32q0 21 12 33t33 12q19 0 32 -12zM479 449q65 -76 65 -191
q0 -114 -65 -191q-69 -81 -186 -81t-186 81q-65 75 -65 191q0 117 65 191q69 82 186 82q116 0 186 -82zM168 406q-44 -56 -44 -148q0 -90 44 -146q47 -59 125 -59q77 0 125 59q44 58 44 146q0 90 -44 148q-48 58 -125 58q-79 0 -125 -58z" />
    <glyph glyph-name="divide" unicode="&#xf7;" horiz-adv-x="605" 
d="M346 481q17 -15 17 -42q0 -26 -17 -43q-19 -17 -44 -17t-42 17q-18 18 -18 43q0 27 18 42q16 17 42 17q27 0 44 -17zM50 293h505v-68h-505v68zM346 122q17 -17 17 -43q0 -24 -17 -43q-19 -17 -44 -17t-42 17q-18 18 -18 43q0 27 18 43q16 16 42 16q27 0 44 -16z" />
    <glyph glyph-name="oslash" unicode="&#xf8;" horiz-adv-x="586" 
d="M421 498l45 71l43 -26l-48 -75q12 -12 18 -19q65 -76 65 -191q0 -114 -65 -191q-69 -81 -186 -81q-66 0 -119 28l-42 -66l-43 26l43 68q-13 12 -25 25q-65 75 -65 191q0 117 65 191q69 82 186 82q73 0 128 -33zM168 405q-44 -56 -44 -147q0 -90 44 -146q1 -2 5 -6
l210 332q-38 26 -90 26q-79 0 -125 -59zM212 74q35 -21 81 -21q77 0 125 59q45 57 45 146q0 87 -43 145z" />
    <glyph glyph-name="ugrave" unicode="&#xf9;" horiz-adv-x="560" 
d="M169 722h91l100 -146h-55zM62 517h80v-316q0 -75 31 -110q32 -37 102 -37q50 0 92 40q42 42 51 108v315h80v-517h-80v80q-64 -94 -168 -94q-188 0 -188 211v320z" />
    <glyph glyph-name="uacute" unicode="&#xfa;" horiz-adv-x="560" 
d="M307 722h91l-137 -146h-55zM62 517h80v-316q0 -75 31 -110q32 -37 102 -37q50 0 92 40q42 42 51 108v315h80v-517h-80v80q-64 -94 -168 -94q-188 0 -188 211v320z" />
    <glyph glyph-name="ucircumflex" unicode="&#xfb;" horiz-adv-x="560" 
d="M246 716h68l108 -127h-55l-87 89l-87 -89h-55zM62 517h80v-316q0 -75 31 -110q32 -37 102 -37q50 0 92 40q42 42 51 108v315h80v-517h-80v80q-64 -94 -168 -94q-188 0 -188 211v320z" />
    <glyph glyph-name="udieresis" unicode="&#xfc;" horiz-adv-x="560" 
d="M402 684q12 -12 12 -33q0 -20 -12 -32q-15 -13 -33 -13q-19 0 -32 13q-12 12 -12 32q0 21 12 33t32 12t33 -12zM223 684q12 -12 12 -33q0 -20 -12 -32q-15 -13 -33 -13q-19 0 -32 13q-12 12 -12 32q0 21 12 33t32 12t33 -12zM62 517h80v-316q0 -75 31 -110
q32 -37 102 -37q50 0 92 40q42 42 51 108v315h80v-517h-80v80q-64 -94 -168 -94q-188 0 -188 211v320z" />
    <glyph glyph-name="yacute" unicode="&#xfd;" horiz-adv-x="496" 
d="M293 722h91l-136 -146h-55zM5 517h87l158 -408l153 408h88l-283 -715h-87l89 210z" />
    <glyph glyph-name="thorn" unicode="&#xfe;" horiz-adv-x="586" 
d="M62 714h75v-282q56 99 172 99q112 0 176 -83q59 -76 59 -191q0 -113 -58 -189q-64 -82 -173 -82q-111 0 -171 108v-292h-80v912zM178 404q-39 -54 -39 -142v-10q0 -91 44 -145q43 -55 113 -55q83 0 127 59q39 54 39 146q0 91 -37 146q-43 62 -126 62q-79 0 -121 -61z" />
    <glyph glyph-name="ydieresis" unicode="&#xff;" horiz-adv-x="496" 
d="M370 684q12 -12 12 -33q0 -20 -12 -32q-15 -13 -33 -13q-19 0 -32 13q-13 12 -13 32q0 21 13 33q12 12 32 12t33 -12zM191 684q12 -12 12 -33q0 -20 -12 -32q-15 -13 -33 -13q-19 0 -32 13q-13 12 -13 32q0 21 13 33q12 12 32 12t33 -12zM5 517h87l158 -408l153 408h88
l-283 -715h-87l89 210z" />
    <glyph glyph-name="Amacron" unicode="&#x100;" horiz-adv-x="657" 
d="M179 851h299v-50h-299v50zM281 714h95l281 -714h-89l-76 200h-328l-76 -200h-88zM190 269h276l-135 357h-4z" />
    <glyph glyph-name="amacron" unicode="&#x101;" horiz-adv-x="559" 
d="M130 673h299v-50h-299v50zM451 473q46 -52 46 -141v-332h-75v87q-31 -43 -80 -70q-59 -31 -128 -31q-78 0 -124 40q-48 41 -48 109q0 99 79 144q64 38 172 38l124 1v17q0 130 -135 130q-63 0 -98 -26q-39 -27 -48 -80h-79q12 89 76 132q56 40 154 40q110 0 164 -58z
M417 255l-119 -1q-174 0 -174 -118q0 -38 28 -62q29 -23 79 -23q78 0 133 48q53 48 53 111v45z" />
    <glyph glyph-name="Abreve" unicode="&#x102;" horiz-adv-x="657" 
d="M224 894q17 -84 105 -84q86 0 104 84h44q-18 -131 -148 -131q-131 0 -149 131h44zM281 714h95l281 -714h-89l-76 200h-328l-76 -200h-88zM190 269h276l-135 357h-4z" />
    <glyph glyph-name="abreve" unicode="&#x103;" horiz-adv-x="559" 
d="M175 717q17 -84 105 -84q86 0 104 84h44q-18 -131 -148 -131q-131 0 -149 131h44zM451 473q46 -52 46 -141v-332h-75v87q-31 -43 -80 -70q-59 -31 -128 -31q-78 0 -124 40q-48 41 -48 109q0 99 79 144q64 38 172 38l124 1v17q0 130 -135 130q-63 0 -98 -26
q-39 -27 -48 -80h-79q12 89 76 132q56 40 154 40q110 0 164 -58zM417 255l-119 -1q-174 0 -174 -118q0 -38 28 -62q29 -23 79 -23q78 0 133 48q53 48 53 111v45z" />
    <glyph glyph-name="Aogonek" unicode="&#x104;" horiz-adv-x="657" 
d="M281 714h95l281 -714h-44q-50 -75 -50 -123q0 -45 43 -45q42 0 90 36l18 -29q-55 -51 -119 -51q-88 0 -88 80q0 28 19 66q17 38 42 67l-75 199h-329l-76 -200h-88zM190 269h277l-136 357h-4z" />
    <glyph glyph-name="aogonek" unicode="&#x105;" horiz-adv-x="559" 
d="M451 473q46 -52 46 -141v-332h-32q-50 -76 -50 -123q0 -45 44 -45q41 0 89 36l19 -29q-55 -51 -120 -51q-87 0 -87 80q0 29 19 67q20 40 43 67v85q-31 -43 -80 -70q-59 -31 -128 -31q-78 0 -124 40q-48 41 -48 109q0 99 79 144q64 38 172 38l124 1v17q0 130 -135 130
q-63 0 -98 -26q-39 -27 -48 -80h-79q12 89 76 132q56 40 154 40q110 0 164 -58zM417 255l-119 -1q-174 0 -174 -118q0 -38 28 -62q29 -23 79 -23q78 0 133 48q53 48 53 111v45z" />
    <glyph glyph-name="dcaron" unicode="&#x10f;" horiz-adv-x="718" 
d="M630 728h81l-20 -189h-62zM444 728h80v-728h-75v85q-54 -99 -172 -99q-113 0 -177 82q-58 74 -58 192q0 114 58 188q61 83 173 83q111 0 171 -109v306zM162 405q-38 -51 -38 -145t37 -147q43 -61 126 -61q78 0 121 60q38 55 38 141v10q0 89 -43 146q-43 56 -113 56
q-86 0 -128 -60z" />
    <glyph glyph-name="dcroat" unicode="&#x111;" horiz-adv-x="616" 
d="M268 643h176v85h80v-85h92v-50h-92v-593h-75v85q-54 -99 -172 -99q-113 0 -177 82q-58 74 -58 192q0 114 58 188q61 83 173 83q111 0 171 -109v171h-176v50zM162 405q-38 -51 -38 -145t37 -147q43 -61 126 -61q78 0 121 60q38 55 38 141v10q0 89 -43 146q-43 56 -113 56
q-86 0 -128 -60z" />
    <glyph glyph-name="emacron" unicode="&#x113;" horiz-adv-x="555" 
d="M129 673h298v-50h-298v50zM463 447q57 -75 60 -211h-408q6 -88 47 -135q42 -48 116 -48q63 0 103 32q32 26 52 81h80q-18 -74 -70 -122q-66 -58 -165 -58q-111 0 -178 73q-68 74 -68 200q0 116 65 191q66 81 178 81q125 0 188 -84zM166 419q-41 -44 -49 -121h323
q-15 166 -163 166q-69 0 -111 -45z" />
    <glyph glyph-name="ebreve" unicode="&#x115;" horiz-adv-x="555" 
d="M174 717q15 -84 104 -84q88 0 104 84h44q-18 -131 -148 -131t-148 131h44zM463 447q57 -75 60 -211h-408q6 -88 47 -135q42 -48 116 -48q63 0 103 32q32 26 52 81h80q-18 -74 -70 -122q-66 -58 -165 -58q-111 0 -178 73q-68 74 -68 200q0 116 65 191q66 81 178 81
q125 0 188 -84zM166 419q-41 -44 -49 -121h323q-15 166 -163 166q-69 0 -111 -45z" />
    <glyph glyph-name="edotaccent" unicode="&#x117;" horiz-adv-x="555" 
d="M310 684q13 -13 13 -33q0 -19 -13 -32t-32 -13q-20 0 -33 13q-12 12 -12 32q0 21 12 33t33 12q20 0 32 -12zM463 447q57 -75 60 -211h-408q6 -88 47 -135q42 -48 116 -48q63 0 103 32q32 26 52 81h80q-18 -74 -70 -122q-66 -58 -165 -58q-111 0 -178 73q-68 74 -68 200
q0 116 65 191q66 81 178 81q125 0 188 -84zM166 419q-41 -44 -49 -121h323q-15 166 -163 166q-69 0 -111 -45z" />
    <glyph glyph-name="eogonek" unicode="&#x119;" horiz-adv-x="555" 
d="M463 447q57 -75 60 -211h-408q6 -88 47 -135q42 -48 116 -48q63 0 103 32q32 26 52 81h80q-21 -91 -96 -143q-40 -26 -62 -66q-25 -40 -25 -80q0 -45 44 -45q42 0 90 36l18 -29q-55 -51 -120 -51q-87 0 -87 80q0 52 53 123q-27 -5 -50 -5q-111 0 -178 73q-68 74 -68 200
q0 116 65 191q66 81 178 81q125 0 188 -84zM166 419q-41 -44 -49 -121h323q-15 166 -163 166q-69 0 -111 -45z" />
    <glyph glyph-name="ecaron" unicode="&#x11b;" horiz-adv-x="555" 
d="M136 716h54l88 -89l87 89h54l-107 -127h-68zM463 447q57 -75 60 -211h-408q6 -88 47 -135q42 -48 116 -48q63 0 103 32q32 26 52 81h80q-18 -74 -70 -122q-66 -58 -165 -58q-111 0 -178 73q-68 74 -68 200q0 116 65 191q66 81 178 81q125 0 188 -84zM166 419
q-41 -44 -49 -121h323q-15 166 -163 166q-69 0 -111 -45z" />
    <glyph glyph-name="gcircumflex" unicode="&#x11d;" horiz-adv-x="591" 
d="M264 716h68l108 -127h-55l-87 89l-87 -89h-55zM449 428v89h80v-481q0 -248 -236 -248q-106 0 -160 42q-55 42 -69 126h80q9 -53 44 -77q35 -26 105 -26q156 0 156 172v91q-57 -104 -174 -104q-108 0 -171 74q-62 71 -62 184q0 114 62 185q63 76 171 76q117 0 174 -103z
M166 409q-42 -51 -42 -139q0 -83 37 -133q43 -58 125 -58q77 0 122 54q42 53 42 137q0 88 -42 139q-44 56 -121 56q-78 0 -121 -56z" />
    <glyph glyph-name="gbreve" unicode="&#x11f;" horiz-adv-x="591" 
d="M194 717q17 -84 104 -84t105 84h44q-18 -131 -149 -131q-130 0 -148 131h44zM449 428v89h80v-481q0 -248 -236 -248q-106 0 -160 42q-55 42 -69 126h80q9 -53 44 -77q35 -26 105 -26q156 0 156 172v91q-57 -104 -174 -104q-108 0 -171 74q-62 71 -62 184q0 114 62 185
q63 76 171 76q117 0 174 -103zM166 409q-42 -51 -42 -139q0 -83 37 -133q43 -58 125 -58q77 0 122 54q42 53 42 137q0 88 -42 139q-44 56 -121 56q-78 0 -121 -56z" />
    <glyph glyph-name="gdotaccent" unicode="&#x121;" horiz-adv-x="591" 
d="M320 684q13 -13 13 -33q0 -19 -13 -32t-32 -13t-32 13q-13 12 -13 32q0 21 13 33q12 12 32 12t32 -12zM449 428v89h80v-481q0 -248 -236 -248q-106 0 -160 42q-55 42 -69 126h80q9 -53 44 -77q35 -26 105 -26q156 0 156 172v91q-57 -104 -174 -104q-108 0 -171 74
q-62 71 -62 184q0 114 62 185q63 76 171 76q117 0 174 -103zM166 409q-42 -51 -42 -139q0 -83 37 -133q43 -58 125 -58q77 0 122 54q42 53 42 137q0 88 -42 139q-44 56 -121 56q-78 0 -121 -56z" />
    <glyph glyph-name="uni0123" unicode="&#x123;" horiz-adv-x="591" 
d="M299 761h63l-40 -185h-81zM449 428v89h80v-481q0 -248 -236 -248q-106 0 -160 42q-55 42 -69 126h80q9 -53 44 -77q35 -26 105 -26q156 0 156 172v91q-57 -104 -174 -104q-108 0 -171 74q-62 71 -62 184q0 114 62 185q63 76 171 76q117 0 174 -103zM166 409
q-42 -51 -42 -139q0 -83 37 -133q43 -58 125 -58q77 0 122 54q42 53 42 137q0 88 -42 139q-44 56 -121 56q-78 0 -121 -56z" />
    <glyph glyph-name="hcircumflex" unicode="&#x125;" horiz-adv-x="556" 
d="M244 893h68l108 -127h-55l-87 89l-87 -89h-55zM62 728h80v-296q27 50 72 75q42 24 94 24q92 0 139 -53q48 -52 48 -152v-326h-80v314q0 71 -34 111q-36 39 -100 39q-60 0 -99 -48q-40 -47 -40 -121v-295h-80v728z" />
    <glyph glyph-name="Hbar" unicode="&#x126;" horiz-adv-x="751" 
d="M5 600h82v114h82v-114h413v114h82v-114h82v-50h-82v-550h-82v333h-413v-333h-82v550h-82v50zM169 550v-146h413v146h-413z" />
    <glyph glyph-name="hbar" unicode="&#x127;" horiz-adv-x="594" 
d="M99 728h81v-86h175v-50h-175v-160q27 49 73 75q41 24 93 24q92 0 139 -53t47 -152v-326h-80v314q0 72 -33 111q-36 39 -100 39q-62 0 -100 -47q-39 -46 -39 -122v-295h-81v592h-94v50h94v86z" />
    <glyph glyph-name="Itilde" unicode="&#x128;" horiz-adv-x="237" 
d="M120 856q44 -22 64 -22q21 0 49 37l37 -28q-36 -59 -84 -59q-27 0 -71 22q-40 23 -62 23q-25 0 -51 -38l-35 28q39 60 83 60q27 0 70 -23zM78 714h81v-714h-81v714z" />
    <glyph glyph-name="itilde" unicode="&#x129;" horiz-adv-x="256" 
d="M131 677q43 -23 63 -23q23 0 49 38l38 -29q-38 -59 -84 -59q-29 0 -72 23q-41 22 -62 22q-23 0 -50 -37l-37 28q38 59 85 59q27 0 70 -22zM89 517h79v-517h-79v517z" />
    <glyph glyph-name="imacron" unicode="&#x12b;" horiz-adv-x="256" 
d="M-21 673h299v-50h-299v50zM89 517h79v-517h-79v517z" />
    <glyph glyph-name="iogonek" unicode="&#x12f;" horiz-adv-x="256" 
d="M172 695q17 -15 17 -42q0 -24 -17 -43q-19 -17 -43 -17q-26 0 -43 17q-18 18 -18 43q0 27 18 42q16 17 43 17q26 0 43 -17zM89 517h79v-517h-19q-50 -74 -50 -123q0 -45 44 -45q42 0 90 36l18 -29q-55 -51 -120 -51q-87 0 -87 80q0 29 19 67q17 36 42 65h-16v517z" />
    <glyph glyph-name="dotlessi" unicode="&#x131;" horiz-adv-x="256" 
d="M89 517h79v-517h-79v517z" />
    <glyph glyph-name="IJ" unicode="&#x132;" horiz-adv-x="793" 
d="M640 714h81v-486q0 -115 -47 -176q-54 -66 -173 -66q-100 0 -155 55q-55 56 -55 162v25h81v-24q0 -145 130 -145q72 0 106 43q32 41 32 129v483zM78 714h81v-714h-81v714z" />
    <glyph glyph-name="ij" unicode="&#x133;" horiz-adv-x="519" 
d="M434 695q17 -15 17 -42q0 -24 -17 -43q-19 -17 -44 -17t-42 17q-18 18 -18 43q0 27 18 42q16 17 42 17q27 0 44 -17zM171 695q18 -15 18 -42q0 -25 -18 -43q-19 -17 -43 -17t-43 17q-17 17 -17 43q0 28 17 42q17 17 43 17t43 -17zM350 517h80v-577q0 -138 -144 -138h-49
v67h42q71 0 71 74v574zM88 517h80v-517h-80v517z" />
    <glyph glyph-name="jcircumflex" unicode="&#x135;" horiz-adv-x="267" 
d="M101 716h68l108 -127h-54l-88 89l-87 -89h-54zM98 517h80v-577q0 -138 -145 -138h-48v67h42q71 0 71 74v574z" />
    <glyph glyph-name="uni0137" unicode="&#x137;" horiz-adv-x="529" 
d="M62 728h80v-451l259 240h106l-228 -208l250 -309h-103l-202 257l-82 -74v-183h-80v728zM235 -26h81l-58 -185h-63z" />
    <glyph glyph-name="kgreenlandic" unicode="&#x138;" horiz-adv-x="529" 
d="M62 517h80v-240l259 240h106l-228 -208l250 -309h-103l-202 257l-82 -74v-183h-80v517z" />
    <glyph glyph-name="lacute" unicode="&#x13a;" horiz-adv-x="235" 
d="M162 901h91l-137 -146h-55zM78 728h79v-728h-79v728z" />
    <glyph glyph-name="uni013C" unicode="&#x13c;" horiz-adv-x="235" 
d="M78 728h79v-728h-79v728zM78 -26h81l-58 -185h-63z" />
    <glyph glyph-name="lcaron" unicode="&#x13e;" horiz-adv-x="354" 
d="M266 728h81l-20 -189h-62zM78 728h79v-728h-79v728z" />
    <glyph glyph-name="ldot" unicode="&#x140;" horiz-adv-x="366" 
d="M333 391q13 -13 13 -32t-13 -32t-32 -13t-32 13q-12 12 -12 32t12 32q12 13 32 13t32 -13zM78 728h79v-728h-79v728z" />
    <glyph glyph-name="lslash" unicode="&#x142;" horiz-adv-x="309" 
d="M115 728h80v-326l93 44l21 -45l-114 -53v-348h-80v310l-94 -44l-21 45l115 54v363z" />
    <glyph glyph-name="nacute" unicode="&#x144;" horiz-adv-x="559" 
d="M305 722h91l-136 -146h-55zM497 318v-318h-80v312q0 151 -136 151q-54 0 -93 -39q-41 -41 -46 -112v-312h-80v517h80v-76q27 44 69 66q42 24 93 24q193 0 193 -213z" />
    <glyph glyph-name="uni0146" unicode="&#x146;" horiz-adv-x="559" 
d="M497 318v-318h-80v312q0 151 -136 151q-54 0 -93 -39q-41 -41 -46 -112v-312h-80v517h80v-76q27 44 69 66q42 24 93 24q193 0 193 -213zM240 -26h81l-58 -185h-63z" />
    <glyph glyph-name="ncaron" unicode="&#x148;" horiz-adv-x="559" 
d="M140 716h54l87 -89l88 89h54l-108 -127h-67zM497 318v-318h-80v312q0 151 -136 151q-54 0 -93 -39q-41 -41 -46 -112v-312h-80v517h80v-76q27 44 69 66q42 24 93 24q193 0 193 -213z" />
    <glyph glyph-name="napostrophe" unicode="&#x149;" horiz-adv-x="655" 
d="M21 728h81l-20 -189h-62zM594 318v-318h-81v312q0 151 -135 151q-55 0 -94 -39q-40 -41 -46 -112v-312h-80v517h80v-76q29 44 69 66q42 24 94 24q193 0 193 -213z" />
    <glyph glyph-name="Eng" unicode="&#x14a;" horiz-adv-x="715" 
d="M70 714h87l403 -576h3v576h82v-774q0 -138 -146 -138h-57v67h51q70 0 70 74v61l-408 583h-3v-587h-82v714z" />
    <glyph glyph-name="eng" unicode="&#x14b;" horiz-adv-x="559" 
d="M497 318v-378q0 -138 -145 -138h-48v67h42q71 0 71 74v369q0 151 -136 151q-54 0 -93 -39q-41 -41 -46 -112v-312h-80v517h80v-76q27 44 69 66q42 24 93 24q193 0 193 -213z" />
    <glyph glyph-name="OE" unicode="&#x152;" horiz-adv-x="999" 
d="M493 714h465v-71h-383v-239h359v-71h-359v-262h400v-71h-482v41q-73 -55 -172 -55q-141 0 -222 107q-78 102 -78 264t78 264q80 107 222 107q101 0 172 -55v41zM493 565q-57 90 -172 90q-108 0 -167 -83q-60 -82 -60 -215q0 -134 59 -214q60 -84 168 -84q116 0 172 89
v417z" />
    <glyph glyph-name="oe" unicode="&#x153;" horiz-adv-x="934" 
d="M838 446q51 -75 54 -210h-379q5 -88 43 -135q39 -48 107 -48q60 0 94 33q25 25 45 80h81q-18 -77 -65 -122q-61 -58 -155 -58q-104 0 -168 73q-16 19 -27 37q-9 -15 -21 -30q-66 -80 -171 -80q-106 0 -172 80q-62 75 -62 192q0 116 63 194q64 79 171 79q105 0 171 -81
q12 -15 22 -32q8 15 21 32q65 81 170 81q118 0 178 -85zM560 419q-38 -44 -46 -121h295q-15 166 -147 166q-63 0 -102 -45zM165 407q-41 -56 -41 -149q0 -92 41 -148q41 -57 111 -57q68 0 110 57q41 58 41 148q0 91 -41 149q-42 57 -110 57q-70 0 -111 -57z" />
    <glyph glyph-name="Tbar" unicode="&#x166;" horiz-adv-x="619" 
d="M17 714h585v-71h-252v-286h154v-51h-154v-306h-81v306h-154v51h154v286h-252v71z" />
    <glyph glyph-name="Utilde" unicode="&#x168;" horiz-adv-x="714" 
d="M359 856q44 -22 64 -22q21 0 49 37l37 -28q-36 -59 -84 -59q-27 0 -71 22q-40 23 -62 23q-25 0 -51 -38l-36 28q38 60 84 60q27 0 70 -23zM72 714h82v-441q0 -106 47 -159q50 -56 156 -56q105 0 156 56q47 55 47 159v441h82v-440q0 -139 -71 -213q-73 -75 -214 -75
t-213 74q-72 75 -72 214v440z" />
    <glyph glyph-name="utilde" unicode="&#x169;" horiz-adv-x="560" 
d="M282 677q43 -23 64 -23q22 0 49 38l37 -29q-36 -59 -84 -59q-28 0 -71 23q-41 22 -62 22q-24 0 -51 -37l-36 28q37 59 84 59q29 0 70 -22zM62 517h80v-316q0 -75 31 -110q32 -37 102 -37q50 0 92 40q42 42 51 108v315h80v-517h-80v80q-64 -94 -168 -94q-188 0 -188 211
v320z" />
    <glyph glyph-name="Umacron" unicode="&#x16a;" horiz-adv-x="714" 
d="M208 851h298v-50h-298v50zM72 714h82v-441q0 -106 47 -159q50 -56 156 -56q105 0 156 56q47 55 47 159v441h82v-440q0 -139 -71 -213q-73 -75 -214 -75t-213 74q-72 75 -72 214v440z" />
    <glyph glyph-name="umacron" unicode="&#x16b;" horiz-adv-x="560" 
d="M131 673h298v-50h-298v50zM62 517h80v-316q0 -75 31 -110q32 -37 102 -37q50 0 92 40q42 42 51 108v315h80v-517h-80v80q-64 -94 -168 -94q-188 0 -188 211v320z" />
    <glyph glyph-name="Ubreve" unicode="&#x16c;" horiz-adv-x="714" 
d="M253 894q15 -84 104 -84q88 0 104 84h44q-18 -131 -148 -131t-148 131h44zM72 714h82v-441q0 -106 47 -159q50 -56 156 -56q105 0 156 56q47 55 47 159v441h82v-440q0 -139 -71 -213q-73 -75 -214 -75t-213 74q-72 75 -72 214v440z" />
    <glyph glyph-name="ubreve" unicode="&#x16d;" horiz-adv-x="560" 
d="M176 717q15 -84 104 -84q88 0 104 84h44q-18 -131 -148 -131t-148 131h44zM62 517h80v-316q0 -75 31 -110q32 -37 102 -37q50 0 92 40q42 42 51 108v315h80v-517h-80v80q-64 -94 -168 -94q-188 0 -188 211v320z" />
    <glyph glyph-name="Uring" unicode="&#x16e;" horiz-adv-x="714" 
d="M417 885q25 -27 25 -60q0 -34 -25 -61q-27 -25 -60 -25q-35 0 -60 25q-26 25 -26 61q0 35 26 60q25 25 60 25q33 0 60 -25zM72 714h82v-441q0 -106 47 -159q50 -56 156 -56q105 0 156 56q47 55 47 159v441h82v-440q0 -139 -71 -213q-73 -75 -214 -75t-213 74
q-72 75 -72 214v440zM321 861q-15 -15 -15 -36q0 -22 15 -37q14 -14 36 -14q20 0 36 14q15 15 15 37q0 21 -15 36t-36 15q-22 0 -36 -15z" />
    <glyph glyph-name="uring" unicode="&#x16f;" horiz-adv-x="560" 
d="M340 712q25 -25 25 -60t-25 -60q-26 -26 -60 -26q-36 0 -60 26q-26 23 -26 60t26 60q24 25 60 25q35 0 60 -25zM62 517h80v-316q0 -75 31 -110q32 -37 102 -37q50 0 92 40q42 42 51 108v315h80v-517h-80v80q-64 -94 -168 -94q-188 0 -188 211v320zM243 688
q-14 -14 -14 -36q0 -23 14 -37q16 -14 37 -14t37 14q14 16 14 37t-15 36t-36 15q-22 0 -37 -15z" />
    <glyph glyph-name="Uhungarumlaut" unicode="&#x170;" horiz-adv-x="714" 
d="M480 901h91l-129 -146h-54zM296 901h91l-129 -146h-54zM72 714h82v-441q0 -106 47 -159q50 -56 156 -56q105 0 156 56q47 55 47 159v441h82v-440q0 -139 -71 -213q-73 -75 -214 -75t-213 74q-72 75 -72 214v440z" />
    <glyph glyph-name="uhungarumlaut" unicode="&#x171;" horiz-adv-x="560" 
d="M420 722h91l-129 -146h-54zM236 722h91l-129 -146h-55zM62 517h80v-316q0 -75 31 -110q32 -37 102 -37q50 0 92 40q42 42 51 108v315h80v-517h-80v80q-64 -94 -168 -94q-188 0 -188 211v320z" />
    <glyph glyph-name="Uogonek" unicode="&#x172;" horiz-adv-x="714" 
d="M72 714h82v-441q0 -106 47 -159q50 -56 156 -56q105 0 156 56q47 55 47 159v441h82v-440q0 -139 -71 -213q-66 -68 -188 -74q-42 -67 -42 -110q0 -45 44 -45q41 0 89 36l19 -29q-57 -51 -120 -51q-88 0 -88 80q0 29 21 69q12 26 30 49q-125 6 -192 74q-72 75 -72 214v440
z" />
    <glyph glyph-name="uogonek" unicode="&#x173;" horiz-adv-x="560" 
d="M62 517h80v-316q0 -75 31 -110q32 -37 102 -37q50 0 92 40q42 42 51 108v315h80v-517h-37q-51 -78 -51 -123t44 -45q42 0 90 36l18 -29q-55 -51 -119 -51q-88 0 -88 80q0 29 19 67q20 40 44 68v77q-64 -94 -168 -94q-188 0 -188 211v320z" />
    <glyph glyph-name="Wcircumflex" unicode="&#x174;" horiz-adv-x="930" 
d="M431 893h68l108 -127h-54l-88 89l-87 -89h-54zM5 714h92l157 -599h4l163 599h89l162 -599h4l157 599h92l-205 -714h-91l-162 595h-3l-163 -595h-91z" />
    <glyph glyph-name="wcircumflex" unicode="&#x175;" horiz-adv-x="755" 
d="M344 716h68l107 -127h-54l-88 89l-87 -89h-54zM5 517h88l127 -419l120 419h75l120 -419l127 419h88l-176 -517h-76l-120 416l-122 -416h-75z" />
    <glyph glyph-name="Ycircumflex" unicode="&#x176;" horiz-adv-x="662" 
d="M297 893h68l108 -127h-55l-87 89l-88 -89h-54zM5 714h99l227 -348l227 348h99l-285 -424v-290h-82v290z" />
    <glyph glyph-name="ycircumflex" unicode="&#x177;" horiz-adv-x="496" 
d="M214 716h68l108 -127h-54l-88 89l-87 -89h-55zM5 517h87l158 -408l153 408h88l-283 -715h-87l89 210z" />
    <glyph glyph-name="Ydieresis" unicode="&#x178;" horiz-adv-x="662" 
d="M452 858q13 -13 13 -33q0 -17 -13 -32q-12 -12 -32 -12t-32 12q-13 13 -13 32q0 21 13 33q13 13 32 13q17 0 32 -13zM274 858q13 -13 13 -33q0 -17 -13 -32q-12 -12 -32 -12q-21 0 -33 12q-12 14 -12 32q0 21 12 33q13 13 33 13q19 0 32 -13zM5 714h99l227 -348l227 348
h99l-285 -424v-290h-82v290z" />
    <glyph glyph-name="Zacute" unicode="&#x179;" horiz-adv-x="624" 
d="M341 901h91l-137 -146h-55zM55 714h520v-68l-444 -575h468v-71h-574v67l445 576h-415v71z" />
    <glyph glyph-name="zacute" unicode="&#x17a;" horiz-adv-x="487" 
d="M278 722h92l-137 -146h-55zM35 517h411v-56l-317 -394h333v-67h-437v58l316 392h-306v67z" />
    <glyph glyph-name="Zdotaccent" unicode="&#x17b;" horiz-adv-x="624" 
d="M345 858q12 -12 12 -33q0 -18 -12 -32q-13 -12 -33 -12t-32 12q-13 13 -13 32q0 21 13 33q13 13 32 13q18 0 33 -13zM55 714h520v-68l-444 -575h468v-71h-574v67l445 576h-415v71z" />
    <glyph glyph-name="zdotaccent" unicode="&#x17c;" horiz-adv-x="487" 
d="M276 684q13 -13 13 -33q0 -19 -13 -32q-15 -13 -32 -13q-20 0 -33 13q-12 12 -12 32q0 21 12 33t33 12q19 0 32 -12zM35 517h411v-56l-317 -394h333v-67h-437v58l316 392h-306v67z" />
    <glyph glyph-name="Zcaron" unicode="&#x17d;" horiz-adv-x="624" 
d="M170 893h55l87 -90l87 90h55l-108 -127h-68zM55 714h520v-68l-444 -575h468v-71h-574v67l445 576h-415v71z" />
    <glyph glyph-name="zcaron" unicode="&#x17e;" horiz-adv-x="487" 
d="M103 716h54l87 -89l88 89h54l-108 -127h-68zM35 517h411v-56l-317 -394h333v-67h-437v58l316 392h-306v67z" />
    <glyph glyph-name="longs" unicode="&#x17f;" horiz-adv-x="373" 
d="M368 714v-69h-89q-35 0 -49 -17q-15 -16 -15 -54v-574h-80v450h-130v67h130v59q0 65 33 101q34 37 101 37h99z" />
    <glyph glyph-name="uni018F" unicode="&#x18f;" horiz-adv-x="729" 
d="M609 617q79 -100 79 -259q0 -162 -78 -261q-88 -111 -257 -111q-150 0 -234 108q-77 95 -77 241v47h564q-6 118 -59 187q-65 86 -190 86q-86 0 -139 -37q-62 -42 -81 -128h-81q21 111 97 174q77 64 203 64q165 0 253 -111zM122 311q3 -110 62 -178q63 -74 169 -74
q129 0 196 88q46 62 55 164h-482z" />
    <glyph glyph-name="florin" unicode="&#x192;" horiz-adv-x="572" 
d="M560 714l-12 -69h-90q-34 0 -51 -17q-19 -16 -25 -54l-10 -57h146l-11 -67h-147l-90 -510q-12 -64 -51 -100q-43 -38 -107 -38h-100l12 69h90q32 0 52 17q17 17 25 54l89 508h-129l11 67h130l10 59q12 65 52 101q38 37 107 37h99z" />
    <glyph glyph-name="Ohorn" unicode="&#x1a0;" horiz-adv-x="786" 
d="M694 821h70v-76q0 -54 -29 -85q-28 -27 -78 -27h-33q101 -103 101 -277q0 -160 -88 -263q-93 -107 -254 -107q-160 0 -253 107q-88 101 -88 263q0 163 88 264q93 108 254 108q67 0 130 -20q66 -21 87 -21h24q69 0 69 63v71zM190 570q-66 -81 -66 -214q0 -132 66 -213
q69 -84 193 -84q123 0 193 82q67 82 67 215q0 135 -67 217q-69 82 -192 82q-124 0 -194 -85z" />
    <glyph glyph-name="ohorn" unicode="&#x1a1;" horiz-adv-x="613" 
d="M521 636h70v-75q0 -55 -27 -85q-24 -24 -58 -24h-25l-2 -4q65 -74 65 -190q0 -115 -65 -191q-70 -81 -186 -81t-185 81q-66 75 -66 191q0 117 67 193q68 80 185 80q42 0 97 -13q56 -12 76 -12q54 0 54 71v59zM165 401q-41 -56 -41 -143q0 -86 41 -142q45 -63 128 -63
q81 0 129 63q41 58 41 142q0 85 -41 143q-48 63 -129 63q-83 0 -128 -63z" />
    <glyph glyph-name="uni01A2" unicode="&#x1a2;" horiz-adv-x="948" 
d="M870 701v-899h-82v798q-48 -39 -149 -72q29 -76 29 -172q0 -158 -82 -263q-86 -107 -231 -107q-146 0 -232 107q-81 104 -81 263q0 162 81 264q86 108 232 108q145 0 232 -108q-2 2 17 -23q63 19 109 41q62 30 95 63h62zM182 570q-58 -79 -58 -214q0 -133 58 -213
q62 -84 173 -84q112 0 173 84q58 82 58 213q0 133 -58 214q-63 85 -173 85q-113 0 -173 -85z" />
    <glyph glyph-name="uni01A3" unicode="&#x1a3;" horiz-adv-x="815" 
d="M737 489v-687h-79v589q-41 -32 -121 -63q7 -38 7 -70q0 -114 -65 -191q-69 -81 -186 -81t-186 81q-65 75 -65 191q0 115 66 193q68 80 186 80q116 0 185 -82q18 -22 34 -51q113 39 165 91h59zM168 405q-44 -56 -44 -147q0 -90 44 -146q47 -59 126 -59q77 0 124 59
q45 57 45 146q0 90 -45 147q-47 59 -125 59q-79 0 -125 -59z" />
    <glyph glyph-name="Uhorn" unicode="&#x1af;" horiz-adv-x="803" 
d="M712 838h69v-66q0 -117 -110 -117h-33v-381q0 -139 -71 -213q-73 -75 -214 -75t-213 74q-72 75 -72 214v440h82v-441q0 -106 47 -159q50 -56 156 -56q105 0 156 56q47 55 47 159v441h91q65 0 65 64v60z" />
    <glyph glyph-name="uhorn" unicode="&#x1b0;" horiz-adv-x="646" 
d="M554 641h70v-66q0 -117 -110 -117h-16v-458h-80v80q-64 -94 -168 -94q-188 0 -188 211v320h80v-316q0 -75 31 -110q32 -37 102 -37q50 0 92 40q42 42 51 108v315h73q63 0 63 63v61z" />
    <glyph glyph-name="uni021B" unicode="&#x21b;" horiz-adv-x="355" 
d="M200 684v-167h128v-67h-128v-329q0 -30 11 -41q11 -13 38 -13h66v-67h-78q-64 0 -91 33q-25 29 -25 88v329h-104v67h104v134zM156 -26h82l-58 -185h-64z" />
    <glyph glyph-name="uni0237" unicode="&#x237;" horiz-adv-x="267" 
d="M98 517h80v-577q0 -138 -145 -138h-48v67h42q71 0 71 74v574z" />
    <glyph glyph-name="uni0259" unicode="&#x259;" horiz-adv-x="555" 
d="M454 459q69 -75 69 -201q0 -112 -64 -190q-70 -82 -179 -82q-125 0 -188 84q-59 77 -60 211h407q-6 88 -47 135q-42 48 -115 48q-65 0 -103 -32q-34 -28 -52 -81h-81q18 77 71 122q62 58 165 58q111 0 177 -72zM115 219q15 -166 163 -166q68 0 111 46q40 46 49 120h-323z
" />
    <glyph glyph-name="uni02BB" unicode="&#x2bb;" horiz-adv-x="500" 
d="M320 794q-79 -49 -84 -129q4 2 16 2q27 0 44 -16q17 -15 17 -42t-17 -44q-19 -16 -44 -16q-72 0 -72 97q0 132 113 191z" />
    <glyph glyph-name="uni02BC" unicode="&#x2bc;" horiz-adv-x="500" 
d="M320 740q0 -129 -113 -191l-27 43q78 51 84 129q-8 -2 -16 -2q-25 0 -44 16q-17 16 -17 42q0 28 17 44q16 16 44 16q72 0 72 -97z" />
    <glyph glyph-name="circumflex" unicode="&#x2c6;" horiz-adv-x="500" 
d="M216 893h68l108 -127h-54l-88 89l-87 -89h-54z" />
    <glyph glyph-name="caron" unicode="&#x2c7;" horiz-adv-x="500" 
d="M109 893h54l87 -90l88 90h54l-108 -127h-68z" />
    <glyph glyph-name="uni02C9" unicode="&#x2c9;" horiz-adv-x="500" 
d="M101 851h298v-50h-298v50z" />
    <glyph glyph-name="breve" unicode="&#x2d8;" horiz-adv-x="500" 
d="M146 894q15 -84 104 -84q88 0 104 84h44q-18 -131 -148 -131t-148 131h44z" />
    <glyph glyph-name="dotaccent" unicode="&#x2d9;" horiz-adv-x="500" 
d="M283 858q12 -12 12 -33q0 -18 -12 -32q-13 -12 -33 -12t-32 12q-13 13 -13 32q0 21 13 33q13 13 32 13q18 0 33 -13z" />
    <glyph glyph-name="ring" unicode="&#x2da;" horiz-adv-x="500" 
d="M310 885q26 -26 26 -60q0 -35 -26 -61q-25 -25 -60 -25t-60 25t-25 61q0 35 25 60t60 25t60 -25zM214 861q-15 -15 -15 -36q0 -22 15 -37q16 -14 36 -14q21 0 37 14q14 16 14 37q0 20 -14 36q-15 15 -37 15q-21 0 -36 -15z" />
    <glyph glyph-name="ogonek" unicode="&#x2db;" horiz-adv-x="500" 
d="M254 3q-52 -77 -52 -126q0 -45 44 -45q41 0 89 36l19 -29q-55 -51 -120 -51q-87 0 -87 80q0 30 20 69q19 37 43 66h44z" />
    <glyph glyph-name="tilde" unicode="&#x2dc;" horiz-adv-x="500" 
d="M252 857q43 -23 64 -23q23 0 49 37l37 -28q-36 -59 -84 -59q-27 0 -71 22q-42 23 -62 23q-25 0 -51 -38l-36 28q39 61 84 61q27 0 70 -23z" />
    <glyph glyph-name="hungarumlaut" unicode="&#x2dd;" horiz-adv-x="500" 
d="M343 901h91l-129 -146h-54zM158 901h91l-128 -146h-55z" />
    <glyph glyph-name="uni02EE" unicode="&#x2ee;" horiz-adv-x="500" 
d="M419 740q0 -129 -114 -191l-26 43q78 51 84 129q-10 -2 -16 -2q-27 0 -43 16q-18 17 -18 42q0 28 17 44q16 16 43 16q73 0 73 -97zM221 740q0 -129 -113 -191l-27 43q79 52 85 129q-10 -2 -17 -2q-25 0 -43 16q-17 16 -17 42q0 28 17 44q16 16 43 16q72 0 72 -97z" />
    <glyph glyph-name="gravecomb" unicode="&#x300;" horiz-adv-x="500" 
d="M154 722h91l101 -146h-55z" />
    <glyph glyph-name="acutecomb" unicode="&#x301;" horiz-adv-x="500" 
d="M255 722h91l-137 -146h-55z" />
    <glyph glyph-name="uni0302" unicode="&#x302;" horiz-adv-x="500" 
d="M216 716h68l108 -127h-54l-88 89l-87 -89h-54z" />
    <glyph glyph-name="tildecomb" unicode="&#x303;" horiz-adv-x="500" 
d="M252 677q43 -23 64 -23q22 0 49 38l37 -29q-36 -59 -84 -59q-28 0 -71 23q-43 22 -62 22q-24 0 -51 -37l-36 28q37 59 84 59q29 0 70 -22z" />
    <glyph glyph-name="uni0304" unicode="&#x304;" horiz-adv-x="500" 
d="M101 673h298v-50h-298v50z" />
    <glyph glyph-name="uni0306" unicode="&#x306;" horiz-adv-x="500" 
d="M146 717q15 -84 104 -84q88 0 104 84h44q-18 -131 -148 -131t-148 131h44z" />
    <glyph glyph-name="uni0307" unicode="&#x307;" horiz-adv-x="500" 
d="M283 684q12 -12 12 -33q0 -20 -12 -32q-15 -13 -33 -13q-19 0 -32 13q-13 12 -13 32q0 21 13 33q12 12 32 12t33 -12z" />
    <glyph glyph-name="uni0308" unicode="&#x308;" horiz-adv-x="500" 
d="M372 684q12 -12 12 -33q0 -20 -12 -32q-15 -13 -33 -13q-19 0 -32 13q-12 12 -12 32q0 21 12 33t32 12t33 -12zM193 684q12 -12 12 -33q0 -20 -12 -32q-15 -13 -33 -13q-19 0 -32 13q-12 12 -12 32q0 21 12 33t32 12t33 -12z" />
    <glyph glyph-name="hookabovecomb" unicode="&#x309;" horiz-adv-x="500" 
d="M347 662q0 -60 -95 -96l-24 25q76 33 76 71q0 39 -65 39q-44 0 -86 -19v39q44 16 91 16q103 0 103 -75z" />
    <glyph glyph-name="uni030A" unicode="&#x30a;" horiz-adv-x="500" 
d="M310 712q26 -24 26 -60t-26 -60q-24 -26 -60 -26t-60 26q-25 24 -25 60t25 60q24 25 60 25t60 -25zM214 688q-15 -15 -15 -36q0 -22 15 -37q16 -14 36 -14q21 0 37 14q14 16 14 37q0 20 -14 36q-15 15 -37 15q-21 0 -36 -15z" />
    <glyph glyph-name="uni030B" unicode="&#x30b;" horiz-adv-x="500" 
d="M343 722h91l-129 -146h-54zM158 722h92l-129 -146h-54z" />
    <glyph glyph-name="uni030C" unicode="&#x30c;" horiz-adv-x="500" 
d="M109 716h54l87 -89l88 89h54l-108 -127h-68z" />
    <glyph glyph-name="uni030F" unicode="&#x30f;" horiz-adv-x="500" 
d="M251 722h91l92 -146h-55zM67 722h91l92 -146h-55z" />
    <glyph glyph-name="uni0311" unicode="&#x311;" horiz-adv-x="500" 
d="M398 586h-44q-16 84 -104 84q-89 0 -104 -84h-44q18 131 148 131t148 -131z" />
    <glyph glyph-name="uni031B" unicode="&#x31b;" horiz-adv-x="500" 
d="M229 761h82l-58 -185h-63z" />
    <glyph glyph-name="dotbelowcomb" unicode="&#x323;" horiz-adv-x="500" 
d="M283 -85q12 -12 12 -33q0 -18 -12 -32q-13 -12 -33 -12t-32 12q-13 13 -13 32q0 21 13 33q12 13 32 13t33 -13z" />
    <glyph glyph-name="uni0324" unicode="&#x324;" horiz-adv-x="500" 
d="M378 -85q13 -13 13 -33q0 -17 -13 -32q-13 -12 -33 -12t-32 12q-12 14 -12 32q0 21 12 33q12 13 32 13t33 -13zM187 -85q12 -12 12 -33q0 -18 -12 -32q-13 -12 -33 -12t-32 12q-13 13 -13 32q0 21 13 33q12 13 32 13t33 -13z" />
    <glyph glyph-name="uni0325" unicode="&#x325;" horiz-adv-x="500" 
d="M310 -57q26 -24 26 -60q0 -34 -26 -60t-60 -26q-36 0 -60 26q-26 25 -26 60q0 37 26 60q23 26 60 26q35 0 60 -26zM213 -80q-14 -14 -14 -37t14 -37q16 -14 37 -14t37 14q14 16 14 37t-14 37q-16 15 -37 15q-22 0 -37 -15z" />
    <glyph glyph-name="uni0326" unicode="&#x326;" horiz-adv-x="500" 
d="M229 -26h82l-58 -185h-63z" />
    <glyph glyph-name="uni0327" unicode="&#x327;" horiz-adv-x="500" 
d="M224 3h42l-20 -56q10 1 22 1q38 0 61 -17q28 -19 28 -57q0 -46 -39 -69q-31 -17 -79 -17q-49 0 -96 24l15 31q41 -19 74 -19q31 0 52 13q17 12 17 36q0 43 -65 43q-17 0 -46 -4z" />
    <glyph glyph-name="uni0328" unicode="&#x328;" horiz-adv-x="500" 
d="M254 3q-52 -77 -52 -126q0 -45 44 -45q41 0 89 36l19 -29q-55 -51 -120 -51q-87 0 -87 80q0 30 20 69q19 37 43 66h44z" />
    <glyph glyph-name="uni032D" unicode="&#x32d;" horiz-adv-x="500" 
d="M216 -59h68l108 -127h-54l-88 89l-87 -89h-54z" />
    <glyph glyph-name="uni032E" unicode="&#x32e;" horiz-adv-x="500" 
d="M146 -57q15 -84 104 -84q88 0 104 84h44q-18 -131 -148 -131t-148 131h44z" />
    <glyph glyph-name="uni0330" unicode="&#x330;" horiz-adv-x="500" 
d="M252 -103q43 -23 64 -23q22 0 49 38l37 -28q-36 -59 -84 -59q-27 0 -71 22q-41 22 -62 22q-24 0 -51 -37l-36 28q38 60 84 60q30 0 70 -23z" />
    <glyph glyph-name="uni0331" unicode="&#x331;" horiz-adv-x="500" 
d="M101 -99h298v-50h-298v50z" />
    <glyph glyph-name="uni0338" unicode="&#x338;" horiz-adv-x="500" 
d="M397 530l37 -23l-331 -522l-38 24z" />
    <glyph glyph-name="uni0340" unicode="&#x340;" horiz-adv-x="500" 
d="M154 722h91l101 -146h-55z" />
    <glyph glyph-name="uni0341" unicode="&#x341;" horiz-adv-x="500" 
d="M255 722h91l-137 -146h-55z" />
    <glyph glyph-name="uni0344" unicode="&#x344;" horiz-adv-x="500" 
d="M309 868h92l-137 -146h-55zM372 668q12 -12 12 -33q0 -18 -12 -32q-13 -12 -33 -12t-32 12q-12 14 -12 32q0 21 12 33q12 13 32 13t33 -13zM194 668q12 -12 12 -33q0 -18 -12 -32q-13 -12 -33 -12t-32 12q-13 13 -13 32q0 21 13 33q12 13 32 13t33 -13z" />
    <glyph glyph-name="uni037E" unicode="&#x37e;" horiz-adv-x="264" 
d="M175 590q18 -16 18 -42t-18 -43q-19 -17 -43 -17t-43 17q-18 18 -18 43q0 26 18 42q17 17 43 17t43 -17zM204 143q0 -129 -113 -191l-27 43q78 51 84 129q-8 -2 -16 -2q-25 0 -44 16q-17 16 -17 42q0 30 17 44q17 16 44 16q72 0 72 -97z" />
    <glyph glyph-name="tonos" unicode="&#x384;" horiz-adv-x="500" 
d="M255 868h91l-137 -146h-55z" />
    <glyph glyph-name="dieresistonos" unicode="&#x385;" horiz-adv-x="500" 
d="M309 868h92l-137 -146h-55zM372 668q12 -12 12 -33q0 -18 -12 -32q-13 -12 -33 -12t-32 12q-12 14 -12 32q0 21 12 33q12 13 32 13t33 -13zM194 668q12 -12 12 -33q0 -18 -12 -32q-13 -12 -33 -12t-32 12q-13 13 -13 32q0 21 13 33q12 13 32 13t33 -13z" />
    <glyph glyph-name="uni03A9" unicode="&#x3a9;" horiz-adv-x="734" 
d="M603 627q89 -97 89 -244q0 -211 -166 -312h164v-71h-258v80q88 48 129 112q50 77 50 193q0 118 -70 194q-72 76 -174 76q-104 0 -173 -76q-70 -74 -70 -194q0 -117 49 -193q41 -64 129 -112v-80h-258v71h164q-166 100 -166 312q0 149 88 244q91 101 237 101
q145 0 236 -101z" />
    <glyph glyph-name="uni03BC" unicode="&#x3bc;" horiz-adv-x="560" 
d="M62 517h80v-320q0 -143 133 -143q55 0 94 39q42 42 49 109v315h80v-517h-80v80q-33 -48 -70 -71q-40 -23 -88 -23q-77 0 -118 54v-238h-80v715z" />
    <glyph glyph-name="pi" unicode="&#x3c0;" horiz-adv-x="648" 
d="M22 517h584v-67h-109v-329q0 -65 53 -65q27 0 63 12l13 -66q-56 -16 -98 -16q-110 0 -110 130v334h-225v-450h-80v450h-91v67z" />
    <glyph glyph-name="Ygrave" unicode="&#x1ef2;" horiz-adv-x="662" 
d="M198 901h91l101 -146h-55zM5 714h99l227 -348l227 348h99l-285 -424v-290h-82v290z" />
    <glyph glyph-name="ygrave" unicode="&#x1ef3;" horiz-adv-x="496" 
d="M113 722h91l101 -146h-55zM5 517h87l158 -408l153 408h88l-283 -715h-87l89 210z" />
    <glyph glyph-name="endash" unicode="&#x2013;" horiz-adv-x="824" 
d="M50 401h724v-82h-724v82z" />
    <glyph glyph-name="emdash" unicode="&#x2014;" 
d="M0 394h1000v-68h-1000v68z" />
    <glyph glyph-name="uni2015" unicode="&#x2015;" 
d="M0 399h1000v-78h-1000v78z" />
    <glyph glyph-name="quoteleft" unicode="&#x2018;" horiz-adv-x="340" 
d="M260 794q-79 -49 -84 -129q4 2 16 2q27 0 44 -16q17 -15 17 -42t-17 -44q-19 -16 -44 -16q-72 0 -72 97q0 132 113 191z" />
    <glyph glyph-name="quoteright" unicode="&#x2019;" horiz-adv-x="340" 
d="M220 740q0 -129 -113 -191l-27 43q78 51 84 129q-8 -2 -16 -2q-25 0 -44 16q-17 16 -17 42q0 28 17 44q16 16 44 16q72 0 72 -97z" />
    <glyph glyph-name="quotesinglbase" unicode="&#x201a;" horiz-adv-x="340" 
d="M220 77q0 -129 -113 -191l-27 43q78 51 84 128l-16 -1q-25 0 -44 16q-17 16 -17 42q0 28 17 44t44 16q72 0 72 -97z" />
    <glyph glyph-name="quotedblleft" unicode="&#x201c;" horiz-adv-x="537" 
d="M457 794q-78 -49 -84 -129q4 2 16 2q27 0 44 -16q17 -15 17 -42t-17 -44q-19 -16 -43 -16q-73 0 -73 97q0 131 114 191zM260 794q-79 -49 -84 -129q4 2 16 2q27 0 44 -16q17 -15 17 -42t-17 -44q-19 -16 -44 -16q-72 0 -72 97q0 132 113 191z" />
    <glyph glyph-name="quotedblright" unicode="&#x201d;" horiz-adv-x="537" 
d="M417 740q0 -129 -113 -191l-27 43q78 51 84 129q-8 -2 -16 -2q-25 0 -43 16q-18 17 -18 42q0 28 17 44q16 16 44 16q72 0 72 -97zM220 740q0 -129 -113 -191l-27 43q78 51 84 129q-8 -2 -16 -2q-25 0 -44 16q-17 16 -17 42q0 28 17 44q16 16 44 16q72 0 72 -97z" />
    <glyph glyph-name="quotedblbase" unicode="&#x201e;" horiz-adv-x="537" 
d="M417 77q0 -129 -113 -191l-27 43q78 51 84 128l-16 -1q-25 0 -43 16q-18 17 -18 42q0 28 17 44t44 16q72 0 72 -97zM220 77q0 -129 -113 -191l-27 43q78 51 84 128l-16 -1q-25 0 -44 16q-17 16 -17 42q0 28 17 44t44 16q72 0 72 -97z" />
    <glyph glyph-name="dagger" unicode="&#x2020;" horiz-adv-x="593" 
d="M263 797h68v-221h200v-68h-200v-590h-68v590h-201v68h201v221z" />
    <glyph glyph-name="daggerdbl" unicode="&#x2021;" horiz-adv-x="593" 
d="M263 797h68v-221h200v-68h-200v-301h200v-68h-200v-221h-68v221h-201v68h201v301h-201v68h201v221z" />
    <glyph glyph-name="bullet" unicode="&#x2022;" horiz-adv-x="500" 
d="M368 477q48 -48 48 -117q0 -68 -48 -118q-49 -48 -118 -48t-117 48q-48 50 -48 118q0 69 48 117t117 48t118 -48z" />
    <glyph glyph-name="ellipsis" unicode="&#x2026;" 
d="M210 102q17 -17 17 -42q0 -26 -17 -43q-19 -17 -44 -17t-42 17q-18 18 -18 43q0 26 18 42q16 17 42 17q27 0 44 -17zM544 102q17 -17 17 -42q0 -26 -17 -43q-19 -17 -44 -17q-24 0 -43 17q-17 17 -17 43t17 42q17 17 43 17q27 0 44 -17zM876 102q18 -16 18 -42t-18 -43
q-19 -17 -43 -17t-43 17q-17 17 -17 43t17 42q17 17 43 17t43 -17z" />
    <glyph glyph-name="perthousand" unicode="&#x2030;" horiz-adv-x="1136" 
d="M550 728h64l-400 -742h-64zM294 655q38 -52 38 -137q0 -84 -38 -137q-44 -58 -123 -58q-80 0 -123 58q-38 53 -38 137q0 87 38 137q41 59 123 59q80 0 123 -59zM104 618q-19 -35 -19 -100q0 -63 19 -98q22 -43 67 -43q44 0 67 44q19 38 19 97q0 62 -20 99q-21 43 -66 43
q-46 0 -67 -42zM717 332q38 -52 38 -137q0 -84 -38 -137q-44 -58 -123 -58q-80 0 -123 58q-38 53 -38 137q0 87 38 137q41 59 123 59q80 0 123 -59zM527 295q-19 -35 -19 -100q0 -63 19 -98q22 -43 67 -43q44 0 67 44q19 38 19 97q0 62 -20 99q-21 43 -66 43q-46 0 -67 -42z
M1088 332q38 -52 38 -137q0 -84 -38 -137q-43 -58 -123 -58q-79 0 -122 58q-39 54 -39 137q0 86 39 137q41 59 122 59q82 0 123 -59zM898 295q-19 -35 -19 -100q0 -63 19 -98q22 -43 67 -43q44 0 68 44q18 36 18 97t-19 99q-22 43 -67 43q-46 0 -67 -42z" />
    <glyph glyph-name="guilsinglleft" unicode="&#x2039;" horiz-adv-x="385" 
d="M335 589v-71l-227 -157l227 -156v-72l-285 198v61z" />
    <glyph glyph-name="guilsinglright" unicode="&#x203a;" horiz-adv-x="385" 
d="M50 589l285 -197v-61l-285 -198v72l227 156l-227 157v71z" />
    <glyph glyph-name="fraction" unicode="&#x2044;" horiz-adv-x="798" 
d="M708 820h70l-687 -920h-71z" />
    <glyph glyph-name="uni2070" unicode="&#x2070;" horiz-adv-x="500" 
d="M373 760q36 -58 36 -156t-36 -158q-42 -69 -123 -69q-82 0 -123 69q-36 60 -36 158q0 99 37 158q39 67 122 67q81 0 123 -69zM152 604q0 -174 98 -174q56 0 80 58q18 44 18 116q0 73 -18 115q-24 57 -80 57q-98 0 -98 -172z" />
    <glyph glyph-name="uni2074" unicode="&#x2074;" horiz-adv-x="500" 
d="M290 821h65v-289h70v-50h-70v-97h-58v97h-222v53zM294 749l-160 -217h163v217h-3z" />
    <glyph glyph-name="uni2075" unicode="&#x2075;" horiz-adv-x="500" 
d="M126 821h263v-54h-212l-13 -126q40 37 99 37q64 0 104 -40q41 -41 41 -111q0 -67 -48 -109q-46 -41 -113 -41q-59 0 -102 32q-47 35 -53 102h60q4 -40 32 -63q24 -18 63 -18q43 0 72 26q28 28 28 70q0 50 -26 76q-25 25 -70 25q-66 0 -93 -51h-56z" />
    <glyph glyph-name="uni2076" unicode="&#x2076;" horiz-adv-x="500" 
d="M401 705h-60q-15 73 -85 73q-54 0 -80 -57q-20 -41 -21 -106q19 30 47 44q27 15 61 15q66 0 106 -41q39 -40 39 -106q0 -65 -42 -107q-45 -43 -110 -43q-82 0 -123 59q-40 56 -40 156q0 105 42 169q43 68 121 68q127 0 145 -124zM189 596q-28 -27 -28 -69q0 -43 25 -69
q26 -29 69 -29q42 0 67 27q26 29 26 71q0 43 -25 70q-26 26 -68 26q-40 0 -66 -27z" />
    <glyph glyph-name="uni2077" unicode="&#x2077;" horiz-adv-x="500" 
d="M102 821h297v-46l-163 -390h-64l162 380h-232v56z" />
    <glyph glyph-name="uni2078" unicode="&#x2078;" horiz-adv-x="500" 
d="M361 794q37 -34 37 -82q0 -67 -61 -94q31 -11 53 -41q24 -30 24 -69q0 -57 -43 -94q-45 -37 -121 -37q-78 0 -121 37q-42 36 -42 94q0 40 23 69q20 29 53 41q-61 27 -61 94q0 49 39 83q38 34 109 34q70 0 111 -35zM181 757q-21 -18 -21 -47q0 -31 19 -50q24 -22 71 -22
q46 0 71 22q19 21 19 50t-21 47q-25 22 -69 22q-46 0 -69 -22zM171 566q-24 -21 -24 -58q0 -81 103 -81q51 0 79 23q24 21 24 58t-24 58q-26 25 -79 25t-79 -25z" />
    <glyph glyph-name="uni2079" unicode="&#x2079;" horiz-adv-x="500" 
d="M369 770q39 -55 39 -156q0 -103 -41 -168q-45 -69 -122 -69q-127 0 -145 124h60q15 -73 85 -73q53 0 80 57q18 42 21 106q-17 -26 -45 -43q-32 -16 -63 -16q-67 0 -106 41q-39 42 -39 106q0 65 43 107q42 43 109 43q83 0 124 -59zM179 750q-26 -26 -26 -71q0 -44 25 -70
q26 -26 68 -26q40 0 67 27t27 69t-25 69q-26 29 -69 29t-67 -27z" />
    <glyph glyph-name="uni2080" unicode="&#x2080;" horiz-adv-x="500" 
d="M373 275q36 -58 36 -156t-36 -158q-42 -69 -123 -69q-82 0 -123 69q-36 60 -36 158t37 157q38 68 122 68q81 0 123 -69zM152 119q0 -174 98 -174q56 0 80 58q18 44 18 116q0 73 -18 115q-24 57 -80 57q-98 0 -98 -172z" />
    <glyph glyph-name="uni2081" unicode="&#x2081;" horiz-adv-x="500" 
d="M289 336v-436h-61v359q-39 -35 -103 -53v60q70 18 118 70h46z" />
    <glyph glyph-name="uni2082" unicode="&#x2082;" horiz-adv-x="500" 
d="M359 309q40 -35 40 -94q0 -58 -43 -104q-21 -21 -92 -69q-75 -50 -90 -88h226v-54h-301q0 64 45 113q26 30 95 77q54 38 67 51q33 35 33 74q0 38 -23 56q-21 20 -62 20q-43 0 -65 -28q-26 -31 -26 -86h-61q0 76 44 122q39 45 109 45q65 0 104 -35z" />
    <glyph glyph-name="uni2083" unicode="&#x2083;" horiz-adv-x="500" 
d="M359 312q40 -34 40 -88q0 -68 -62 -95q71 -30 71 -100q0 -60 -44 -99q-44 -38 -113 -38q-60 0 -99 27q-54 37 -60 122h62q1 -54 35 -78q25 -19 62 -19q43 0 71 25q25 25 25 58q0 37 -24 56q-25 19 -67 19h-41v49h39q84 0 84 70q0 34 -21 52q-22 18 -62 18q-85 0 -94 -88
h-60q6 68 48 104q40 37 105 37q66 0 105 -32z" />
    <glyph glyph-name="uni2084" unicode="&#x2084;" horiz-adv-x="500" 
d="M290 336h65v-289h70v-50h-70v-97h-58v97h-222v53zM294 264l-160 -217h163v217h-3z" />
    <glyph glyph-name="uni2085" unicode="&#x2085;" horiz-adv-x="500" 
d="M126 336h263v-54h-212l-13 -126q40 37 99 37q64 0 104 -41q41 -39 41 -110q0 -66 -48 -110q-46 -40 -113 -40q-59 0 -102 32q-47 35 -53 102h60q4 -40 32 -63q24 -18 63 -18q43 0 72 26q28 28 28 70q0 52 -26 76q-26 25 -70 25q-66 0 -93 -51h-56z" />
    <glyph glyph-name="uni2086" unicode="&#x2086;" horiz-adv-x="500" 
d="M401 220h-60q-15 73 -85 73q-54 0 -80 -57q-20 -41 -21 -106q18 29 47 43q26 16 61 16q66 0 106 -41q39 -40 39 -106q0 -64 -42 -108q-43 -42 -110 -42q-82 0 -123 59q-40 56 -40 156q0 105 42 169q43 68 121 68q127 0 145 -124zM189 111q-28 -27 -28 -69q0 -44 25 -70
q26 -28 69 -28q42 0 67 27q26 29 26 71q0 43 -25 70q-26 26 -68 26q-40 0 -66 -27z" />
    <glyph glyph-name="uni2087" unicode="&#x2087;" horiz-adv-x="500" 
d="M102 336h297v-46l-163 -390h-64l162 380h-232v56z" />
    <glyph glyph-name="uni2088" unicode="&#x2088;" horiz-adv-x="500" 
d="M361 309q37 -34 37 -82q0 -67 -61 -94q31 -11 53 -41q24 -30 24 -69q0 -58 -43 -95q-43 -36 -121 -36q-79 0 -121 36t-42 95q0 40 23 69q20 29 53 41q-61 27 -61 94q0 49 39 83q38 34 109 34q70 0 111 -35zM181 272q-21 -18 -21 -47q0 -30 19 -49q21 -23 71 -23
q48 0 71 23q19 21 19 49q0 29 -21 47q-25 22 -69 22q-46 0 -69 -22zM171 81q-24 -21 -24 -58q0 -81 103 -81q52 0 80 23q23 21 23 58t-24 58q-26 25 -79 25t-79 -25z" />
    <glyph glyph-name="uni2089" unicode="&#x2089;" horiz-adv-x="500" 
d="M369 285q39 -55 39 -156q0 -103 -41 -168q-45 -69 -122 -69q-127 0 -145 124h60q15 -73 85 -73q53 0 80 57q18 42 21 106q-17 -25 -46 -43q-32 -16 -62 -16q-67 0 -106 41q-39 42 -39 106q0 66 43 108q42 42 109 42q83 0 124 -59zM179 265q-26 -26 -26 -71q0 -44 25 -70
q26 -26 68 -26q40 0 67 27t27 69t-25 70q-27 28 -69 28q-43 0 -67 -27z" />
    <glyph glyph-name="dong" unicode="&#x20ab;" horiz-adv-x="616" 
d="M444 728h80v-85h92v-50h-92v-593h-75v85q-54 -99 -172 -99q-113 0 -177 82q-58 74 -58 192q0 114 58 188q61 83 173 83q111 0 171 -109v171h-177v50h177v85zM162 405q-38 -51 -38 -145t37 -147q43 -61 126 -61q78 0 121 60q38 55 38 141v10q0 89 -43 146q-43 56 -113 56
q-86 0 -128 -60zM160 -98h299v-52h-299v52z" />
    <glyph glyph-name="Euro" unicode="&#x20ac;" horiz-adv-x="700" 
d="M575 666q69 -59 87 -160h-81q-18 74 -67 111q-47 38 -119 38q-109 0 -165 -89q-31 -46 -44 -118h360l-15 -50h-351q-1 -13 -1 -42q0 -27 1 -41h328l-15 -50h-307q10 -63 38 -112q56 -94 173 -94q73 0 123 44q47 42 66 117h82q-24 -110 -97 -172q-74 -62 -173 -62
q-153 0 -232 115q-49 70 -62 164h-104l15 50h83q-1 14 -1 41q0 29 1 42h-98l15 50h88q15 103 65 170q79 110 229 110q107 0 178 -62z" />
    <glyph glyph-name="uni20B4" unicode="&#x20b4;" horiz-adv-x="576" 
d="M447 679q60 -49 60 -141q0 -54 -33 -99h90v-50h-143q-37 -24 -129 -69l-26 -13h298v-50h-375q-44 -35 -44 -80q0 -56 34 -87q35 -33 101 -33q127 0 148 137h79q-13 -102 -72 -156q-58 -50 -155 -50q-105 0 -159 48q-57 50 -57 140q0 47 20 81h-72v50h114l2 2
q30 25 135 77q3 3 6 3h-257v50h348q13 8 19 13q46 38 46 87q0 58 -34 89q-34 30 -101 30q-130 0 -148 -138h-78q12 104 72 156q57 51 154 51q100 0 157 -48z" />
    <glyph glyph-name="uni20B9" unicode="&#x20b9;" horiz-adv-x="600" 
d="M81 537h242q-7 55 -43 88q-45 39 -123 39h-92l17 50h455l-17 -50h-180q58 -49 65 -127h130l-17 -50h-114q-7 -59 -50 -99q-51 -47 -131 -60q18 -12 53 -59l208 -269h-111l-180 242q-27 37 -53 55q-31 20 -69 20v57h54q98 0 150 38q38 28 47 75h-258z" />
    <glyph glyph-name="uni2113" unicode="&#x2113;" horiz-adv-x="569" 
d="M263 487q-52 -147 -55 -282q71 35 124 84q123 114 123 285q0 89 -56 89q-75 0 -136 -176zM127 171v1q0 183 67 350q81 206 212 206q62 0 91 -47q25 -41 25 -102q0 -196 -144 -334q-73 -67 -165 -110q3 -16 9 -32q18 -50 63 -50q66 0 123 89l58 -35q-39 -60 -79 -88
q-48 -33 -113 -33q-76 0 -115 59q-18 26 -25 59q-42 -13 -87 -24v67z" />
    <glyph glyph-name="uni2116" unicode="&#x2116;" 
d="M904 521q49 -64 49 -169q0 -103 -49 -169q-53 -68 -145 -68q-93 0 -146 68q-49 64 -49 169q0 107 49 169q52 68 146 68q93 0 145 -68zM579 50h359v-50h-359v50zM47 714h84l286 -552h3v552h82v-714h-83l-288 553h-3v-553h-81v714zM667 470q-25 -43 -25 -118q0 -74 25 -117
q30 -54 92 -54q61 0 91 54q25 45 25 117q0 73 -25 118q-29 53 -91 53q-63 0 -92 -53z" />
    <glyph glyph-name="uni2117" unicode="&#x2117;" horiz-adv-x="802" 
d="M664 620q108 -108 108 -263q0 -153 -108 -263q-109 -108 -263 -108q-155 0 -263 108q-108 110 -108 263q0 155 108 263t263 108q154 0 263 -108zM172 586q-95 -94 -95 -229q0 -134 95 -229t229 -95q132 0 229 95q95 97 95 229q0 134 -95 229t-229 95q-135 0 -229 -95z
M251 578h189q160 0 160 -133q0 -134 -161 -134h-118v-175h-70v442zM321 518v-146h117q49 0 71 18q21 18 21 56q0 72 -92 72h-117z" />
    <glyph glyph-name="trademark" unicode="&#x2122;" horiz-adv-x="893" 
d="M401 728h79l140 -316h3l139 316h79v-400h-64v291h-3l-126 -291h-54l-126 291h-3v-291h-64v400zM22 728h341v-59h-138v-341h-65v341h-138v59z" />
    <glyph glyph-name="Omega" unicode="&#x2126;" horiz-adv-x="734" 
d="M603 627q89 -97 89 -244q0 -211 -166 -312h164v-71h-258v80q88 48 129 112q50 77 50 193q0 118 -70 194q-72 76 -174 76q-104 0 -173 -76q-70 -74 -70 -194q0 -117 49 -193q41 -64 129 -112v-80h-258v71h164q-166 100 -166 312q0 149 88 244q91 101 237 101
q145 0 236 -101z" />
    <glyph glyph-name="uni212B" unicode="&#x212b;" horiz-adv-x="657" 
d="M389 885q25 -27 25 -60q0 -34 -25 -61q-27 -25 -60 -25q-35 0 -60 25q-26 25 -26 61q0 35 26 60q25 25 60 25q33 0 60 -25zM292 861q-14 -14 -14 -36q0 -23 14 -37q16 -14 37 -14q20 0 36 14q15 15 15 37q0 21 -15 36t-36 15q-22 0 -37 -15zM281 714h95l281 -714h-89
l-76 200h-328l-76 -200h-88zM190 269h276l-135 357h-4z" />
    <glyph glyph-name="estimated" unicode="&#x212e;" horiz-adv-x="810" 
d="M655 542q103 -97 103 -240v-20h-592v-175q43 -52 104 -78q62 -28 135 -28q93 0 169 44q72 44 117 124h42q-45 -98 -132 -152q-88 -54 -196 -54q-150 0 -249 93q-104 95 -104 243q0 149 104 244q98 94 249 94q149 0 250 -95zM270 572q-62 -27 -104 -80v-172h478v172
q-43 52 -103 79q-62 28 -136 28q-73 0 -135 -27z" />
    <glyph glyph-name="onethird" unicode="&#x2153;" 
d="M887 312q39 -33 39 -88q0 -68 -61 -95q70 -30 70 -100q0 -59 -43 -99q-46 -38 -113 -38q-60 0 -99 27q-54 37 -60 122h61q3 -55 35 -78q25 -19 62 -19q43 0 71 25q26 24 26 58q0 36 -25 56q-23 19 -67 19h-41v49h39q85 0 85 70q0 33 -22 52q-22 18 -62 18q-84 0 -94 -88
h-60q6 68 48 104q40 37 105 37q67 0 106 -32zM809 820h70l-687 -920h-71zM256 821v-436h-60v359q-40 -35 -103 -53v60q69 18 117 70h46z" />
    <glyph glyph-name="twothirds" unicode="&#x2154;" 
d="M887 312q39 -33 39 -88q0 -68 -61 -95q70 -30 70 -100q0 -59 -43 -99q-46 -38 -113 -38q-60 0 -99 27q-54 37 -60 122h61q3 -55 35 -78q25 -19 62 -19q43 0 71 25q26 24 26 58q0 36 -25 56q-23 19 -67 19h-41v49h39q85 0 85 70q0 33 -22 52q-22 18 -62 18q-84 0 -94 -88
h-60q6 68 48 104q40 37 105 37q67 0 106 -32zM809 820h70l-687 -920h-71zM338 794q40 -35 40 -94q0 -58 -44 -104q-24 -24 -91 -69q-77 -50 -90 -88h226v-54h-301q0 65 44 113q28 31 96 77q54 38 67 51q33 35 33 74q0 38 -23 56q-23 20 -63 20q-42 0 -64 -28
q-26 -31 -26 -86h-61q0 77 43 123q40 44 110 44q65 0 104 -35z" />
    <glyph glyph-name="oneeighth" unicode="&#x215b;" 
d="M889 309q37 -34 37 -82q0 -67 -61 -94q32 -12 53 -41q23 -31 23 -69q0 -59 -42 -95q-45 -36 -121 -36q-79 0 -121 36q-43 36 -43 95q0 40 23 69q22 30 53 41q-60 27 -60 94q0 49 39 83q37 34 109 34q70 0 111 -35zM809 820h70l-687 -920h-71zM256 821v-436h-60v359
q-40 -35 -103 -53v60q69 18 117 70h46zM709 272q-21 -18 -21 -47q0 -30 19 -49q21 -23 71 -23q46 0 71 23q19 21 19 49q0 29 -21 47q-25 22 -69 22q-46 0 -69 -22zM699 81q-24 -21 -24 -58q0 -81 103 -81q51 0 79 23q24 21 24 58t-24 58q-26 25 -79 25t-79 -25z" />
    <glyph glyph-name="threeeighths" unicode="&#x215c;" 
d="M889 309q37 -34 37 -82q0 -67 -61 -94q32 -12 53 -41q23 -31 23 -69q0 -59 -42 -95q-45 -36 -121 -36q-79 0 -121 36q-43 36 -43 95q0 40 23 69q22 30 53 41q-60 27 -60 94q0 49 39 83q37 34 109 34q70 0 111 -35zM809 820h70l-687 -920h-71zM331 796q40 -32 40 -87
q0 -68 -62 -95q71 -30 71 -100q0 -60 -44 -99q-44 -38 -113 -38q-60 0 -99 27q-54 37 -60 122h62q1 -54 35 -78q25 -19 62 -19q43 0 71 25q25 25 25 58q0 37 -24 56q-25 19 -67 19h-41v49h39q84 0 84 70q0 34 -21 52q-22 18 -62 18q-85 0 -94 -88h-60q6 68 48 104
q40 37 105 37t105 -33zM709 272q-21 -18 -21 -47q0 -30 19 -49q21 -23 71 -23q46 0 71 23q19 21 19 49q0 29 -21 47q-25 22 -69 22q-46 0 -69 -22zM699 81q-24 -21 -24 -58q0 -81 103 -81q51 0 79 23q24 21 24 58t-24 58q-26 25 -79 25t-79 -25z" />
    <glyph glyph-name="fiveeighths" unicode="&#x215d;" 
d="M889 309q37 -34 37 -82q0 -67 -61 -94q32 -12 53 -41q23 -31 23 -69q0 -59 -42 -95q-45 -36 -121 -36q-79 0 -121 36q-43 36 -43 95q0 40 23 69q22 30 53 41q-60 27 -60 94q0 49 39 83q37 34 109 34q70 0 111 -35zM809 820h70l-687 -920h-71zM101 821h264v-54h-213
l-12 -126q38 37 98 37q64 0 105 -40q40 -42 40 -111q0 -67 -47 -109q-46 -41 -113 -41q-60 0 -103 32q-47 36 -52 102h60q5 -41 31 -63q24 -18 63 -18q44 0 72 26q28 28 28 70q0 49 -25 76q-26 25 -71 25q-64 0 -93 -51h-56zM709 272q-21 -18 -21 -47q0 -30 19 -49
q21 -23 71 -23q46 0 71 23q19 21 19 49q0 29 -21 47q-25 22 -69 22q-46 0 -69 -22zM699 81q-24 -21 -24 -58q0 -81 103 -81q51 0 79 23q24 21 24 58t-24 58q-26 25 -79 25t-79 -25z" />
    <glyph glyph-name="seveneighths" unicode="&#x215e;" 
d="M889 309q37 -34 37 -82q0 -67 -61 -94q32 -12 53 -41q23 -31 23 -69q0 -59 -42 -95q-45 -36 -121 -36q-79 0 -121 36q-43 36 -43 95q0 40 23 69q22 30 53 41q-60 27 -60 94q0 49 39 83q37 34 109 34q70 0 111 -35zM809 820h70l-687 -920h-71zM102 821h297v-46l-163 -390
h-64l162 380h-232v56zM709 272q-21 -18 -21 -47q0 -30 19 -49q21 -23 71 -23q46 0 71 23q19 21 19 49q0 29 -21 47q-25 22 -69 22q-46 0 -69 -22zM699 81q-24 -21 -24 -58q0 -81 103 -81q51 0 79 23q24 21 24 58t-24 58q-26 25 -79 25t-79 -25z" />
    <glyph glyph-name="partialdiff" unicode="&#x2202;" horiz-adv-x="616" 
d="M520 659q54 -63 54 -162q0 -186 -78 -333q-95 -178 -258 -178q-89 0 -142 54q-54 54 -54 142q0 116 71 193q73 80 191 80q74 0 125 -51q27 -29 44 -65q20 80 20 156q0 74 -38 120q-39 46 -102 46q-87 0 -146 -68l-45 54q80 81 201 81q100 0 157 -69zM439 240
q-11 49 -28 80q-38 71 -106 71q-81 0 -133 -65q-48 -60 -48 -144q0 -58 32 -93q30 -36 79 -36q116 0 193 163z" />
    <glyph glyph-name="Delta" unicode="&#x2206;" horiz-adv-x="667" 
d="M288 714h91l277 -714h-644zM334 610l-207 -537h414z" />
    <glyph glyph-name="product" unicode="&#x220f;" horiz-adv-x="711" 
d="M72 714h567v-714h-82v643h-403v-643h-82v714z" />
    <glyph glyph-name="summation" unicode="&#x2211;" horiz-adv-x="601" 
d="M35 714h522v-71h-423l258 -271l-265 -301h447v-71h-547v75l259 296l-251 266v77z" />
    <glyph glyph-name="minus" unicode="&#x2212;" horiz-adv-x="824" 
d="M50 401h724v-82h-724v82z" />
    <glyph glyph-name="uni2215" unicode="&#x2215;" horiz-adv-x="798" 
d="M708 820h70l-687 -920h-71z" />
    <glyph glyph-name="uni2219" unicode="&#x2219;" horiz-adv-x="410" 
d="M280 435q30 -30 30 -74q0 -42 -30 -74q-34 -31 -75 -31q-42 0 -75 31q-30 32 -30 74q0 44 30 74t75 30q44 0 75 -30z" />
    <glyph glyph-name="radical" unicode="&#x221a;" 
d="M439 860h553v-50h-516l-234 -847l-133 279l-74 -56l-27 41l142 109l90 -191z" />
    <glyph glyph-name="infinity" unicode="&#x221e;" horiz-adv-x="984" 
d="M367 506q56 -37 125 -103q65 63 114 96q74 52 133 52q87 0 141 -54q52 -55 52 -140q0 -83 -52 -140q-54 -54 -141 -54q-52 0 -123 46q-51 32 -124 102q-71 -68 -125 -102q-71 -46 -122 -46q-88 0 -139 54q-54 56 -54 140q0 86 54 140q51 54 139 54q53 0 122 -45zM642 444
q-42 -28 -101 -87q60 -58 102 -87q57 -40 96 -40q58 0 92 36q34 37 34 91q0 55 -34 91t-92 36q-41 0 -97 -40zM153 448q-34 -34 -34 -91q0 -56 34 -91q33 -36 92 -36q42 0 106 47q38 29 91 80q-57 55 -101 86q-56 41 -96 41q-59 0 -92 -36z" />
    <glyph glyph-name="integral" unicode="&#x222b;" horiz-adv-x="511" 
d="M429 679h-69q-9 76 -57 76q-51 0 -51 -93q0 -83 39 -302q37 -208 37 -279q0 -70 -25 -120q-33 -60 -98 -60q-108 0 -123 140h69q8 -76 57 -76q52 0 52 93q0 69 -29 246q-26 151 -31 221q-7 57 -8 97q0 57 10 97q22 100 105 100q107 0 122 -140z" />
    <glyph glyph-name="approxequal" unicode="&#x2248;" horiz-adv-x="782" 
d="M396 497q87 -48 132 -48q59 0 123 85l49 -41q-47 -57 -75 -79q-45 -31 -96 -31q-58 0 -145 46q-87 48 -133 48q-60 0 -120 -82l-49 40q40 54 72 77q44 32 96 32q61 0 146 -47zM396 286q88 -47 132 -47q59 0 123 85l49 -41q-44 -54 -75 -79q-44 -32 -96 -32q-59 0 -145 48
q-85 47 -133 47q-61 0 -120 -83l-49 41q41 53 72 76q45 33 96 33q59 0 146 -48z" />
    <glyph glyph-name="notequal" unicode="&#x2260;" horiz-adv-x="788" 
d="M487 680h72l-72 -181h219v-67h-246l-59 -147h305v-67h-332l-73 -182h-73l73 182h-219v67h246l59 147h-305v67h332z" />
    <glyph glyph-name="lessequal" unicode="&#x2264;" horiz-adv-x="788" 
d="M706 658v-72l-514 -161l514 -161v-73l-624 197v74zM82 305l624 -196v-68l-624 196v68z" />
    <glyph glyph-name="greaterequal" unicode="&#x2265;" horiz-adv-x="788" 
d="M82 658l624 -196v-74l-624 -197v73l514 161l-514 161v72zM706 305v-68l-624 -196v68z" />
    <glyph glyph-name="dotmath" unicode="&#x22c5;" horiz-adv-x="343" 
d="M222 412q21 -21 21 -51q0 -28 -21 -51q-21 -21 -50 -21q-30 0 -51 21q-21 23 -21 51q0 30 21 51t51 21q29 0 50 -21z" />
    <glyph glyph-name="lozenge" unicode="&#x25ca;" 
d="M500 810l244 -450l-244 -450l-244 450zM500 683l-173 -323l173 -323l173 323z" />
    <glyph glyph-name="uni29F5" unicode="&#x29f5;" horiz-adv-x="500" 
d="M37 820h71l355 -920h-72z" />
    <glyph glyph-name="uniF8FF" unicode="&#xf8ff;" 
d="M659 753q0 -49 -31 -102q-34 -53 -81 -67l-56 -11q15 159 164 204q4 -16 4 -24zM823 503q-90 -78 -90 -164q0 -56 32 -105q34 -54 85 -67q-20 -68 -71 -139q-63 -84 -120 -84q-26 0 -71 16q-41 16 -74 16q-36 0 -78 -18q-45 -17 -62 -17q-61 0 -121 89q-102 152 -102 293
q0 110 48 179q52 79 151 79q40 0 88 -15q50 -16 68 -16q17 0 68 18q47 17 93 17q105 0 156 -82z" />
    <glyph glyph-name="uniFE10" unicode="&#xfe10;" 
d="M818 617q0 -129 -113 -191l-27 43q78 51 84 129q-8 -2 -16 -2q-25 0 -44 16q-17 16 -17 42q0 29 17 43q16 17 44 17q72 0 72 -97z" />
    <glyph glyph-name="uniFE13" unicode="&#xfe13;" 
d="M794 697q17 -15 17 -42q0 -24 -17 -43q-19 -17 -44 -17q-24 0 -43 17q-17 17 -17 43q0 28 17 42q17 17 43 17q27 0 44 -17zM794 331q17 -15 17 -42q0 -24 -17 -43q-19 -17 -44 -17q-24 0 -43 17q-17 17 -17 43q0 28 17 42q17 17 43 17q27 0 44 -17z" />
    <glyph glyph-name="uniFE14" unicode="&#xfe14;" 
d="M790 698q17 -17 17 -43q0 -25 -18 -43q-19 -17 -43 -17q-25 0 -44 17q-17 17 -17 43q0 27 17 43t44 16t44 -16zM818 250q0 -129 -113 -191l-27 43q78 51 84 129q-8 -2 -16 -2q-25 0 -44 16q-17 16 -17 42q0 30 17 44q17 16 44 16q72 0 72 -97z" />
    <glyph glyph-name="uniFE15" unicode="&#xfe15;" 
d="M704 714h93l-16 -522h-62zM794 102q17 -17 17 -42q0 -26 -17 -43q-19 -17 -44 -17q-26 0 -43 17t-17 43t17 42q16 17 43 17t44 -17z" />
    <glyph glyph-name="uniFE16" unicode="&#xfe16;" 
d="M913 675q56 -51 56 -141q0 -67 -38 -117q-17 -20 -81 -77q-32 -27 -47 -55q-19 -32 -19 -73v-23h-80v23q0 50 18 87q21 45 101 116q28 28 34 36q30 38 30 79q0 59 -34 93q-34 35 -98 35q-75 0 -111 -49q-33 -42 -33 -115h-79q0 106 59 168q60 66 168 66q97 0 154 -53z
M788 102q17 -17 17 -42q0 -26 -18 -43q-19 -17 -43 -17t-43 17q-17 17 -17 43t17 42q17 17 43 17q27 0 44 -17z" />
    <glyph glyph-name="uniFE19" unicode="&#xfe19;" 
d="M544 735q17 -17 17 -43q0 -23 -17 -42q-19 -17 -43 -17q-27 0 -44 17t-17 42q0 29 17 43q17 17 44 17q26 0 43 -17zM544 401q17 -15 17 -42q0 -24 -17 -43q-19 -16 -43 -16q-26 0 -44 16q-17 17 -17 43q0 27 17 43t44 16q26 0 43 -17zM544 67q17 -15 17 -42
q0 -25 -17 -42q-19 -17 -43 -17q-27 0 -44 17q-17 16 -17 42q0 29 17 43q17 17 44 17q25 0 43 -18z" />
    <glyph glyph-name="uniFE31" unicode="&#xfe31;" 
d="M466 860h68v-1000h-68v1000z" />
    <glyph glyph-name="uniFE32" unicode="&#xfe32;" 
d="M466 486h68v-250h-68v250z" />
    <glyph glyph-name="uniFE33" unicode="&#xfe33;" 
d="M216 860h68v-1000h-68v1000z" />
    <glyph glyph-name="uniFE34" unicode="&#xfe34;" 
d="M306 849q0 -6 -10 -14q-78 -55 -78 -83q0 -4 44 -55q44 -52 44 -79q0 -17 -44 -66q-44 -47 -44 -55q14 -19 44 -57q44 -55 44 -82q0 -23 -44 -70q-44 -45 -44 -60q0 -9 44 -60q44 -53 44 -74q0 -17 -44 -66q-44 -45 -44 -56q0 -20 72 -82q16 -14 16 -18q0 -12 -12 -12
q-3 0 -19 13q-80 64 -80 98q0 24 45 70q44 49 44 53q0 8 -44 58q-45 51 -45 72q0 29 45 80q44 52 44 54q0 12 -44 67q-45 56 -45 70q0 25 45 71q44 47 44 52q0 8 -44 60q-45 53 -45 71q0 54 85 105q9 6 14 6q12 0 12 -11z" />
    <glyph glyph-name="uniFE35" unicode="&#xfe35;" 
d="M761 114q111 -38 206 -103v-70q-102 61 -207 95q-129 44 -260 44t-260 -44q-106 -34 -207 -95v70q94 65 206 103q126 44 260 44q136 0 262 -44z" />
    <glyph glyph-name="uniFE36" unicode="&#xfe36;" 
d="M33 781q95 -58 207 -95q134 -44 260 -44t260 44q110 37 207 95v-70q-95 -63 -206 -103q-130 -44 -262 -44q-130 0 -260 44q-112 40 -206 103v70z" />
    <glyph glyph-name="uniFE37" unicode="&#xfe37;" 
d="M533 180q3 -55 26 -75q22 -20 66 -20h203q64 0 100 -32q39 -33 39 -95v-68h-63v56q0 66 -73 66h-209q-91 0 -121 81q-36 -81 -122 -81h-210q-73 0 -73 -66v-56h-63v68q0 62 39 95q35 32 100 32h203q45 0 67 20q23 21 26 75h65z" />
    <glyph glyph-name="uniFE38" unicode="&#xfe38;" 
d="M33 830h63v-56q0 -66 73 -66h210q86 0 122 -81q30 81 121 81h209q73 0 73 66v56h63v-68q0 -60 -39 -95q-38 -32 -100 -32h-203q-46 0 -66 -19q-23 -20 -26 -76h-65q-3 55 -27 76q-20 19 -66 19h-203q-63 0 -100 32q-39 35 -39 95v68z" />
    <glyph glyph-name="uniFE47" unicode="&#xfe47;" 
d="M33 134h934v-244h-67v170h-800v-170h-67v244z" />
    <glyph glyph-name="uniFE48" unicode="&#xfe48;" 
d="M33 830h67v-170h800v170h67v-244h-934v244z" />
    <glyph glyph-name="omacron" unicode="&#x14d;" horiz-adv-x="586" 
d="M144 673h298v-50h-298v50zM479 449q65 -76 65 -191q0 -114 -65 -191q-69 -81 -186 -81t-186 81q-65 75 -65 191q0 117 65 191q69 82 186 82q116 0 186 -82zM168 406q-44 -56 -44 -148q0 -90 44 -146q47 -59 125 -59q77 0 125 59q44 58 44 146q0 90 -44 148
q-48 58 -125 58q-79 0 -125 -58z" />
    <glyph glyph-name="uni01CE" unicode="&#x1ce;" horiz-adv-x="559" 
d="M136 716h58l87 -89l88 89h54l-107 -127h-68zM451 473q46 -52 46 -141v-332h-75v87q-31 -43 -80 -70q-59 -31 -128 -31q-78 0 -124 40q-48 41 -48 109q0 99 79 144q64 38 172 38l124 1v17q0 130 -135 130q-63 0 -98 -26q-39 -27 -48 -80h-79q12 89 76 132q56 40 154 40
q110 0 164 -58zM417 255l-119 -1q-174 0 -174 -118q0 -38 28 -62q29 -23 79 -23q78 0 133 48q53 48 53 111v45z" />
    <glyph glyph-name="uni01D0" unicode="&#x1d0;" horiz-adv-x="256" 
d="M-13 716h54l87 -89l88 89h54l-108 -127h-68zM89 517h79v-517h-79v517z" />
    <glyph glyph-name="uni01D2" unicode="&#x1d2;" horiz-adv-x="586" 
d="M152 716h54l87 -89l88 89h54l-108 -127h-68zM479 449q65 -76 65 -191q0 -114 -65 -191q-69 -81 -186 -81t-186 81q-65 75 -65 191q0 117 65 191q69 82 186 82q116 0 186 -82zM168 406q-44 -56 -44 -148q0 -90 44 -146q47 -59 125 -59q77 0 125 59q44 58 44 146
q0 90 -44 148q-48 58 -125 58q-79 0 -125 -58z" />
    <glyph glyph-name="uni01D4" unicode="&#x1d4;" horiz-adv-x="560" 
d="M138 716h55l87 -89l87 89h55l-108 -127h-68zM62 517h80v-316q0 -75 31 -110q32 -37 102 -37q50 0 92 40q42 42 51 108v315h80v-517h-80v80q-64 -94 -168 -94q-188 0 -188 211v320z" />
    <glyph glyph-name="uni01D6" unicode="&#x1d6;" horiz-adv-x="560" 
d="M131 814h298v-50h-298v50zM224 668q12 -12 12 -33q0 -18 -12 -32q-13 -12 -33 -12t-32 12q-13 13 -13 32q0 21 13 33q12 13 32 13t33 -13zM402 668q12 -12 12 -33q0 -18 -12 -32q-13 -12 -33 -12t-32 12q-12 14 -12 32q0 21 12 33q12 13 32 13t33 -13zM62 517h80v-316
q0 -75 31 -110q32 -37 102 -37q50 0 92 40q42 42 51 108v315h80v-517h-80v80q-64 -94 -168 -94q-188 0 -188 211v320z" />
    <glyph glyph-name="uni01D8" unicode="&#x1d8;" horiz-adv-x="560" 
d="M339 868h91l-137 -146h-55zM224 668q12 -12 12 -33q0 -18 -12 -32q-13 -12 -33 -12t-32 12q-13 13 -13 32q0 21 13 33q12 13 32 13t33 -13zM402 668q12 -12 12 -33q0 -18 -12 -32q-13 -12 -33 -12t-32 12q-12 14 -12 32q0 21 12 33q12 13 32 13t33 -13zM62 517h80v-316
q0 -75 31 -110q32 -37 102 -37q50 0 92 40q42 42 51 108v315h80v-517h-80v80q-64 -94 -168 -94q-188 0 -188 211v320z" />
    <glyph glyph-name="uni01DA" unicode="&#x1da;" horiz-adv-x="560" 
d="M138 861h54l88 -89l87 89h54l-107 -127h-68zM224 668q12 -12 12 -33q0 -18 -12 -32q-13 -12 -33 -12t-32 12q-13 13 -13 32q0 21 13 33q12 13 32 13t33 -13zM402 668q12 -12 12 -33q0 -18 -12 -32q-13 -12 -33 -12t-32 12q-12 14 -12 32q0 21 12 33q12 13 32 13t33 -13z
M62 517h80v-316q0 -75 31 -110q32 -37 102 -37q50 0 92 40q42 42 51 108v315h80v-517h-80v80q-64 -94 -168 -94q-188 0 -188 211v320z" />
    <glyph glyph-name="uni01DC" unicode="&#x1dc;" horiz-adv-x="560" 
d="M130 868h91l101 -146h-55zM224 668q12 -12 12 -33q0 -18 -12 -32q-13 -12 -33 -12t-32 12q-13 13 -13 32q0 21 13 33q12 13 32 13t33 -13zM402 668q12 -12 12 -33q0 -18 -12 -32q-13 -12 -33 -12t-32 12q-12 14 -12 32q0 21 12 33q12 13 32 13t33 -13zM62 517h80v-316
q0 -75 31 -110q32 -37 102 -37q50 0 92 40q42 42 51 108v315h80v-517h-80v80q-64 -94 -168 -94q-188 0 -188 211v320z" />
    <glyph glyph-name="uni01F9" unicode="&#x1f9;" horiz-adv-x="559" 
d="M166 722h91l101 -146h-55zM497 318v-318h-80v312q0 151 -136 151q-54 0 -93 -39q-41 -41 -46 -112v-312h-80v517h80v-76q27 44 69 66q42 24 93 24q193 0 193 -213z" />
    <glyph glyph-name="uni0251" unicode="&#x251;" horiz-adv-x="614" 
d="M450 427h3l13 90h61v-410q0 -56 35 -56q6 0 33 5l7 -58q-34 -12 -71 -12q-35 0 -56 26q-22 25 -23 63v20h-2q-54 -109 -173 -109q-115 0 -178 83q-57 75 -57 187q0 121 61 195q61 80 175 80q116 0 172 -104zM163 402q-39 -54 -39 -146q0 -91 39 -145q42 -59 126 -59
q78 0 120 59q38 58 38 147q0 91 -40 146q-42 61 -119 61q-83 0 -125 -63z" />
    <glyph glyph-name="uni0261" unicode="&#x261;" horiz-adv-x="591" 
d="M449 428v89h80v-481q0 -248 -236 -248q-106 0 -160 42q-55 42 -69 126h80q9 -53 44 -77q35 -26 105 -26q156 0 156 172v91q-57 -104 -174 -104q-108 0 -171 74q-62 71 -62 184q0 114 62 185q63 76 171 76q117 0 174 -103zM166 409q-42 -51 -42 -139q0 -83 37 -133
q43 -58 125 -58q77 0 122 54q42 53 42 137q0 88 -42 139q-44 56 -121 56q-78 0 -121 -56z" />
    <glyph glyph-name="uni02CA" unicode="&#x2ca;" horiz-adv-x="500" 
d="M255 901h91l-137 -146h-55z" />
    <glyph glyph-name="uni02CB" unicode="&#x2cb;" horiz-adv-x="500" 
d="M154 901h91l101 -146h-55z" />
    <glyph glyph-name="Alpha" unicode="&#x391;" horiz-adv-x="657" 
d="M281 714h95l281 -714h-89l-76 200h-328l-76 -200h-88zM190 269h276l-135 357h-4z" />
    <glyph glyph-name="Beta" unicode="&#x392;" horiz-adv-x="677" 
d="M72 714h319q100 0 158 -48q57 -48 57 -132q0 -60 -32 -104q-33 -39 -87 -57q69 -12 109 -58t40 -116q0 -105 -74 -156q-64 -43 -173 -43h-317v714zM154 645v-243h217q74 0 114 31q40 32 40 93q0 60 -39 90q-38 29 -114 29h-218zM154 334v-265h228q72 0 119 28
q53 33 53 103q0 68 -46 102q-42 32 -126 32h-228z" />
    <glyph glyph-name="Gamma" unicode="&#x393;" horiz-adv-x="588" 
d="M72 714h494v-71h-413v-643h-81v714z" />
    <glyph glyph-name="uni0394" unicode="&#x394;" horiz-adv-x="667" 
d="M288 714h91l277 -714h-644zM334 610l-207 -537h414z" />
    <glyph glyph-name="Epsilon" unicode="&#x395;" horiz-adv-x="637" 
d="M72 714h506v-71h-424v-239h400v-71h-400v-262h441v-71h-523v714z" />
    <glyph glyph-name="Zeta" unicode="&#x396;" horiz-adv-x="624" 
d="M55 714h520v-68l-444 -575h468v-71h-574v67l445 576h-415v71z" />
    <glyph glyph-name="Eta" unicode="&#x397;" horiz-adv-x="720" 
d="M72 714h82v-310h413v310h82v-714h-82v333h-413v-333h-82v714z" />
    <glyph glyph-name="Theta" unicode="&#x398;" horiz-adv-x="767" 
d="M637 621q88 -103 88 -265q0 -160 -88 -263q-93 -107 -254 -107q-160 0 -253 107q-88 101 -88 263q0 163 88 264q93 108 254 108t253 -107zM190 570q-66 -81 -66 -214q0 -132 66 -213q69 -84 193 -84q123 0 193 82q67 82 67 215q0 135 -67 217q-69 82 -192 82
q-124 0 -194 -85zM233 398h302v-74h-302v74z" />
    <glyph glyph-name="Iota" unicode="&#x399;" horiz-adv-x="237" 
d="M78 714h81v-714h-81v714z" />
    <glyph glyph-name="Kappa" unicode="&#x39a;" horiz-adv-x="690" 
d="M72 714h82v-371l384 371h107l-323 -306l368 -408h-110l-315 355l-111 -105v-250h-82v714z" />
    <glyph glyph-name="Lambda" unicode="&#x39b;" horiz-adv-x="639" 
d="M271 714h97l266 -714h-87l-227 621h-1l-227 -621h-87z" />
    <glyph glyph-name="Mu" unicode="&#x39c;" horiz-adv-x="882" 
d="M72 714h102l266 -609h3l265 609h102v-714h-82v568h-3l-247 -568h-74l-247 568h-3v-568h-82v714z" />
    <glyph glyph-name="Nu" unicode="&#x39d;" horiz-adv-x="719" 
d="M72 714h86l404 -581h3v581h82v-714h-84l-406 587h-3v-587h-82v714z" />
    <glyph glyph-name="Xi" unicode="&#x39e;" horiz-adv-x="630" 
d="M61 714h508v-71h-508v71zM110 396h410v-71h-410v71zM52 71h526v-71h-526v71z" />
    <glyph glyph-name="Omicron" unicode="&#x39f;" horiz-adv-x="767" 
d="M637 621q88 -103 88 -265q0 -160 -88 -263q-93 -107 -254 -107q-160 0 -253 107q-88 101 -88 263q0 163 88 264q93 108 254 108t253 -107zM190 570q-66 -81 -66 -214q0 -132 66 -213q69 -84 193 -84q123 0 193 82q67 82 67 215q0 135 -67 217q-69 82 -192 82
q-124 0 -194 -85z" />
    <glyph glyph-name="Pi" unicode="&#x3a0;" horiz-adv-x="711" 
d="M72 714h567v-714h-82v643h-403v-643h-82v714z" />
    <glyph glyph-name="Rho" unicode="&#x3a1;" horiz-adv-x="642" 
d="M72 714h292q246 0 246 -210q0 -212 -247 -212h-209v-292h-82v714zM154 643v-280h205q85 0 128 35q41 35 41 106q0 73 -42 104q-41 35 -127 35h-205z" />
    <glyph glyph-name="Sigma" unicode="&#x3a3;" horiz-adv-x="601" 
d="M35 714h522v-71h-423l258 -271l-265 -301h447v-71h-547v75l259 296l-251 266v77z" />
    <glyph glyph-name="Tau" unicode="&#x3a4;" horiz-adv-x="619" 
d="M17 714h585v-71h-252v-643h-81v643h-252v71z" />
    <glyph glyph-name="Upsilon" unicode="&#x3a5;" horiz-adv-x="662" 
d="M5 714h99l227 -348l227 348h99l-285 -424v-290h-82v290z" />
    <glyph glyph-name="Phi" unicode="&#x3a6;" horiz-adv-x="781" 
d="M350 714h82v-78q122 -6 195 -50q112 -67 112 -216t-112 -216q-76 -44 -195 -50v-104h-82v104q-122 6 -196 50q-112 66 -112 216t112 216q72 44 196 50v78zM350 563q-89 -6 -143 -38q-83 -49 -83 -155t83 -155q54 -33 143 -39v387zM432 176q86 6 142 39q83 50 83 155
t-83 155q-54 32 -142 38v-387z" />
    <glyph glyph-name="Chi" unicode="&#x3a7;" horiz-adv-x="637" 
d="M24 714h101l193 -278l194 278h101l-246 -343l265 -371h-101l-213 306l-212 -306h-101l263 371z" />
    <glyph glyph-name="Psi" unicode="&#x3a8;" horiz-adv-x="783" 
d="M52 714h82v-220q0 -118 67 -169q50 -37 150 -45v434h81v-434q100 6 151 45q67 52 67 169v220h81v-221q0 -268 -299 -285v-208h-81v208q-299 18 -299 285v221z" />
    <glyph glyph-name="alpha" unicode="&#x3b1;" horiz-adv-x="614" 
d="M450 427h3l13 90h61v-410q0 -56 35 -56q6 0 33 5l7 -58q-34 -12 -71 -12q-35 0 -56 26q-22 25 -23 63v20h-2q-54 -109 -173 -109q-115 0 -178 83q-57 75 -57 187q0 121 61 195q61 80 175 80q116 0 172 -104zM163 402q-39 -54 -39 -146q0 -91 39 -145q42 -59 126 -59
q78 0 120 59q38 58 38 147q0 91 -40 146q-42 61 -119 61q-83 0 -125 -63z" />
    <glyph glyph-name="beta" unicode="&#x3b2;" horiz-adv-x="580" 
d="M434 679q55 -49 55 -119q0 -112 -100 -148v-2q72 -18 110 -70q40 -52 40 -124q0 -105 -60 -168q-62 -62 -158 -62q-54 0 -99 24q-49 27 -78 77h-2v-285h-80v666q0 124 57 191q57 69 167 69q92 0 148 -49zM179 614q-37 -47 -37 -144v-227q0 -87 44 -140q42 -51 111 -51
q77 0 119 44q40 45 40 118q0 71 -38 111q-42 43 -127 43h-40v59h39q57 0 88 31q28 33 28 83q0 55 -30 86q-33 34 -96 34q-67 0 -101 -47z" />
    <glyph glyph-name="gamma" unicode="&#x3b3;" horiz-adv-x="543" 
d="M12 517h37q54 0 85 -27q28 -23 49 -83l108 -309l154 419h86l-201 -518v-197h-80v194l-143 392q-13 36 -28 49q-16 12 -50 12h-17v68z" />
    <glyph glyph-name="delta" unicode="&#x3b4;" horiz-adv-x="586" 
d="M116 714h366v-67h-246l160 -127q79 -62 108 -109q40 -65 40 -158q0 -108 -61 -183q-69 -84 -189 -84q-119 0 -188 81q-64 74 -64 187q0 114 71 188q66 72 156 72q15 0 26 -4l-179 142v62zM172 399q-48 -55 -48 -146q0 -84 42 -140q47 -60 128 -60t128 61q41 55 41 139
q0 90 -42 144q-46 57 -126 57q-75 0 -123 -55z" />
    <glyph glyph-name="epsilon" unicode="&#x3b5;" horiz-adv-x="525" 
d="M416 482q53 -44 62 -112h-82q-9 40 -34 65q-35 34 -98 34q-62 0 -91 -23q-32 -20 -32 -64q0 -36 33 -60q29 -21 76 -21h48v-60h-44q-63 0 -95 -22q-35 -22 -35 -67q0 -46 34 -74q36 -30 102 -30q62 0 95 27q34 27 46 87h82q-10 -83 -68 -130q-60 -46 -154 -46
q-101 0 -162 47q-57 45 -57 115q0 97 105 127q-87 38 -87 114q0 63 53 101q54 41 151 41q96 0 152 -49z" />
    <glyph glyph-name="zeta" unicode="&#x3b6;" horiz-adv-x="468" 
d="M77 714h380v-66q-136 -53 -232 -178q-101 -128 -101 -267q0 -81 40 -115q27 -22 105 -39q96 -19 132 -44q49 -35 49 -112q0 -40 -18 -91h-81q20 45 20 83q0 43 -30 61q-30 20 -112 33q-94 16 -137 59q-50 50 -50 158q0 138 88 263q80 113 206 188h-259v67z" />
    <glyph glyph-name="eta" unicode="&#x3b7;" horiz-adv-x="559" 
d="M497 318v-516h-80v510q0 151 -136 151q-54 0 -93 -39q-41 -41 -46 -112v-312h-80v517h80v-76q27 44 69 66q42 24 93 24q193 0 193 -213z" />
    <glyph glyph-name="theta" unicode="&#x3b8;" horiz-adv-x="542" 
d="M454 609q46 -95 46 -252q0 -154 -46 -252q-57 -119 -183 -119q-121 0 -180 116q-49 95 -49 255q0 161 49 256q58 115 180 115q126 0 183 -119zM152 559q-24 -63 -27 -162h293q-5 100 -28 162q-37 102 -119 102q-81 0 -119 -102zM124 330q3 -108 28 -175q38 -102 119 -102
t119 103q26 70 29 174h-295z" />
    <glyph glyph-name="iota" unicode="&#x3b9;" horiz-adv-x="287" 
d="M62 517h80v-395q0 -68 49 -68q30 0 65 10l9 -61q-49 -17 -91 -17q-112 0 -112 137v394z" />
    <glyph glyph-name="kappa" unicode="&#x3ba;" horiz-adv-x="539" 
d="M62 517h80v-249l261 249h106l-220 -207l243 -310h-106l-194 255l-90 -84v-171h-80v517z" />
    <glyph glyph-name="lambda" unicode="&#x3bb;" horiz-adv-x="572" 
d="M243 692q28 -27 56 -105l153 -458q26 -76 61 -76q9 0 37 7l10 -64q-43 -10 -66 -10q-49 0 -77 31q-23 26 -43 87l-98 299l-176 -403h-88l231 506l-16 48q-19 58 -39 82q-22 25 -53 25q-21 0 -51 -6l-12 64q38 9 75 9q62 0 96 -36z" />
    <glyph glyph-name="nu" unicode="&#x3bd;" horiz-adv-x="508" 
d="M12 517h86l143 -433q56 57 101 172q48 126 57 261h82q-9 -155 -72 -305q-59 -139 -138 -212h-80z" />
    <glyph glyph-name="xi" unicode="&#x3be;" horiz-adv-x="474" 
d="M58 714h373v-62h-34q-88 0 -157 -42q-76 -43 -76 -110q0 -44 41 -67q45 -30 139 -30h75v-66h-86q-84 0 -144 -48q-65 -47 -65 -120q0 -57 45 -87q31 -20 103 -34q97 -21 131 -40q59 -33 59 -110q0 -45 -18 -96h-79q20 55 20 87q0 42 -46 62q-27 12 -114 27
q-90 18 -131 56q-52 48 -52 133q0 63 44 119q44 57 109 83q-56 18 -84 53q-28 31 -28 72q0 51 39 91q34 38 93 62h-157v67z" />
    <glyph glyph-name="omicron" unicode="&#x3bf;" horiz-adv-x="586" 
d="M478 451q66 -76 66 -193q0 -115 -65 -191q-70 -81 -186 -81t-185 81q-66 75 -66 191q0 117 66 193q68 80 185 80t185 -80zM165 401q-41 -56 -41 -143q0 -86 41 -142q45 -63 128 -63q81 0 129 63q41 58 41 142q0 85 -41 143q-48 63 -129 63q-83 0 -128 -63z" />
    <glyph glyph-name="rho" unicode="&#x3c1;" horiz-adv-x="602" 
d="M495 448q65 -76 65 -191q0 -113 -65 -190q-70 -81 -184 -81q-108 0 -171 107v-291h-78v444q0 127 63 205q65 80 182 80q118 0 188 -83zM180 402q-41 -54 -41 -144q0 -83 42 -140q48 -65 130 -65q80 0 126 63q42 57 42 142q0 86 -42 143q-46 63 -129 63q-84 0 -128 -62z
" />
    <glyph glyph-name="sigma" unicode="&#x3c3;" horiz-adv-x="599" 
d="M587 517v-67h-147q104 -71 104 -199q0 -110 -65 -186q-70 -79 -186 -79q-117 0 -185 77q-66 75 -66 189q0 121 75 193q72 72 186 72h284zM171 394q-47 -53 -47 -143q0 -86 39 -139q44 -59 130 -59q75 0 124 58q46 57 46 140q0 88 -45 143q-46 56 -123 56t-124 -56z" />
    <glyph glyph-name="tau" unicode="&#x3c4;" horiz-adv-x="494" 
d="M12 517h470v-67h-208v-329q0 -65 45 -65q25 0 61 12l11 -67q-49 -15 -93 -15q-104 0 -104 130v334h-182v67z" />
    <glyph glyph-name="upsilon" unicode="&#x3c5;" horiz-adv-x="560" 
d="M62 517h80v-314q0 -75 30 -111q33 -39 109 -39q74 0 107 39q30 36 30 111v314h80v-318q0 -213 -217 -213q-219 0 -219 213v318z" />
    <glyph glyph-name="phi" unicode="&#x3c6;" horiz-adv-x="727" 
d="M324 714h80v-191q116 -6 190 -62q92 -71 92 -201t-92 -202q-75 -57 -190 -63v-193h-80v193q-116 6 -191 64q-91 72 -91 201q0 131 91 200q73 57 191 63v191zM324 457q-90 -6 -142 -52q-58 -51 -58 -145q0 -95 58 -147q50 -44 142 -52v396zM404 61q92 8 142 52
q58 53 58 147q0 93 -58 145q-52 46 -142 52v-396z" />
    <glyph glyph-name="chi" unicode="&#x3c7;" horiz-adv-x="515" 
d="M25 517h90l142 -264l143 264h91l-192 -341l211 -374h-92l-161 300l-160 -300h-92l211 374z" />
    <glyph glyph-name="psi" unicode="&#x3c8;" horiz-adv-x="691" 
d="M307 714h80v-651q76 6 124 51q57 57 57 156q0 125 -52 237l78 24q55 -125 55 -260q0 -131 -76 -204q-68 -65 -186 -71v-194h-80v194q-245 12 -245 245v276h80v-276q0 -89 39 -131q38 -41 126 -47v651z" />
    <glyph glyph-name="omega" unicode="&#x3c9;" horiz-adv-x="742" 
d="M201 505q-77 -124 -77 -263q0 -84 27 -134q31 -55 85 -55q46 0 72 41q23 41 23 108v161h80v-161q0 -68 24 -109q25 -40 71 -40q54 0 85 55q27 50 27 134q0 136 -77 263l73 26q86 -137 86 -290q0 -107 -49 -181q-53 -74 -139 -74q-109 0 -141 107q-32 -107 -141 -107
q-88 0 -139 74q-49 70 -49 181q0 155 86 290z" />
    <glyph glyph-name="uni0401" unicode="&#x401;" horiz-adv-x="637" 
d="M261 858q13 -13 13 -33q0 -17 -13 -32q-12 -12 -32 -12t-32 12q-13 13 -13 32q0 21 13 33q13 13 32 13q17 0 32 -13zM440 858q13 -13 13 -33q0 -17 -13 -32q-12 -12 -32 -12q-21 0 -33 12q-12 14 -12 32q0 21 12 33q13 13 33 13q19 0 32 -13zM72 714h506v-71h-424v-239
h400v-71h-400v-262h441v-71h-523v714z" />
    <glyph glyph-name="uni0410" unicode="&#x410;" horiz-adv-x="657" 
d="M281 714h95l281 -714h-89l-76 200h-328l-76 -200h-88zM190 269h276l-135 357h-4z" />
    <glyph glyph-name="uni0411" unicode="&#x411;" horiz-adv-x="678" 
d="M569 714v-69h-415v-230h243q116 0 179 -57q60 -54 60 -148q0 -210 -248 -210h-316v714h497zM154 346v-277h223q178 0 178 141q0 67 -47 102q-46 34 -134 34h-220z" />
    <glyph glyph-name="uni0412" unicode="&#x412;" horiz-adv-x="677" 
d="M72 714h319q100 0 158 -48q57 -48 57 -132q0 -60 -32 -104q-33 -39 -87 -57q69 -12 109 -58t40 -116q0 -105 -74 -156q-64 -43 -173 -43h-317v714zM154 645v-243h217q74 0 114 31q40 32 40 93q0 60 -39 90q-38 29 -114 29h-218zM154 334v-265h228q72 0 119 28
q53 33 53 103q0 68 -46 102q-42 32 -126 32h-228z" />
    <glyph glyph-name="uni0413" unicode="&#x413;" horiz-adv-x="583" 
d="M72 714h489v-71h-407v-643h-82v714z" />
    <glyph glyph-name="uni0414" unicode="&#x414;" horiz-adv-x="704" 
d="M593 714v-642h89v-212h-82v141h-496v-141h-82v212h76l104 642h391zM274 643l-93 -571h330v571h-237z" />
    <glyph glyph-name="uni0415" unicode="&#x415;" horiz-adv-x="637" 
d="M72 714h506v-71h-424v-239h400v-71h-400v-262h441v-71h-523v714z" />
    <glyph glyph-name="uni0416" unicode="&#x416;" horiz-adv-x="928" 
d="M163 714q23 -158 97 -240q62 -71 165 -83v323h80v-323q99 12 164 82q72 83 96 241h83q-28 -193 -123 -294q-24 -24 -51 -45l232 -375h-99l-206 338q-47 -16 -96 -20v-318h-80v318q-51 4 -98 20l-206 -338h-99l232 376q-27 19 -51 44q-96 101 -123 294h83z" />
    <glyph glyph-name="uni0417" unicode="&#x417;" horiz-adv-x="597" 
d="M485 678q65 -51 65 -145q0 -51 -27 -92q-31 -44 -90 -64q132 -42 132 -171q0 -107 -71 -164q-73 -56 -192 -56t-183 55q-68 59 -77 184h84q9 -89 50 -127q42 -39 127 -39q83 0 130 35q50 39 50 113q0 78 -65 111q-39 20 -93 20h-67v69h70q66 0 106 38q33 33 33 85
q0 125 -162 125q-79 0 -117 -35q-41 -34 -53 -104h-85q36 212 255 212q115 0 180 -50z" />
    <glyph glyph-name="uni0418" unicode="&#x418;" horiz-adv-x="719" 
d="M72 714h82v-587h3l406 587h84v-714h-82v581h-3l-404 -581h-86v714z" />
    <glyph glyph-name="uni0419" unicode="&#x419;" horiz-adv-x="719" 
d="M262 894q6 -45 29 -65q23 -21 69 -21q44 0 68 21q23 21 30 65h63q-10 -64 -46 -97q-40 -34 -115 -34q-77 0 -116 34q-37 34 -46 97h64zM72 714h82v-587h3l406 587h84v-714h-82v581h-3l-404 -581h-86v714z" />
    <glyph glyph-name="uni041A" unicode="&#x41a;" horiz-adv-x="662" 
d="M72 714h82v-323q154 6 236 81q85 79 110 242h88q-33 -199 -139 -295q-17 -15 -33 -26l224 -393h-95l-198 357q-80 -32 -193 -37v-320h-82v714z" />
    <glyph glyph-name="uni041B" unicode="&#x41b;" horiz-adv-x="714" 
d="M247 714h395v-714h-82v643h-242l-74 -453q-16 -101 -60 -146q-46 -44 -129 -44h-43v79h25q50 0 77 21q37 29 49 100z" />
    <glyph glyph-name="uni041C" unicode="&#x41c;" horiz-adv-x="882" 
d="M72 714h102l266 -609h3l265 609h102v-714h-82v568h-3l-247 -568h-74l-247 568h-3v-568h-82v714z" />
    <glyph glyph-name="uni041D" unicode="&#x41d;" horiz-adv-x="720" 
d="M72 714h82v-310h413v310h82v-714h-82v333h-413v-333h-82v714z" />
    <glyph glyph-name="uni041E" unicode="&#x41e;" horiz-adv-x="767" 
d="M637 621q88 -103 88 -265q0 -160 -88 -263q-93 -107 -254 -107q-160 0 -253 107q-88 101 -88 263q0 163 88 264q93 108 254 108t253 -107zM190 570q-66 -81 -66 -214q0 -132 66 -213q69 -84 193 -84q123 0 193 82q67 82 67 215q0 135 -67 217q-69 82 -192 82
q-124 0 -194 -85z" />
    <glyph glyph-name="uni041F" unicode="&#x41f;" horiz-adv-x="711" 
d="M72 714h567v-714h-82v643h-403v-643h-82v714z" />
    <glyph glyph-name="uni0420" unicode="&#x420;" horiz-adv-x="642" 
d="M72 714h292q246 0 246 -210q0 -212 -247 -212h-209v-292h-82v714zM154 643v-280h205q85 0 128 35q41 35 41 106q0 73 -42 104q-41 35 -127 35h-205z" />
    <glyph glyph-name="uni0421" unicode="&#x421;" horiz-adv-x="728" 
d="M580 665q81 -63 96 -170h-79q-15 77 -76 120q-58 40 -142 40q-124 0 -192 -87q-63 -81 -63 -214q0 -135 62 -212q66 -83 191 -83q85 0 145 45q64 49 85 141h79q-24 -126 -112 -194q-83 -65 -197 -65q-166 0 -255 110q-80 98 -80 258t82 261q89 113 256 113q119 0 200 -63
z" />
    <glyph glyph-name="uni0422" unicode="&#x422;" horiz-adv-x="619" 
d="M17 714h585v-71h-252v-643h-81v643h-252v71z" />
    <glyph glyph-name="uni0423" unicode="&#x423;" horiz-adv-x="621" 
d="M5 714h97l222 -445l197 445h95l-246 -543q-42 -92 -96 -131q-55 -40 -138 -40h-80v79h53q80 0 126 38q22 21 44 57z" />
    <glyph glyph-name="uni0424" unicode="&#x424;" horiz-adv-x="781" 
d="M350 714h82v-78q122 -6 195 -50q112 -67 112 -216t-112 -216q-76 -44 -195 -50v-104h-82v104q-122 6 -196 50q-112 66 -112 216t112 216q72 44 196 50v78zM350 563q-89 -6 -143 -38q-83 -49 -83 -155t83 -155q54 -33 143 -39v387zM432 176q86 6 142 39q83 50 83 155
t-83 155q-54 32 -142 38v-387z" />
    <glyph glyph-name="uni0425" unicode="&#x425;" horiz-adv-x="637" 
d="M24 714h101l193 -278l194 278h101l-246 -343l265 -371h-101l-213 306l-212 -306h-101l263 371z" />
    <glyph glyph-name="uni0426" unicode="&#x426;" horiz-adv-x="726" 
d="M72 714h82v-643h376v643h81v-643h93v-211h-81v140h-551v714z" />
    <glyph glyph-name="uni0427" unicode="&#x427;" horiz-adv-x="669" 
d="M72 714h82v-241q0 -88 31 -123q32 -36 109 -36q109 0 221 124v276h82v-714h-82v357q-25 -25 -59 -51q-91 -65 -183 -65q-102 0 -150 50q-51 54 -51 171v252z" />
    <glyph glyph-name="uni0428" unicode="&#x428;" horiz-adv-x="918" 
d="M72 714h82v-643h264v643h82v-643h264v643h82v-714h-774v714z" />
    <glyph glyph-name="uni0429" unicode="&#x429;" horiz-adv-x="960" 
d="M72 714h82v-643h264v643h82v-643h264v643h82v-643h92v-211h-81v140h-785v714z" />
    <glyph glyph-name="uni042A" unicode="&#x42a;" horiz-adv-x="806" 
d="M22 714h266v-299h237q116 0 179 -57q60 -54 60 -148q0 -210 -248 -210h-309v642h-185v72zM288 346v-277h218q176 0 176 141q0 67 -46 102q-46 34 -134 34h-214z" />
    <glyph glyph-name="uni042B" unicode="&#x42b;" horiz-adv-x="893" 
d="M740 714h81v-714h-81v714zM72 714h82v-299h200q116 0 179 -57q60 -54 60 -148q0 -210 -248 -210h-273v714zM154 346v-277h179q178 0 178 141q0 67 -47 102q-44 34 -134 34h-176z" />
    <glyph glyph-name="uni042C" unicode="&#x42c;" horiz-adv-x="678" 
d="M72 714h82v-299h243q116 0 179 -57q60 -54 60 -148q0 -210 -248 -210h-316v714zM154 346v-277h223q178 0 178 141q0 67 -47 102q-46 34 -134 34h-220z" />
    <glyph glyph-name="uni042D" unicode="&#x42d;" horiz-adv-x="721" 
d="M599 616q80 -100 80 -259q0 -158 -79 -260q-88 -111 -252 -111q-118 0 -195 57t-101 163h81q18 -71 76 -109q56 -38 139 -38q122 0 188 83q55 70 61 185h-405v72h404q-9 101 -57 167q-65 89 -191 89q-82 0 -136 -36q-58 -37 -76 -106h-80q18 99 94 156q77 59 198 59
q161 0 251 -112z" />
    <glyph glyph-name="uni042E" unicode="&#x42e;" horiz-adv-x="956" 
d="M72 714h82v-315h149q9 139 77 223q82 106 228 106t228 -105q78 -99 78 -266q0 -165 -78 -266q-82 -105 -228 -105t-227 105q-72 91 -78 236h-149v-327h-82v714zM442 574q-59 -80 -59 -217t59 -215q60 -83 166 -83t166 83q59 80 59 215t-59 217q-60 81 -166 81
q-107 0 -166 -81z" />
    <glyph glyph-name="uni042F" unicode="&#x42f;" horiz-adv-x="661" 
d="M589 714v-714h-81v299h-218l-176 -299h-92l184 312q-39 13 -63 29q-81 54 -81 167q0 206 271 206h256zM337 643q-97 0 -143 -31q-50 -32 -50 -104q0 -137 179 -137h185v272h-171z" />
    <glyph glyph-name="uni0430" unicode="&#x430;" horiz-adv-x="559" 
d="M451 473q46 -52 46 -141v-332h-75v87q-31 -43 -80 -70q-59 -31 -128 -31q-78 0 -124 40q-48 41 -48 109q0 99 79 144q64 38 172 38l124 1v17q0 130 -135 130q-63 0 -98 -26q-39 -27 -48 -80h-79q12 89 76 132q56 40 154 40q110 0 164 -58zM417 255l-119 -1
q-174 0 -174 -118q0 -38 28 -62q29 -23 79 -23q78 0 133 48q53 48 53 111v45z" />
    <glyph glyph-name="uni0431" unicode="&#x431;" horiz-adv-x="570" 
d="M511 684q-19 -26 -48 -43q-40 -21 -108 -27q-195 -16 -228 -206q28 41 72 64q44 24 98 24q106 0 170 -71q61 -70 61 -181q0 -108 -64 -183q-67 -75 -173 -75q-111 0 -180 75q-69 77 -69 203q0 171 63 276q70 119 212 136q65 9 90 19q29 11 47 33zM167 375
q-43 -50 -43 -127q0 -87 42 -141q44 -54 119 -54q72 0 118 52q44 55 44 139q0 82 -43 134q-43 51 -118 51t-119 -54z" />
    <glyph glyph-name="uni0432" unicode="&#x432;" horiz-adv-x="540" 
d="M62 517h259q72 0 112 -28q46 -32 46 -99q0 -88 -92 -118q111 -33 111 -124q0 -71 -45 -109q-48 -39 -140 -39h-251v517zM142 453v-155h153q48 0 80 19q32 21 32 60q0 76 -103 76h-162zM142 236v-172h164q68 0 97 26q23 21 23 62q0 84 -130 84h-154z" />
    <glyph glyph-name="uni0433" unicode="&#x433;" horiz-adv-x="446" 
d="M62 517h362v-67h-282v-450h-80v517z" />
    <glyph glyph-name="uni0434" unicode="&#x434;" horiz-adv-x="564" 
d="M474 517v-450h68v-207h-80v140h-360v-140h-80v207h60l80 450h312zM232 450l-68 -383h230v383h-162z" />
    <glyph glyph-name="uni0435" unicode="&#x435;" horiz-adv-x="555" 
d="M463 447q57 -75 60 -211h-408q6 -88 47 -135q42 -48 116 -48q63 0 103 32q32 26 52 81h80q-18 -74 -70 -122q-66 -58 -165 -58q-111 0 -178 73q-68 74 -68 200q0 116 65 191q66 81 178 81q125 0 188 -84zM166 419q-41 -44 -49 -121h323q-15 166 -163 166q-69 0 -111 -45z
" />
    <glyph glyph-name="uni0436" unicode="&#x436;" horiz-adv-x="755" 
d="M145 517q18 -112 70 -167q44 -47 123 -58v225h80v-225q79 11 123 58q50 54 69 167h83q-24 -140 -93 -212q-22 -20 -34 -29l167 -276h-96l-142 241q-37 -11 -77 -15v-226h-80v226q-40 4 -77 15l-143 -241h-96l167 276q-20 15 -34 29q-70 72 -93 212h83z" />
    <glyph glyph-name="uni0437" unicode="&#x437;" horiz-adv-x="525" 
d="M412 490q53 -39 53 -101q0 -76 -88 -114q106 -30 106 -127q0 -70 -57 -115q-61 -47 -162 -47q-97 0 -154 45q-59 47 -68 131h82q9 -60 45 -87q33 -27 96 -27q65 0 102 30q35 29 35 74q0 42 -34 67q-32 22 -93 22h-49v60h51q46 0 77 22q31 23 31 59q0 43 -33 64
q-30 23 -92 23t-97 -34q-26 -24 -35 -65h-81q9 69 62 112q56 49 152 49q95 0 151 -41z" />
    <glyph glyph-name="uni0438" unicode="&#x438;" horiz-adv-x="568" 
d="M62 517h80v-402l278 402h86v-517h-80v402l-278 -402h-86v517z" />
    <glyph glyph-name="uni0439" unicode="&#x439;" horiz-adv-x="568" 
d="M186 717q6 -44 29 -64q25 -22 69 -22t69 22q23 20 30 64h62q-9 -65 -45 -97q-40 -34 -115 -34q-78 0 -115 34q-37 33 -46 97h62zM62 517h80v-402l278 402h86v-517h-80v402l-278 -402h-86v517z" />
    <glyph glyph-name="uni043A" unicode="&#x43a;" horiz-adv-x="525" 
d="M62 517h80v-225q110 5 167 54q62 55 80 171h83q-24 -151 -107 -221l-20 -15l158 -281h-94l-135 247q-57 -18 -132 -21v-226h-80v517z" />
    <glyph glyph-name="uni043B" unicode="&#x43b;" horiz-adv-x="585" 
d="M199 517h324v-517h-79v450h-175l-53 -304q-15 -83 -58 -119q-36 -27 -95 -27h-41v67h30q33 0 53 17q24 21 33 75z" />
    <glyph glyph-name="uni043C" unicode="&#x43c;" horiz-adv-x="732" 
d="M62 517h106l197 -432h2l197 432h106v-517h-80v397h-3l-182 -397h-78l-182 397h-3v-397h-80v517z" />
    <glyph glyph-name="uni043D" unicode="&#x43d;" horiz-adv-x="562" 
d="M62 517h80v-213h278v213h80v-517h-80v238h-278v-238h-80v517z" />
    <glyph glyph-name="uni043E" unicode="&#x43e;" horiz-adv-x="586" 
d="M478 451q66 -76 66 -193q0 -115 -65 -191q-70 -81 -186 -81t-185 81q-66 75 -66 191q0 117 66 193q68 80 185 80t185 -80zM165 401q-41 -56 -41 -143q0 -86 41 -142q45 -63 128 -63q81 0 129 63q41 58 41 142q0 85 -41 143q-48 63 -129 63q-83 0 -128 -63z" />
    <glyph glyph-name="uni043F" unicode="&#x43f;" horiz-adv-x="563" 
d="M62 517h439v-517h-80v450h-279v-450h-80v517z" />
    <glyph glyph-name="uni0440" unicode="&#x440;" horiz-adv-x="586" 
d="M485 448q59 -76 59 -191q0 -113 -58 -189q-64 -82 -173 -82q-111 0 -171 108v-292h-80v715h75v-85q56 99 172 99q112 0 176 -83zM178 404q-39 -54 -39 -142v-10q0 -91 44 -145q43 -55 113 -55q83 0 127 58q39 54 39 147q0 91 -37 146q-43 62 -126 62q-79 0 -121 -61z" />
    <glyph glyph-name="uni0441" unicode="&#x441;" horiz-adv-x="547" 
d="M439 486q59 -46 73 -141h-79q-10 60 -48 90q-38 29 -100 29q-75 0 -119 -57q-42 -55 -42 -150q0 -96 41 -149q41 -55 119 -55q133 0 151 134h80q-18 -101 -77 -151t-154 -50q-116 0 -181 78q-61 73 -61 192t61 193q66 82 182 82q96 0 154 -45z" />
    <glyph glyph-name="uni0442" unicode="&#x442;" horiz-adv-x="494" 
d="M22 517h450v-67h-185v-450h-80v450h-185v67z" />
    <glyph glyph-name="uni0443" unicode="&#x443;" horiz-adv-x="497" 
d="M5 517h87l161 -417l152 417h87l-204 -532q-39 -100 -81 -139q-49 -44 -132 -44h-36v67h24q66 0 106 48q23 29 47 85z" />
    <glyph glyph-name="uni0444" unicode="&#x444;" horiz-adv-x="805" 
d="M363 728h80v-266q44 69 121 69q95 0 148 -77q51 -72 51 -195q0 -121 -51 -196q-54 -77 -148 -77q-78 0 -121 67v-251h-80v252q-45 -68 -122 -68q-95 0 -149 77q-50 74 -50 196q0 123 51 195q52 77 148 77q78 0 122 -68v265zM159 413q-35 -51 -35 -154q0 -101 35 -154
q34 -52 99 -52q43 0 71 30q23 26 34 70v211q-11 44 -34 69q-28 31 -71 31q-66 0 -99 -51zM477 433q-25 -25 -34 -69v-211q9 -44 34 -70q27 -30 70 -30q63 0 100 52q34 56 34 154q0 101 -35 154q-34 51 -99 51q-43 0 -70 -31z" />
    <glyph glyph-name="uni0445" unicode="&#x445;" horiz-adv-x="509" 
d="M27 517h94l134 -184l133 184h94l-183 -243l205 -274h-95l-154 215l-155 -215h-95l205 274z" />
    <glyph glyph-name="uni0446" unicode="&#x446;" horiz-adv-x="581" 
d="M62 517h80v-450h261v450h80v-450h76v-207h-80v140h-417v517z" />
    <glyph glyph-name="uni0447" unicode="&#x447;" horiz-adv-x="532" 
d="M62 517h80v-158q0 -65 22 -93q21 -27 78 -27q52 0 104 35q16 11 44 35v208h80v-517h-80v239l-24 -19q-69 -48 -141 -48q-81 0 -122 43q-41 41 -41 130v172z" />
    <glyph glyph-name="uni0448" unicode="&#x448;" horiz-adv-x="739" 
d="M62 517h80v-450h188v450h80v-450h188v450h79v-517h-615v517z" />
    <glyph glyph-name="uni0449" unicode="&#x449;" horiz-adv-x="772" 
d="M62 517h80v-450h188v450h80v-450h188v450h79v-450h73v-207h-80v140h-608v517z" />
    <glyph glyph-name="uni044A" unicode="&#x44a;" horiz-adv-x="616" 
d="M22 517h211v-189h163q85 0 132 -43q46 -44 46 -119q0 -76 -46 -122q-47 -44 -132 -44h-243v450h-131v67zM233 262v-195h146q54 0 85 26q29 26 29 73q0 48 -30 72t-84 24h-146z" />
    <glyph glyph-name="uni044B" unicode="&#x44b;" horiz-adv-x="705" 
d="M564 517h79v-517h-79v517zM62 517h80v-189h136q85 0 132 -43q47 -44 47 -119q0 -76 -46 -122q-49 -44 -133 -44h-216v517zM142 262v-195h120q54 0 85 26q29 26 29 73q0 48 -30 72t-84 24h-120z" />
    <glyph glyph-name="uni044C" unicode="&#x44c;" horiz-adv-x="529" 
d="M62 517h80v-189h167q85 0 131 -43q47 -44 47 -119q0 -77 -47 -122q-47 -44 -131 -44h-247v517zM142 262v-195h150q53 0 84 25q30 27 30 74q0 48 -30 72t-84 24h-150z" />
    <glyph glyph-name="uni044D" unicode="&#x44d;" horiz-adv-x="552" 
d="M448 450q62 -76 62 -191q0 -117 -62 -193q-66 -80 -180 -80q-91 0 -147 41q-61 43 -79 129h80q24 -103 144 -103q79 0 121 57q33 48 39 120h-259v67h258q-6 67 -38 110q-42 57 -122 57q-116 0 -142 -102h-80q17 87 78 129q53 40 145 40q116 0 182 -81z" />
    <glyph glyph-name="uni044E" unicode="&#x44e;" horiz-adv-x="777" 
d="M62 517h80v-219h125q9 92 60 154q63 79 173 79q108 0 174 -79q62 -76 62 -194q0 -117 -62 -193q-67 -79 -174 -79q-109 0 -174 79q-54 66 -60 166h-124v-231h-80v517zM387 408q-41 -56 -41 -150q0 -92 41 -148q41 -57 113 -57q71 0 113 57q41 58 41 148q0 93 -41 149
q-42 57 -113 57q-72 0 -113 -56z" />
    <glyph glyph-name="uni044F" unicode="&#x44f;" horiz-adv-x="535" 
d="M473 517v-517h-80v214h-137l-119 -214h-95l130 225q-22 6 -42 17q-61 36 -61 122q0 75 51 114q50 39 146 39h207zM274 450q-124 0 -124 -83q0 -45 26 -65q28 -22 90 -22h127v170h-119z" />
    <glyph glyph-name="uni0451" unicode="&#x451;" horiz-adv-x="555" 
d="M221 684q12 -12 12 -33q0 -20 -12 -32q-15 -13 -33 -13q-19 0 -32 13q-12 12 -12 32q0 21 12 33t32 12t33 -12zM399 684q13 -13 13 -33q0 -19 -13 -32t-32 -13q-20 0 -33 13q-12 12 -12 32q0 21 12 33t33 12q20 0 32 -12zM463 447q57 -75 60 -211h-408q6 -88 47 -135
q42 -48 116 -48q63 0 103 32q32 26 52 81h80q-18 -74 -70 -122q-66 -58 -165 -58q-111 0 -178 73q-68 74 -68 200q0 116 65 191q66 81 178 81q125 0 188 -84zM166 419q-41 -44 -49 -121h323q-15 166 -163 166q-69 0 -111 -45z" />
    <glyph glyph-name="uni1E3F" unicode="&#x1e3f;" horiz-adv-x="855" 
d="M544 722l-137 -146h-55l101 146h91zM450 433q30 52 72 74q38 24 91 24q80 0 131 -51q49 -54 49 -141v-339h-80v326q0 68 -29 102q-29 35 -96 35q-53 0 -85 -38q-35 -38 -35 -101v-324h-80v326q0 137 -119 137q-56 0 -91 -44q-36 -42 -36 -104v-315h-80v517h80v-69
q58 83 146 83q119 0 162 -98z" />
    <glyph glyph-name="uni2010" unicode="&#x2010;" horiz-adv-x="333" 
d="M42 394h250v-68h-250v68z" />
    <glyph glyph-name="uni2016" unicode="&#x2016;" horiz-adv-x="500" 
d="M107 775h50v-830h-50v830zM343 775h50v-830h-50v830z" />
    <glyph glyph-name="twodotenleader" unicode="&#x2025;" 
d="M294 102q17 -17 17 -42q0 -26 -17 -43q-19 -17 -44 -17q-24 0 -43 17q-17 17 -17 43t17 42q17 17 43 17q27 0 44 -17zM794 102q17 -17 17 -42q0 -26 -17 -43q-19 -17 -44 -17q-24 0 -43 17q-17 17 -17 43t17 42q17 17 43 17q27 0 44 -17z" />
    <glyph glyph-name="minute" unicode="&#x2032;" horiz-adv-x="265" 
d="M126 817h85l-93 -249h-64z" />
    <glyph glyph-name="second" unicode="&#x2033;" horiz-adv-x="450" 
d="M126 817h85l-93 -249h-64zM311 817h85l-94 -249h-64z" />
    <glyph glyph-name="uni2035" unicode="&#x2035;" horiz-adv-x="500" 
d="M154 901h91l101 -146h-55z" />
    <glyph glyph-name="uni203B" unicode="&#x203b;" 
d="M544 712q17 -17 17 -43q0 -25 -17 -42q-19 -17 -44 -17q-24 0 -43 17q-17 17 -17 42q0 27 17 43q17 17 43 17q27 0 44 -17zM252 658l248 -248l248 248l50 -50l-248 -248l248 -248l-50 -51l-248 248l-248 -248l-50 51l248 248l-248 248zM236 404q17 -17 17 -43
q0 -25 -17 -42q-19 -17 -44 -17t-42 17q-18 18 -18 42q0 27 18 43q16 17 42 17q27 0 44 -17zM851 404q17 -17 17 -43q0 -25 -17 -42q-19 -17 -44 -17q-24 0 -43 17q-17 17 -17 42q0 27 17 43q17 17 43 17q27 0 44 -17zM544 97q17 -17 17 -43q0 -24 -17 -43q-19 -16 -44 -16
q-24 0 -43 17q-17 17 -17 42q0 27 17 43q17 17 43 17q27 0 44 -17z" />
    <glyph glyph-name="uni2103" unicode="&#x2103;" horiz-adv-x="922" 
d="M232 793q37 -37 37 -87t-37 -87q-36 -36 -87 -36t-87 36t-36 87t36 87q36 37 87 37t87 -37zM91 761q-23 -22 -23 -55q0 -32 23 -54q23 -23 54 -23q30 0 55 23q22 24 22 54q0 31 -22 55q-23 22 -55 22t-54 -22zM774 665q81 -63 96 -170h-79q-15 77 -76 120q-58 40 -142 40
q-124 0 -192 -87q-63 -81 -63 -214q0 -135 62 -212q66 -83 191 -83q85 0 145 45q64 49 85 141h79q-24 -126 -112 -194q-83 -65 -197 -65q-166 0 -255 110q-80 98 -80 258t82 261q89 113 256 113q119 0 200 -63z" />
    <glyph glyph-name="uni2105" unicode="&#x2105;" 
d="M672 728h57l-401 -742h-57zM358 678q39 -34 45 -98h-68q-15 80 -85 80q-50 0 -74 -46q-20 -34 -20 -96q0 -61 20 -95q23 -46 73 -46q71 0 86 84h68q-6 -62 -43 -99q-40 -39 -110 -39q-82 0 -128 58q-41 51 -41 137q0 85 40 137q44 59 127 59q68 0 110 -36zM881 333
q38 -52 38 -138q0 -84 -38 -137q-43 -58 -121 -58q-79 0 -122 58q-37 52 -37 137q0 88 37 138q42 58 122 58q79 0 121 -58zM675 195q0 -66 20 -100q21 -41 65 -41q42 0 65 41q19 38 19 100q0 142 -84 142q-85 0 -85 -142z" />
    <glyph glyph-name="uni2109" unicode="&#x2109;" horiz-adv-x="864" 
d="M232 793q37 -37 37 -87t-37 -87q-36 -36 -87 -36t-87 36t-36 87t36 87q36 37 87 37t87 -37zM91 761q-23 -22 -23 -55q0 -32 23 -54q23 -23 54 -23q30 0 55 23q22 24 22 54q0 31 -22 55q-23 22 -55 22t-54 -22zM351 714h471v-71h-389v-240h366v-71h-366v-332h-82v714z" />
    <glyph glyph-name="uni2121" unicode="&#x2121;" 
d="M707 728h68v-343h213v-57h-281v400zM373 728h293v-57h-225v-110h214v-56h-214v-120h234v-57h-302v400zM13 728h328v-57h-130v-343h-68v343h-130v57z" />
    <glyph glyph-name="uni2160" unicode="&#x2160;" 
d="M459 714h82v-714h-82v714z" />
    <glyph glyph-name="uni2161" unicode="&#x2161;" 
d="M328 714h82v-714h-82v714zM591 714h82v-714h-82v714z" />
    <glyph glyph-name="uni2162" unicode="&#x2162;" 
d="M201 714h81v-714h-81v714zM459 714h82v-714h-82v714zM718 714h81v-714h-81v714z" />
    <glyph glyph-name="uni2163" unicode="&#x2163;" 
d="M123 714h82v-714h-82v714zM308 714h90l204 -619h2l203 619h90l-245 -714h-99z" />
    <glyph glyph-name="uni2164" unicode="&#x2164;" 
d="M186 714h90l223 -625h3l223 625h90l-264 -714h-101z" />
    <glyph glyph-name="uni2165" unicode="&#x2165;" 
d="M103 714h90l204 -619h1l204 619h90l-245 -714h-99zM795 714h82v-714h-82v714z" />
    <glyph glyph-name="uni2166" unicode="&#x2166;" 
d="M34 714h90l179 -602h2l179 602h89l-224 -714h-90zM647 714h82v-714h-82v714zM842 714h81v-714h-81v714z" />
    <glyph glyph-name="uni2167" unicode="&#x2167;" 
d="M22 714h86l142 -589h2l142 589h86l-184 -714h-91zM542 714h79v-714h-79v714zM704 714h80v-714h-80v714zM867 714h80v-714h-80v714z" />
    <glyph glyph-name="uni2168" unicode="&#x2168;" 
d="M106 714h88v-714h-88v714zM310 714h100l194 -278l193 278h101l-245 -343l264 -371h-101l-212 305l-213 -305h-101l263 371z" />
    <glyph glyph-name="uni2169" unicode="&#x2169;" 
d="M206 714h101l193 -278l193 278h101l-245 -343l264 -371h-100l-213 306l-213 -306h-100l263 371z" />
    <glyph glyph-name="uni216A" unicode="&#x216a;" 
d="M102 714h101l193 -278l194 278h100l-245 -343l265 -371h-101l-213 306l-212 -306h-101l263 371zM806 714h88v-714h-88v714z" />
    <glyph glyph-name="uni216B" unicode="&#x216b;" 
d="M43 714h101l160 -271l161 271h101l-211 -349l221 -365h-100l-172 287l-170 -287h-101l222 365zM651 714h87v-714h-87v714zM846 714h87v-714h-87v714z" />
    <glyph glyph-name="uni2170" unicode="&#x2170;" 
d="M544 695q17 -15 17 -42q0 -24 -17 -43q-19 -17 -44 -17q-24 0 -43 17q-17 17 -17 43q0 28 17 42q17 17 43 17q27 0 44 -17zM460 517h80v-517h-80v517z" />
    <glyph glyph-name="uni2171" unicode="&#x2171;" 
d="M413 695q17 -15 17 -42q0 -25 -18 -43q-19 -17 -43 -17q-25 0 -42 17q-18 18 -18 43q0 27 18 42q16 17 42 17q27 0 44 -17zM675 695q17 -15 17 -42q0 -24 -17 -43q-19 -17 -44 -17t-42 17q-18 18 -18 43q0 27 18 42q16 17 42 17q27 0 44 -17zM329 517h80v-517h-80v517z
M591 517h80v-517h-80v517z" />
    <glyph glyph-name="uni2172" unicode="&#x2172;" 
d="M301 695q17 -15 17 -42q0 -25 -18 -43q-19 -17 -43 -17t-43 17q-17 17 -17 43q0 28 17 42q17 17 43 17q27 0 44 -17zM544 695q17 -15 17 -42q0 -24 -17 -43q-19 -17 -44 -17q-24 0 -43 17q-17 17 -17 43q0 28 17 42q17 17 43 17q27 0 44 -17zM788 695q17 -15 17 -42
q0 -24 -17 -43q-19 -17 -44 -17q-24 0 -43 17q-18 18 -18 43q0 27 18 42q17 17 43 17q27 0 44 -17zM217 517h80v-517h-80v517zM460 517h80v-517h-80v517zM704 517h80v-517h-80v517z" />
    <glyph glyph-name="uni2173" unicode="&#x2173;" 
d="M258 695q18 -15 18 -42q0 -25 -18 -43q-19 -17 -43 -17q-26 0 -43 17q-18 18 -18 43q0 27 18 42q16 17 43 17q26 0 43 -17zM175 517h80v-517h-80v517zM375 517h87l149 -416l148 416h87l-195 -517h-81z" />
    <glyph glyph-name="uni2174" unicode="&#x2174;" 
d="M264 517h88l148 -417l148 417h88l-195 -517h-82z" />
    <glyph glyph-name="uni2175" unicode="&#x2175;" 
d="M154 517h87l149 -416l148 416h88l-196 -517h-81zM830 695q17 -15 17 -42q0 -25 -18 -43q-19 -17 -43 -17q-25 0 -42 17q-18 18 -18 43q0 27 18 42q16 17 42 17q27 0 44 -17zM746 517h80v-517h-80v517z" />
    <glyph glyph-name="uni2176" unicode="&#x2176;" 
d="M702 695q17 -15 17 -42q0 -24 -17 -43q-19 -17 -43 -17q-26 0 -43 17q-18 18 -18 43q0 27 18 42q16 17 43 17q26 0 43 -17zM906 695q17 -15 17 -42q0 -25 -18 -43q-19 -17 -42 -17q-26 0 -43 17q-18 18 -18 43q0 27 18 42q16 17 43 17q26 0 43 -17zM51 517h88l148 -416
l149 416h87l-195 -517h-81zM619 517h79v-517h-79v517zM823 517h79v-517h-79v517z" />
    <glyph glyph-name="uni2177" unicode="&#x2177;" 
d="M596 695q17 -15 17 -42q0 -24 -17 -43q-19 -17 -42 -17t-42 17q-16 17 -16 43q0 27 16 42q17 17 42 17t42 -17zM763 695q17 -15 17 -42q0 -24 -17 -43q-19 -17 -42 -17q-26 0 -41 17q-18 18 -18 43q0 27 18 42q14 17 41 17q25 0 42 -17zM929 695q17 -15 17 -42
q0 -24 -17 -43q-19 -17 -42 -17q-25 0 -42 17t-17 43q0 28 17 42q16 17 42 17q25 0 42 -17zM38 517h85l123 -410l124 410h85l-171 -517h-77zM516 517h77v-517h-77v517zM683 517h76v-517h-76v517zM849 517h76v-517h-76v517z" />
    <glyph glyph-name="uni2178" unicode="&#x2178;" 
d="M257 695q17 -15 17 -42q0 -24 -17 -43q-19 -17 -44 -17t-42 17q-18 18 -18 43q0 27 18 42q16 17 42 17q27 0 44 -17zM173 517h80v-517h-80v517zM377 517h94l134 -184l133 184h94l-183 -243l205 -274h-95l-154 215l-155 -215h-95l205 274z" />
    <glyph glyph-name="uni2179" unicode="&#x2179;" 
d="M273 517h94l134 -184l132 184h95l-183 -243l205 -274h-95l-154 215l-155 -215h-95l205 274z" />
    <glyph glyph-name="arrowleft" unicode="&#x2190;" 
d="M255 576l34 -38l-141 -146h830v-64h-830l141 -146l-34 -38l-233 216z" />
    <glyph glyph-name="arrowup" unicode="&#x2191;" 
d="M500 838l216 -233l-38 -34l-146 141v-830h-64v830l-146 -141l-38 34z" />
    <glyph glyph-name="arrowright" unicode="&#x2192;" 
d="M745 576l233 -216l-233 -216l-34 38l141 146h-830v64h830l-141 146z" />
    <glyph glyph-name="arrowdown" unicode="&#x2193;" 
d="M468 838h64v-830l146 141l38 -34l-216 -233l-216 233l38 34l146 -141v830z" />
    <glyph glyph-name="uni2196" unicode="&#x2196;" 
d="M121 739l317 -12l-3 -51l-203 -3l647 -647l-45 -45l-647 647l-3 -203l-51 -3z" />
    <glyph glyph-name="uni2197" unicode="&#x2197;" 
d="M879 739l-12 -317l-51 3l-3 203l-647 -647l-45 45l647 647l-203 3l-3 51z" />
    <glyph glyph-name="uni2198" unicode="&#x2198;" 
d="M166 739l647 -647l3 203l51 3l12 -317l-317 12l3 51l203 3l-647 647z" />
    <glyph glyph-name="uni2199" unicode="&#x2199;" 
d="M834 739l45 -45l-647 -647l203 -3l3 -51l-317 -12l12 317l51 -3l3 -203z" />
    <glyph glyph-name="element" unicode="&#x2208;" horiz-adv-x="788" 
d="M706 630v-67h-330q-97 0 -151 -38q-65 -44 -74 -134h555v-67h-555q9 -89 74 -134q56 -38 151 -38h330v-68h-329q-126 0 -201 57q-94 70 -94 217t94 216q74 56 201 56h329z" />
    <glyph glyph-name="proportional" unicode="&#x221d;" horiz-adv-x="955" 
d="M361 505q47 -29 131 -103q79 73 130 104q71 45 125 45q104 0 156 -82l-54 -40q-33 55 -102 55q-41 0 -98 -39q-47 -31 -107 -88q65 -58 108 -87q58 -40 97 -40q65 0 102 57l54 -42q-53 -82 -156 -82q-51 0 -125 46q-57 35 -130 102q-79 -69 -131 -103q-72 -45 -124 -45
q-83 0 -134 54q-51 56 -51 140q0 86 51 140t134 54q53 0 124 -46zM151 448q-32 -33 -32 -91q0 -56 32 -91q33 -36 86 -36q37 0 99 40q35 24 106 86q-67 61 -107 88q-59 40 -98 40q-53 0 -86 -36z" />
    <glyph glyph-name="orthogonal" unicode="&#x221f;" horiz-adv-x="808" 
d="M102 680h67v-577h557v-67h-624v644z" />
    <glyph glyph-name="angle" unicode="&#x2220;" horiz-adv-x="789" 
d="M570 680h84l-439 -577h492v-67h-625z" />
    <glyph glyph-name="uni2223" unicode="&#x2223;" horiz-adv-x="333" 
d="M133 860h68v-1000h-68v1000z" />
    <glyph glyph-name="uni2225" unicode="&#x2225;" horiz-adv-x="672" 
d="M539 775h51l-222 -830h-51zM304 775h51l-222 -830h-51z" />
    <glyph glyph-name="logicaland" unicode="&#x2227;" horiz-adv-x="743" 
d="M338 680h67l276 -644h-74l-235 550l-236 -550h-74z" />
    <glyph glyph-name="logicalor" unicode="&#x2228;" horiz-adv-x="743" 
d="M62 680h74l236 -550l235 550h74l-276 -644h-67z" />
    <glyph glyph-name="intersection" unicode="&#x2229;" horiz-adv-x="699" 
d="M562 585q56 -76 56 -206v-343h-68v345q0 232 -200 232q-201 0 -201 -232v-345h-67v343q0 132 55 206q67 95 213 95q144 0 212 -95z" />
    <glyph glyph-name="union" unicode="&#x222a;" horiz-adv-x="699" 
d="M82 680h67v-346q0 -232 201 -232q200 0 200 232v346h68v-344q0 -129 -56 -206q-70 -94 -212 -94q-145 0 -213 94q-55 76 -55 206v344z" />
    <glyph glyph-name="uni222E" unicode="&#x222e;" horiz-adv-x="534" 
d="M205 623q-1 54 9 96q22 100 105 100q107 0 122 -139h-69q-9 76 -57 76q-51 0 -51 -94q0 -45 10 -116q72 -3 124 -55q54 -54 54 -130t-54 -130q-28 -28 -67 -44q9 -67 9 -105q0 -71 -25 -121q-33 -60 -99 -60q-107 0 -122 140h69q8 -76 57 -76q52 0 52 94q0 34 -10 117
q-74 3 -126 55q-54 54 -54 130t54 130q35 35 74 46q-5 50 -5 86zM303 360l20 -117q19 9 36 26q39 39 39 92q0 55 -39 92q-34 35 -78 38q13 -80 22 -131zM243 305q-19 113 -27 177q-23 -9 -41 -29q-39 -37 -39 -92q0 -53 39 -92q33 -35 80 -38z" />
    <glyph glyph-name="therefore" unicode="&#x2234;" horiz-adv-x="878" 
d="M483 697q17 -15 17 -42q0 -24 -17 -43q-19 -17 -44 -17t-42 17q-18 18 -18 43q0 27 18 42q16 17 42 17q27 0 44 -17zM779 102q17 -17 17 -42q0 -26 -17 -43q-19 -17 -43 -17q-26 0 -43 17q-18 18 -18 43q0 26 18 42q16 17 43 17q26 0 43 -17zM186 102q17 -17 17 -42
q0 -26 -18 -43q-19 -17 -43 -17t-43 17q-17 17 -17 43t17 42q17 17 43 17q27 0 44 -17z" />
    <glyph glyph-name="uni2235" unicode="&#x2235;" horiz-adv-x="878" 
d="M186 697q17 -15 17 -42q0 -25 -18 -43q-19 -17 -43 -17t-43 17q-17 17 -17 43q0 28 17 42q17 17 43 17q27 0 44 -17zM779 697q17 -15 17 -42q0 -24 -17 -43q-19 -17 -43 -17q-26 0 -43 17q-18 18 -18 43q0 27 18 42q16 17 43 17q26 0 43 -17zM483 102q17 -17 17 -42
q0 -26 -17 -43q-19 -17 -44 -17t-42 17q-18 18 -18 43q0 26 18 42q16 17 42 17q27 0 44 -17z" />
    <glyph glyph-name="uni2236" unicode="&#x2236;" horiz-adv-x="500" 
d="M294 697q17 -15 17 -42q0 -24 -17 -43q-19 -17 -44 -17q-26 0 -43 17t-17 43q0 28 17 42q16 17 43 17t44 -17zM294 102q17 -17 17 -42q0 -26 -17 -43q-19 -17 -44 -17q-26 0 -43 17t-17 43t17 42q16 17 43 17t44 -17z" />
    <glyph glyph-name="uni2237" unicode="&#x2237;" horiz-adv-x="785" 
d="M186 697q17 -15 17 -42q0 -25 -18 -43q-19 -17 -43 -17t-43 17q-17 17 -17 43q0 28 17 42q17 17 43 17q27 0 44 -17zM186 102q17 -17 17 -42q0 -26 -18 -43q-19 -17 -43 -17t-43 17q-17 17 -17 43t17 42q17 17 43 17q27 0 44 -17zM686 697q17 -15 17 -42q0 -25 -18 -43
q-19 -17 -43 -17t-43 17q-17 17 -17 43q0 28 17 42q17 17 43 17q27 0 44 -17zM686 102q17 -17 17 -42q0 -26 -18 -43q-19 -17 -43 -17t-43 17q-17 17 -17 43t17 42q17 17 43 17q27 0 44 -17z" />
    <glyph glyph-name="uni223D" unicode="&#x223d;" horiz-adv-x="984" 
d="M379 497l-41 -53q-56 40 -101 40q-53 0 -86 -36q-32 -33 -32 -91q0 -56 32 -91q33 -36 86 -36q57 0 157 83q116 104 174 155q102 83 179 83q82 0 134 -54q51 -54 51 -140q0 -84 -51 -140q-52 -54 -134 -54q-68 0 -143 54l41 53q58 -40 102 -40q52 0 85 36t33 91
q0 57 -33 91q-33 36 -85 36q-60 0 -156 -83q-93 -81 -176 -155q-106 -83 -178 -83q-83 0 -134 54q-51 56 -51 140q0 86 51 140t134 54q72 0 142 -54z" />
    <glyph glyph-name="uni224C" unicode="&#x224c;" horiz-adv-x="788" 
d="M335 630l-36 -48q-37 25 -76 25q-37 0 -57 -26q-22 -23 -22 -62q0 -40 21 -64q23 -24 62 -24q25 0 62 28q27 21 64 61q38 40 100 98q59 50 107 50q63 0 105 -42q41 -43 41 -107q0 -63 -41 -106t-103 -43q-61 0 -110 40l36 47q38 -26 76 -26q33 0 58 25q22 28 22 63
q0 40 -22 64q-24 24 -62 24q-42 0 -115 -80q-57 -60 -101 -101q-67 -56 -117 -56q-63 0 -104 43q-41 41 -41 106t40 106q39 43 102 43q64 0 111 -38zM82 299h624v-68h-624v68zM82 122h624v-68h-624v68z" />
    <glyph glyph-name="uni2252" unicode="&#x2252;" horiz-adv-x="788" 
d="M82 500h624v-68h-624v68zM82 286h624v-67h-624v67zM217 697q17 -15 17 -42q0 -24 -17 -43q-19 -17 -44 -17q-24 0 -43 17q-18 18 -18 43q0 27 18 42q17 17 43 17q27 0 44 -17zM658 102q17 -17 17 -42q0 -26 -17 -43q-19 -17 -44 -17q-24 0 -43 17q-17 17 -17 43t17 42
q17 17 43 17q27 0 44 -17z" />
    <glyph glyph-name="equivalence" unicode="&#x2261;" horiz-adv-x="788" 
d="M82 607h624v-67h-624v67zM82 392h624v-67h-624v67zM82 178h624v-68h-624v68z" />
    <glyph glyph-name="uni2266" unicode="&#x2266;" horiz-adv-x="788" 
d="M706 705v-70l-502 -134l502 -134v-70l-624 168v72zM82 230h624v-67h-624v67zM82 67h624v-67h-624v67z" />
    <glyph glyph-name="uni2267" unicode="&#x2267;" horiz-adv-x="788" 
d="M82 705l624 -168v-72l-624 -168v70l502 134l-502 134v70zM82 230h624v-67h-624v67zM82 67h624v-67h-624v67z" />
    <glyph glyph-name="uni226E" unicode="&#x226e;" horiz-adv-x="788" 
d="M391 714h67v-157l248 108v-74l-248 -108v-246l248 -108v-74l-248 108v-163h-67v192l-309 134v68l309 134v186zM391 454l-217 -94l217 -94v188z" />
    <glyph glyph-name="uni226F" unicode="&#x226f;" horiz-adv-x="788" 
d="M82 665l248 -108v157h67v-186l309 -134v-68l-309 -134v-192h-67v163l-248 -108v74l248 108v246l-248 108v74zM397 454v-188l217 94z" />
    <glyph glyph-name="circleplus" unicode="&#x2295;" horiz-adv-x="868" 
d="M684 609q102 -102 102 -250q0 -147 -102 -251q-102 -102 -250 -102q-149 0 -250 102q-102 104 -102 251q0 148 102 250t250 102t250 -102zM407 656q-111 -9 -185 -85q-77 -75 -86 -184h271v269zM461 387h269q-10 107 -86 183q-75 77 -183 86v-269zM136 333
q9 -111 86 -186q75 -77 185 -86v272h-271zM461 333v-272q107 9 184 87q76 79 85 185h-269z" />
    <glyph glyph-name="uni2299" unicode="&#x2299;" horiz-adv-x="868" 
d="M684 609q102 -102 102 -250q0 -147 -102 -251q-102 -102 -250 -102q-149 0 -250 102q-102 104 -102 251q0 148 102 250t250 102t250 -102zM222 570q-87 -85 -87 -211q0 -125 87 -212t212 -87q122 0 210 88q88 90 88 211q0 123 -88 211q-87 87 -210 87q-125 0 -212 -87z
M485 410q22 -22 22 -51t-22 -51t-51 -22t-51 22q-22 21 -22 51t22 51q21 22 51 22t51 -22z" />
    <glyph glyph-name="perpendicular" unicode="&#x22a5;" horiz-adv-x="788" 
d="M360 680h68v-577h278v-67h-624v67h278v577z" />
    <glyph glyph-name="uni22BF" unicode="&#x22bf;" horiz-adv-x="770" 
d="M688 676v-640h-626zM621 514l-402 -411h402v411z" />
    <glyph glyph-name="uni2312" unicode="&#x2312;" 
d="M943 42l-36 -42q-192 167 -407 167q-216 0 -407 -167l-36 42q209 180 443 180q233 0 443 -180z" />
    <glyph glyph-name="uni2460" unicode="&#x2460;" 
d="M845 705q143 -143 143 -345q0 -200 -143 -345q-145 -143 -345 -143q-202 0 -345 143t-143 345q0 203 143 345q142 143 345 143q202 0 345 -143zM181 679q-132 -132 -132 -319q0 -185 132 -319q132 -132 319 -132q185 0 318 131q132 132 132 318q0 187 -132 320t-318 133
q-187 0 -319 -132zM558 693v-671h-82v571q-66 -63 -153 -90v81q98 27 170 109h65z" />
    <glyph glyph-name="uni2461" unicode="&#x2461;" 
d="M845 705q143 -143 143 -345q0 -200 -143 -345q-145 -143 -345 -143q-202 0 -345 143t-143 345q0 203 143 345q142 143 345 143q202 0 345 -143zM181 679q-132 -132 -132 -319q0 -185 132 -319q132 -132 319 -132q185 0 318 131q132 132 132 318q0 187 -132 320t-318 133
q-187 0 -319 -132zM662 652q61 -55 61 -142q0 -86 -63 -155q-38 -39 -134 -104q-132 -88 -151 -157h349v-72h-448q3 95 70 171q41 46 145 119q75 52 103 82q49 55 49 117q0 60 -36 93t-100 33q-67 0 -105 -48q-37 -44 -40 -128h-80q2 112 64 177q61 68 163 68q93 0 153 -54z
" />
    <glyph glyph-name="uni2462" unicode="&#x2462;" 
d="M845 705q143 -143 143 -345q0 -200 -143 -345q-145 -143 -345 -143q-202 0 -345 143t-143 345q0 203 143 345q142 143 345 143q202 0 345 -143zM181 679q-132 -132 -132 -319q0 -185 132 -319q132 -132 319 -132q185 0 318 131q132 132 132 318q0 187 -132 320t-318 133
q-187 0 -319 -132zM662 656q59 -50 59 -134q0 -52 -27 -91q-30 -39 -78 -57q54 -16 87 -60q31 -43 31 -99q0 -90 -64 -149q-64 -57 -168 -57q-94 0 -157 49q-73 59 -79 173h79q6 -84 52 -121q39 -33 104 -33q70 0 113 40q40 38 40 96q0 56 -37 91q-40 36 -109 36h-53v62h51
q63 0 100 29q35 30 35 86q0 54 -36 87t-99 33q-66 0 -103 -37q-38 -37 -44 -104h-79q9 97 70 154q59 56 156 56t156 -50z" />
    <glyph glyph-name="uni2463" unicode="&#x2463;" 
d="M845 705q143 -143 143 -345q0 -200 -143 -345q-145 -143 -345 -143q-202 0 -345 143t-143 345q0 203 143 345q142 143 345 143q202 0 345 -143zM181 679q-132 -132 -132 -319q0 -185 132 -319q132 -132 319 -132q185 0 318 131q132 132 132 318q0 187 -132 320t-318 133
q-187 0 -319 -132zM624 693v-453h108v-67h-108v-151h-77v151h-339v75l341 445h75zM545 590l-267 -350h269v350h-2z" />
    <glyph glyph-name="uni2464" unicode="&#x2464;" 
d="M845 705q143 -143 143 -345q0 -200 -143 -345q-145 -143 -345 -143q-202 0 -345 143t-143 345q0 203 143 345q142 143 345 143q202 0 345 -143zM181 679q-132 -132 -132 -319q0 -185 132 -319q132 -132 319 -132q185 0 318 131q132 132 132 318q0 187 -132 320t-318 133
q-187 0 -319 -132zM318 693h382v-72h-317l-22 -219h3q60 66 153 66q95 0 153 -61q60 -61 60 -170q0 -100 -71 -166q-68 -62 -166 -62q-89 0 -149 48q-70 55 -76 148h79q6 -63 49 -97q38 -30 98 -30q67 0 112 45q44 46 44 113q0 78 -39 121q-41 44 -112 44q-99 0 -140 -80
h-77z" />
    <glyph glyph-name="uni2465" unicode="&#x2465;" 
d="M845 705q143 -143 143 -345q0 -200 -143 -345q-145 -143 -345 -143q-202 0 -345 143t-143 345q0 203 143 345q142 143 345 143q202 0 345 -143zM181 679q-132 -132 -132 -319q0 -185 132 -319q132 -132 319 -132q185 0 318 131q132 132 132 318q0 187 -132 320t-318 133
q-187 0 -319 -132zM722 525h-79q-12 54 -37 79q-33 33 -97 33q-80 0 -122 -76q-40 -68 -40 -184v-23h2q27 51 72 78q42 29 100 29q96 0 156 -64q57 -60 57 -158t-64 -165q-63 -65 -162 -65q-122 0 -184 91q-58 85 -58 239q0 163 63 262q66 105 180 105q186 0 213 -181z
M398 350q-43 -43 -43 -113q0 -69 40 -113q43 -46 110 -46q66 0 108 45q40 46 40 116q0 71 -39 113q-40 42 -108 42q-65 0 -108 -44z" />
    <glyph glyph-name="uni2466" unicode="&#x2466;" 
d="M845 705q143 -143 143 -345q0 -200 -143 -345q-145 -143 -345 -143q-202 0 -345 143t-143 345q0 203 143 345q142 143 345 143q202 0 345 -143zM181 679q-132 -132 -132 -319q0 -185 132 -319q132 -132 319 -132q185 0 318 131q132 132 132 318q0 187 -132 320t-318 133
q-187 0 -319 -132zM281 693h438v-66l-241 -605h-87l245 597h-355v74z" />
    <glyph glyph-name="uni2467" unicode="&#x2467;" 
d="M845 705q143 -143 143 -345q0 -200 -143 -345q-145 -143 -345 -143q-202 0 -345 143t-143 345q0 203 143 345q142 143 345 143q202 0 345 -143zM181 679q-132 -132 -132 -319q0 -185 132 -319q132 -132 319 -132q185 0 318 131q132 132 132 318q0 187 -132 320t-318 133
q-187 0 -319 -132zM665 651q54 -49 54 -124q0 -108 -104 -147v-2q55 -15 91 -60q37 -49 37 -111q0 -87 -61 -142q-67 -56 -182 -56q-117 0 -182 56q-61 54 -61 142q0 64 37 111q36 45 91 60v2q-104 39 -104 147q0 75 54 124q59 55 165 55t165 -55zM391 602q-34 -30 -34 -78
q0 -51 30 -81q37 -37 113 -37q74 0 113 37q30 30 30 81q0 47 -34 78q-38 37 -109 37q-72 0 -109 -37zM377 304q-40 -36 -40 -97q0 -58 40 -94q43 -37 123 -37q78 0 123 37q40 37 40 94q0 59 -40 96q-43 40 -123 40q-81 0 -123 -39z" />
    <glyph glyph-name="uni2468" unicode="&#x2468;" 
d="M845 705q143 -143 143 -345q0 -200 -143 -345q-145 -143 -345 -143q-202 0 -345 143t-143 345q0 203 143 345q142 143 345 143q202 0 345 -143zM181 679q-132 -132 -132 -319q0 -185 132 -319q132 -132 319 -132q185 0 318 131q132 132 132 318q0 187 -132 320t-318 133
q-187 0 -319 -132zM676 615q58 -85 58 -239q0 -161 -62 -261q-68 -106 -181 -106q-186 0 -213 181h79q11 -52 37 -79q33 -33 97 -33q78 0 122 76q40 72 40 184v23h-2q-27 -49 -72 -78q-46 -29 -100 -29q-97 0 -156 63q-57 62 -57 159q0 101 64 165q62 65 162 65
q121 0 184 -91zM387 593q-40 -44 -40 -117q0 -70 39 -112q40 -43 108 -43q62 0 108 44q43 46 43 113q0 68 -40 113q-42 46 -110 46t-108 -44z" />
    <glyph glyph-name="uni2469" unicode="&#x2469;" 
d="M845 705q143 -143 143 -345q0 -200 -143 -345q-145 -143 -345 -143q-202 0 -345 143t-143 345q0 203 143 345q142 143 345 143q202 0 345 -143zM181 679q-132 -132 -132 -319q0 -185 132 -319q132 -132 319 -132q185 0 318 131q132 132 132 318q0 187 -132 320t-318 133
q-187 0 -319 -132zM821 358q0 -349 -191 -349t-191 349q0 348 191 348t191 -348zM548 582q-32 -64 -32 -224t32 -224q27 -56 82 -56q53 0 82 55q33 66 33 225t-33 225q-28 54 -82 54q-55 0 -82 -55zM346 693v-671h-73v570q-42 -51 -114 -87v79q75 33 131 109h56z" />
    <glyph glyph-name="uni2474" unicode="&#x2474;" 
d="M167 827q-115 -221 -115 -467q0 -244 115 -467h-44q-111 222 -111 467t111 467h44zM877 827q111 -222 111 -467t-111 -467h-44q115 225 115 467q0 243 -115 467h44zM561 714v-714h-82v614q-66 -68 -168 -98v82q47 13 100 44q49 30 86 72h64z" />
    <glyph glyph-name="uni2475" unicode="&#x2475;" 
d="M167 827q-115 -221 -115 -467q0 -244 115 -467h-44q-111 222 -111 467t111 467h44zM877 827q111 -222 111 -467t-111 -467h-44q115 225 115 467q0 243 -115 467h44zM673 671q64 -58 64 -151q0 -92 -70 -168q-41 -43 -148 -115q-136 -91 -156 -164h375v-73h-476
q0 99 71 177q46 52 155 127q85 61 112 89q55 60 55 128q0 65 -39 101t-109 36q-75 0 -113 -50q-43 -49 -44 -143h-82q0 119 67 191q66 72 175 72q99 0 163 -57z" />
    <glyph glyph-name="uni2476" unicode="&#x2476;" 
d="M167 827q-115 -221 -115 -467q0 -244 115 -467h-44q-111 222 -111 467t111 467h44zM877 827q111 -222 111 -467t-111 -467h-44q115 225 115 467q0 243 -115 467h44zM673 676q62 -53 62 -142q0 -121 -117 -160q64 -20 96 -61q36 -42 36 -105q0 -97 -68 -159
q-69 -63 -180 -63q-100 0 -166 52q-76 63 -85 183h83q3 -84 56 -128q46 -37 112 -37q76 0 123 44q43 43 43 105q0 64 -42 100q-41 35 -116 35h-58v64h55q71 0 109 32q38 33 38 93q0 59 -37 93q-38 35 -109 35q-73 0 -112 -38q-41 -38 -49 -111h-81q9 103 76 162
q62 58 165 58q104 0 166 -52z" />
    <glyph glyph-name="uni2477" unicode="&#x2477;" 
d="M167 827q-115 -221 -115 -467q0 -244 115 -467h-44q-111 222 -111 467t111 467h44zM877 827q111 -222 111 -467t-111 -467h-44q115 225 115 467q0 243 -115 467h44zM584 714h77v-485h116v-67h-116v-162h-78v162h-359v78zM580 607l-287 -378h290v378h-3z" />
    <glyph glyph-name="uni2478" unicode="&#x2478;" 
d="M167 827q-115 -221 -115 -467q0 -244 115 -467h-44q-111 222 -111 467t111 467h44zM877 827q111 -222 111 -467t-111 -467h-44q115 225 115 467q0 243 -115 467h44zM305 714h415v-73h-348l-24 -239h4q30 36 77 54q40 17 91 17q102 0 165 -64q64 -67 64 -181
q0 -108 -77 -177q-73 -65 -178 -65q-95 0 -161 51q-74 57 -82 155h81q6 -68 54 -104q43 -32 109 -32q75 0 124 48q49 49 49 123q0 84 -46 132q-43 47 -122 47q-51 0 -91 -22q-43 -21 -64 -64h-78z" />
    <glyph glyph-name="uni2479" unicode="&#x2479;" 
d="M167 827q-115 -221 -115 -467q0 -244 115 -467h-44q-111 222 -111 467t111 467h44zM877 827q111 -222 111 -467t-111 -467h-44q115 225 115 467q0 243 -115 467h44zM738 537h-81q-24 122 -148 122q-82 0 -129 -80q-46 -76 -46 -197v-30h3q26 56 76 85q48 30 110 30
q102 0 165 -66q62 -67 62 -170q0 -105 -68 -175q-70 -70 -173 -70q-129 0 -196 97q-62 90 -62 255q0 172 67 278q70 112 192 112q198 0 228 -191zM392 351q-47 -47 -47 -122q0 -76 44 -123q45 -51 119 -51q71 0 117 49q44 52 44 127t-44 121q-43 47 -116 47q-70 0 -117 -48z
" />
    <glyph glyph-name="uni247A" unicode="&#x247a;" 
d="M167 827q-115 -221 -115 -467q0 -244 115 -467h-44q-111 222 -111 467t111 467h44zM877 827q111 -222 111 -467t-111 -467h-44q115 225 115 467q0 243 -115 467h44zM266 714h469v-67l-263 -647h-87l266 639h-385v75z" />
    <glyph glyph-name="uni247B" unicode="&#x247b;" 
d="M167 827q-115 -221 -115 -467q0 -244 115 -467h-44q-111 222 -111 467t111 467h44zM877 827q111 -222 111 -467t-111 -467h-44q115 225 115 467q0 243 -115 467h44zM675 670q58 -53 58 -131q0 -57 -27 -96q-31 -43 -85 -62v-2q56 -14 95 -62q42 -51 42 -120
q0 -95 -66 -152q-70 -59 -192 -59q-124 0 -192 59q-66 57 -66 152q0 69 42 120q40 49 95 62v2q-56 19 -85 62q-27 39 -27 96q0 79 58 131q62 58 175 58t175 -58zM381 622q-37 -33 -37 -86q0 -55 33 -88q40 -40 123 -40q81 0 123 40q33 33 33 88q0 52 -37 86q-43 39 -119 39
q-77 0 -119 -39zM367 301q-44 -38 -44 -104q0 -65 44 -103q46 -41 133 -41q86 0 134 42q43 40 43 102q0 64 -43 104q-47 43 -134 43t-133 -43z" />
    <glyph glyph-name="uni247C" unicode="&#x247c;" 
d="M167 827q-115 -221 -115 -467q0 -244 115 -467h-44q-111 222 -111 467t111 467h44zM877 827q111 -222 111 -467t-111 -467h-44q115 225 115 467q0 243 -115 467h44zM687 632q63 -90 63 -256q0 -168 -67 -278q-73 -112 -192 -112q-199 0 -228 191h81q23 -122 148 -122
q81 0 129 80q46 80 46 197v30h-3q-27 -54 -76 -85q-48 -30 -110 -30q-103 0 -166 68q-61 64 -61 168q0 107 68 175q67 70 173 70q129 0 195 -96zM376 610q-44 -48 -44 -127q0 -77 43 -121q44 -47 117 -47q69 0 117 48q47 49 47 122q0 74 -44 123q-46 51 -119 51
q-72 0 -117 -49z" />
    <glyph glyph-name="uni247D" unicode="&#x247d;" 
d="M167 827q-115 -221 -115 -467q0 -244 115 -467h-44q-111 222 -111 467t111 467h44zM877 827q111 -222 111 -467t-111 -467h-44q115 225 115 467q0 243 -115 467h44zM814 607q40 -94 40 -250q0 -155 -40 -250q-54 -121 -172 -121q-119 0 -172 121q-40 92 -40 251
q0 158 40 250q53 120 172 120q118 0 172 -121zM331 714v-714h-76v613q-48 -52 -123 -86v82q87 36 141 105h58zM538 580q-32 -70 -32 -222q0 -151 32 -224q33 -78 104 -78t104 78q32 76 32 223q0 149 -32 224q-33 77 -104 77t-104 -78z" />
    <glyph glyph-name="uni247E" unicode="&#x247e;" 
d="M167 827q-115 -221 -115 -467q0 -244 115 -467h-44q-111 222 -111 467t111 467h44zM877 827q111 -222 111 -467t-111 -467h-44q115 225 115 467q0 243 -115 467h44zM371 714v-714h-76v613q-48 -52 -123 -86v82q87 36 141 105h58zM743 714v-714h-76v613q-48 -52 -123 -86
v82q87 36 141 105h58z" />
    <glyph glyph-name="uni247F" unicode="&#x247f;" 
d="M167 827q-115 -221 -115 -467q0 -244 115 -467h-44q-111 222 -111 467t111 467h44zM877 827q111 -222 111 -467t-111 -467h-44q115 225 115 467q0 243 -115 467h44zM791 671q54 -57 54 -151q0 -91 -53 -162q-32 -40 -115 -105q-133 -103 -148 -180h317v-73h-410
q0 100 65 181q38 50 130 123q69 57 95 90q42 57 42 127q0 63 -30 99q-31 38 -88 38q-61 0 -96 -51q-37 -50 -38 -142h-76q1 119 57 190q57 73 152 73q87 0 142 -57zM331 714v-714h-76v613q-48 -52 -123 -86v82q87 36 141 105h58z" />
    <glyph glyph-name="uni2480" unicode="&#x2480;" 
d="M167 827q-115 -221 -115 -467q0 -244 115 -467h-44q-111 222 -111 467t111 467h44zM877 827q111 -222 111 -467t-111 -467h-44q115 225 115 467q0 243 -115 467h44zM790 675q55 -53 55 -141q0 -121 -106 -160q56 -18 87 -60q31 -45 31 -106q0 -96 -59 -160
q-60 -62 -156 -62q-87 0 -144 52q-65 62 -73 183h77q3 -89 48 -131q36 -34 91 -34q65 0 105 43q35 43 35 105q0 63 -34 100q-36 36 -100 36h-45v64h45q122 0 122 124q0 61 -30 94q-32 35 -93 35q-60 0 -93 -39q-35 -40 -41 -110h-75q9 104 66 162q54 58 143 58q90 0 144 -53
zM331 714v-714h-76v613q-48 -52 -123 -86v82q87 36 141 105h58z" />
    <glyph glyph-name="uni2481" unicode="&#x2481;" 
d="M167 827q-115 -221 -115 -467q0 -244 115 -467h-44q-111 222 -111 467t111 467h44zM877 827q111 -222 111 -467t-111 -467h-44q115 225 115 467q0 243 -115 467h44zM331 714v-714h-76v613q-48 -52 -123 -86v82q87 36 141 105h58zM708 714h72v-485h97v-67h-97v-162h-72
v162h-299v76zM706 597l-231 -368h233v368h-2z" />
    <glyph glyph-name="uni2482" unicode="&#x2482;" 
d="M167 827q-115 -221 -115 -467q0 -244 115 -467h-44q-111 222 -111 467t111 467h44zM877 827q111 -222 111 -467t-111 -467h-44q115 225 115 467q0 243 -115 467h44zM331 714v-714h-76v613q-48 -52 -123 -86v82q87 36 141 105h58zM471 714h354v-73h-292l-20 -239h2
q26 35 65 53q38 18 79 18q86 0 139 -62q56 -67 56 -183q0 -107 -65 -177q-62 -65 -154 -65q-82 0 -139 51q-62 56 -70 155h75q6 -65 43 -102q36 -34 92 -34q64 0 103 48t39 123q0 86 -35 132q-35 47 -103 47q-44 0 -76 -22q-37 -21 -55 -64h-70z" />
    <glyph glyph-name="uni2483" unicode="&#x2483;" 
d="M167 827q-115 -221 -115 -467q0 -244 115 -467h-44q-111 222 -111 467t111 467h44zM877 827q111 -222 111 -467t-111 -467h-44q115 225 115 467q0 243 -115 467h44zM331 714v-714h-76v613q-48 -52 -123 -86v82q87 36 141 105h58zM787 677q49 -49 61 -140h-76
q-21 122 -124 122q-65 0 -104 -78q-38 -75 -38 -200v-25h2q22 52 66 82q38 29 92 29q88 0 139 -66q52 -66 52 -170q0 -106 -58 -176q-58 -69 -147 -69q-112 0 -168 92q-55 89 -55 260q0 181 57 283q58 107 165 107q85 0 136 -51zM554 350q-39 -49 -39 -123q0 -76 35 -123
q37 -49 101 -49t99 49q32 47 32 125q0 76 -31 122q-34 48 -100 48q-58 0 -97 -49z" />
    <glyph glyph-name="uni2484" unicode="&#x2484;" 
d="M167 827q-115 -221 -115 -467q0 -244 115 -467h-44q-111 222 -111 467t111 467h44zM877 827q111 -222 111 -467t-111 -467h-44q115 225 115 467q0 243 -115 467h44zM331 714v-714h-76v613q-48 -52 -123 -86v82q87 36 141 105h58zM440 714h403v-68l-223 -646h-84l228 639
h-324v75z" />
    <glyph glyph-name="uni2485" unicode="&#x2485;" 
d="M167 827q-115 -221 -115 -467q0 -244 115 -467h-44q-111 222 -111 467t111 467h44zM877 827q111 -222 111 -467t-111 -467h-44q115 225 115 467q0 243 -115 467h44zM331 714v-714h-76v613q-48 -52 -123 -86v82q87 36 141 105h58zM794 670q52 -54 52 -131
q0 -117 -102 -158v-1q56 -16 90 -66q34 -53 34 -120q0 -93 -59 -150q-63 -58 -166 -58q-105 0 -166 58q-60 57 -60 150q0 70 35 120q33 50 89 66v1q-101 40 -101 158q0 79 51 131q55 58 152 58q94 0 151 -58zM542 621q-30 -33 -30 -85q0 -55 27 -88q34 -40 104 -40
q69 0 103 40q27 33 27 88q0 52 -30 85q-36 40 -100 40q-67 0 -101 -40zM526 299q-33 -37 -33 -104q0 -64 37 -102q40 -40 113 -40q72 0 112 40q37 40 37 102q0 67 -33 104q-39 45 -116 45q-78 0 -117 -45z" />
    <glyph glyph-name="uni2486" unicode="&#x2486;" 
d="M167 827q-115 -221 -115 -467q0 -244 115 -467h-44q-111 222 -111 467t111 467h44zM877 827q111 -222 111 -467t-111 -467h-44q115 225 115 467q0 243 -115 467h44zM331 714v-714h-76v613q-48 -52 -123 -86v82q87 36 141 105h58zM802 635q55 -90 55 -259q0 -179 -57 -283
q-60 -107 -164 -107q-85 0 -136 51t-61 140h76q20 -122 123 -122q64 0 104 78q39 78 39 200l-1 25h-1q-25 -53 -66 -82q-43 -29 -93 -29q-87 0 -140 67q-51 65 -51 169q0 108 58 176q57 69 147 69q111 0 168 -93zM537 610q-33 -45 -33 -125q0 -78 32 -122q33 -48 99 -48
q58 0 98 51q38 49 38 121q0 74 -35 123q-36 49 -101 49t-98 -49z" />
    <glyph glyph-name="uni2487" unicode="&#x2487;" 
d="M167 827q-115 -221 -115 -467q0 -244 115 -467h-44q-111 222 -111 467t111 467h44zM877 827q111 -222 111 -467t-111 -467h-44q115 225 115 467q0 243 -115 467h44zM450 674q45 -54 45 -152q0 -81 -41 -151q-29 -48 -88 -105q-57 -54 -81 -87q-44 -56 -48 -106h254v-73
h-336q0 103 48 179q25 42 103 118q57 57 82 97q35 58 35 127q0 60 -22 98q-27 39 -74 39q-48 0 -75 -53q-25 -48 -27 -140h-71q0 120 48 192q46 71 126 71q77 0 122 -54zM831 632q44 -96 44 -275q0 -177 -44 -274q-45 -97 -131 -97q-87 0 -131 96q-44 94 -44 275
q0 182 45 275q42 96 130 96q86 0 131 -96zM627 597q-31 -71 -31 -240t31 -240q24 -61 73 -61q105 0 105 301t-105 301q-49 0 -73 -61z" />
    <glyph glyph-name="uni2488" unicode="&#x2488;" 
d="M502 714v-714h-82v614q-66 -68 -168 -98v82q48 14 100 44q51 32 86 72h64zM937 95q16 -16 16 -40t-16 -40q-15 -15 -40 -15t-40 15q-16 15 -16 40q0 26 16 39q15 15 40 15q26 0 40 -14z" />
    <glyph glyph-name="uni2489" unicode="&#x2489;" 
d="M624 671q63 -57 63 -151q0 -92 -70 -168q-41 -43 -148 -115q-136 -91 -156 -164h375v-73h-476q0 99 71 177q43 50 155 127q84 60 113 89q55 60 55 128q0 65 -39 101q-40 36 -109 36q-74 0 -114 -50q-43 -49 -44 -143h-82q1 120 68 191q66 72 174 72q98 0 164 -57zM937 95
q16 -16 16 -40t-16 -40q-15 -15 -40 -15t-40 15q-16 15 -16 40q0 26 16 39q15 15 40 15q26 0 40 -14z" />
    <glyph glyph-name="uni248A" unicode="&#x248a;" 
d="M622 676q62 -53 62 -142q0 -121 -117 -160q64 -20 96 -61q36 -42 36 -105q0 -97 -67 -159q-70 -63 -181 -63q-100 0 -166 52q-76 63 -85 183h83q3 -84 56 -128q46 -37 112 -37q76 0 123 44q43 43 43 105q0 64 -42 100q-41 35 -116 35h-58v64h55q71 0 109 32q38 33 38 93
t-38 93q-38 35 -108 35q-73 0 -112 -38q-41 -38 -49 -111h-81q9 103 76 162q62 58 165 58q104 0 166 -52zM937 95q16 -16 16 -40t-16 -40q-15 -15 -40 -15t-40 15q-16 15 -16 40q0 26 16 39q15 15 40 15q26 0 40 -14z" />
    <glyph glyph-name="uni248B" unicode="&#x248b;" 
d="M534 714h76v-485h116v-67h-116v-162h-78v162h-359v78zM529 607l-287 -378h290v378h-3zM937 95q16 -16 16 -40t-16 -40q-15 -15 -40 -15t-40 15q-16 15 -16 40q0 26 16 39q15 15 40 15q26 0 40 -14z" />
    <glyph glyph-name="uni248C" unicode="&#x248c;" 
d="M252 714h415v-73h-348l-24 -239h4q30 36 77 54q40 17 91 17q102 0 165 -64q64 -67 64 -181q0 -108 -77 -177q-73 -65 -178 -65q-95 0 -161 51q-74 57 -82 155h81q8 -68 54 -104q43 -32 109 -32q75 0 124 48q49 49 49 123q0 86 -45 132q-44 47 -123 47q-51 0 -91 -22
q-43 -21 -64 -64h-77zM937 95q16 -16 16 -40t-16 -40q-15 -15 -40 -15t-40 15q-16 15 -16 40q0 26 16 39q15 15 40 15q26 0 40 -14z" />
    <glyph glyph-name="uni248D" unicode="&#x248d;" 
d="M687 537h-81q-24 122 -148 122q-82 0 -129 -80q-46 -76 -46 -197v-30h3q26 56 76 85q48 30 110 30q102 0 165 -66q62 -67 62 -170q0 -105 -68 -175q-70 -70 -173 -70q-129 0 -196 97q-62 90 -62 255q0 172 67 278q70 112 192 112q198 0 228 -191zM341 351
q-47 -47 -47 -122q0 -76 44 -123q45 -51 119 -51q71 0 117 49q44 52 44 127t-43 121q-44 47 -117 47q-70 0 -117 -48zM937 95q16 -16 16 -40t-16 -40q-15 -15 -40 -15t-40 15q-16 15 -16 40q0 26 16 39q15 15 40 15q26 0 40 -14z" />
    <glyph glyph-name="uni248E" unicode="&#x248e;" 
d="M216 714h469v-67l-262 -647h-88l267 639h-386v75zM937 95q16 -16 16 -40t-16 -40q-15 -15 -40 -15t-40 15q-16 15 -16 40q0 26 16 39q15 15 40 15q26 0 40 -14z" />
    <glyph glyph-name="uni248F" unicode="&#x248f;" 
d="M625 670q58 -53 58 -131q0 -57 -27 -96q-31 -43 -85 -62v-2q56 -14 95 -62q42 -51 42 -120q0 -95 -66 -152q-70 -59 -192 -59q-124 0 -192 59q-66 57 -66 152q0 69 42 120q40 49 95 62v2q-56 19 -85 62q-27 39 -27 96q0 79 58 131q62 58 175 58t175 -58zM331 622
q-37 -33 -37 -86q0 -55 33 -88q40 -40 123 -40q81 0 123 40q33 33 33 88q0 52 -37 86q-43 39 -119 39q-77 0 -119 -39zM317 301q-44 -38 -44 -104q0 -65 44 -103q46 -41 133 -41q86 0 134 42q43 40 43 102q0 64 -43 104q-47 43 -134 43t-133 -43zM937 95q16 -16 16 -40
t-16 -40q-15 -15 -40 -15t-40 15q-16 15 -16 40q0 26 16 39q15 15 40 15q26 0 40 -14z" />
    <glyph glyph-name="uni2490" unicode="&#x2490;" 
d="M636 632q63 -90 63 -256q0 -168 -67 -278q-73 -112 -192 -112q-199 0 -228 191h81q23 -122 148 -122q81 0 129 80q46 80 46 197v30h-3q-27 -54 -76 -85q-48 -30 -110 -30q-103 0 -166 68q-61 64 -61 168q0 107 68 175q67 70 173 70q129 0 195 -96zM325 610
q-44 -48 -44 -127q0 -77 44 -121q42 -47 116 -47q69 0 117 48q47 49 47 122q0 74 -44 123q-46 51 -119 51q-72 0 -117 -49zM937 95q16 -16 16 -40t-16 -40q-15 -15 -40 -15t-40 15q-16 15 -16 40q0 26 16 39q15 15 40 15q26 0 40 -14z" />
    <glyph glyph-name="uni2491" unicode="&#x2491;" 
d="M254 714v-714h-76v613q-48 -52 -123 -86v82q87 36 141 105h58zM741 607q41 -93 41 -250q0 -156 -41 -250q-54 -121 -172 -121q-119 0 -172 121q-40 92 -40 250q0 160 40 250q52 121 172 121q118 0 172 -121zM465 580q-31 -71 -31 -223q0 -149 31 -223q33 -77 104 -77
q70 0 103 77q32 76 32 223q0 150 -32 223q-33 77 -103 77q-71 0 -104 -77zM937 95q16 -16 16 -40t-16 -40q-15 -15 -40 -15t-40 15q-16 15 -16 40q0 26 16 39q15 15 40 15q26 0 40 -14z" />
    <glyph glyph-name="uni2492" unicode="&#x2492;" 
d="M268 714v-714h-76v613q-48 -52 -122 -86v82q86 35 140 105h58zM673 714v-714h-76v613q-48 -52 -123 -86v82q87 36 141 105h58zM937 95q16 -16 16 -40t-16 -40q-15 -15 -40 -15t-40 15q-16 15 -16 40q0 26 16 39q15 15 40 15q26 0 40 -14z" />
    <glyph glyph-name="uni2493" unicode="&#x2493;" 
d="M254 714v-714h-76v613q-48 -52 -123 -86v82q87 36 141 105h58zM720 671q54 -57 54 -151q0 -91 -53 -162q-33 -40 -115 -106q-134 -103 -149 -179h318v-73h-410q0 97 65 180q40 54 130 124q66 54 94 90q42 57 42 127q0 63 -31 99q-32 38 -89 38q-65 0 -97 -56
q-31 -49 -32 -137h-78q1 119 56 190q57 73 153 73q87 0 142 -57zM937 95q16 -16 16 -40t-16 -40q-15 -15 -40 -15t-40 15q-16 15 -16 40q0 26 16 39q15 15 40 15q26 0 40 -14z" />
    <glyph glyph-name="uni2494" unicode="&#x2494;" 
d="M716 675q55 -53 55 -141q0 -119 -103 -160q54 -17 85 -61q31 -43 31 -106q0 -96 -60 -159q-60 -62 -156 -62q-86 0 -143 52q-67 64 -74 183h75q3 -90 50 -132q35 -33 91 -33q64 0 104 43q35 43 35 105q0 64 -33 100q-34 36 -98 36h-47v64h44q122 0 122 125q0 59 -30 92
q-31 36 -90 36q-60 0 -95 -39q-35 -38 -41 -110h-75q9 104 66 162q54 58 143 58q90 0 144 -53zM254 714v-714h-76v613q-48 -52 -123 -86v82q87 36 141 105h58zM937 95q16 -16 16 -40t-16 -40q-15 -15 -40 -15t-40 15q-16 15 -16 40q0 26 16 39q15 15 40 15q26 0 40 -14z" />
    <glyph glyph-name="uni2495" unicode="&#x2495;" 
d="M254 714v-714h-76v613q-48 -52 -123 -86v82q87 36 141 105h58zM638 714h72v-485h96v-67h-96v-162h-73v162h-298v76zM634 594l-227 -365h230v365h-3zM937 95q16 -16 16 -40t-16 -40q-15 -15 -40 -15t-40 15q-16 15 -16 40q0 26 16 39q15 15 40 15q26 0 40 -14z" />
    <glyph glyph-name="uni2496" unicode="&#x2496;" 
d="M254 714v-714h-76v613q-48 -52 -123 -86v82q87 36 141 105h58zM402 714h351v-73h-286l-21 -236h2q28 34 65 51q33 17 74 17q86 0 138 -62q55 -67 55 -183q0 -107 -64 -177q-62 -65 -153 -65q-82 0 -138 51q-62 56 -70 155h78q6 -66 42 -102q34 -34 88 -34q63 0 102 48
q38 49 38 123q0 87 -35 133q-36 46 -100 46q-43 0 -75 -22q-34 -23 -53 -64h-72zM937 95q16 -16 16 -40t-16 -40q-15 -15 -40 -15t-40 15q-16 15 -16 40q0 26 16 39q15 15 40 15q26 0 40 -14z" />
    <glyph glyph-name="uni2497" unicode="&#x2497;" 
d="M254 714v-714h-76v613q-48 -52 -123 -86v82q87 36 141 105h58zM714 678q49 -47 61 -141h-77q-9 58 -34 86q-31 36 -89 36q-72 0 -109 -77q-36 -75 -36 -203q0 -14 1 -26h2q23 53 66 83q41 31 94 31q87 0 141 -66q52 -66 52 -170q0 -105 -59 -175q-61 -70 -149 -70
q-113 0 -170 93q-55 89 -55 259q0 178 57 283q59 107 166 107q88 0 138 -50zM478 352q-39 -48 -39 -124q0 -74 31 -120q36 -53 106 -53q64 0 99 49q34 48 34 126q0 79 -33 122q-34 47 -99 47q-61 0 -99 -47zM937 95q16 -16 16 -40t-16 -40q-15 -15 -40 -15t-40 15
q-16 15 -16 40q0 26 16 39q15 15 40 15q26 0 40 -14z" />
    <glyph glyph-name="uni2498" unicode="&#x2498;" 
d="M254 714v-714h-76v613q-48 -52 -123 -86v82q87 36 141 105h58zM377 714h403v-68l-223 -646h-84l227 639h-323v75zM937 95q16 -16 16 -40t-16 -40q-15 -15 -40 -15t-40 15q-16 15 -16 40q0 26 16 39q15 15 40 15q26 0 40 -14z" />
    <glyph glyph-name="uni2499" unicode="&#x2499;" 
d="M254 714v-714h-76v613q-48 -52 -123 -86v82q87 36 141 105h58zM720 670q51 -52 51 -131q0 -119 -102 -158v-2q57 -16 91 -67q34 -49 34 -118q0 -93 -59 -150q-63 -58 -167 -58t-167 58q-58 57 -58 150q0 70 33 118q34 51 91 67v2q-102 41 -102 158q0 79 51 131
q57 58 152 58t152 -58zM468 622q-30 -33 -30 -86q0 -55 26 -87q33 -41 104 -41q70 0 104 40q27 33 27 88q0 52 -30 86q-36 39 -101 39t-100 -39zM455 299q-35 -38 -35 -104q0 -64 37 -102q40 -40 111 -40t111 40q37 40 37 102q0 64 -35 104q-39 45 -113 45t-113 -45zM937 95
q16 -16 16 -40t-16 -40q-15 -15 -40 -15t-40 15q-16 15 -16 40q0 26 16 39q15 15 40 15q26 0 40 -14z" />
    <glyph glyph-name="uni249A" unicode="&#x249a;" 
d="M254 714v-714h-76v613q-48 -52 -123 -86v82q87 36 141 105h58zM731 635q55 -90 55 -259q0 -177 -57 -282q-60 -108 -166 -108q-85 0 -137 50t-62 141h77q9 -58 34 -86q30 -36 89 -36q70 0 109 77q36 75 36 203l-1 26h-2q-26 -53 -66 -83q-43 -31 -94 -31q-88 0 -141 67
q-52 64 -52 169q0 108 59 177q58 68 149 68q113 0 170 -93zM464 610q-34 -44 -34 -126q0 -77 33 -122q33 -47 99 -47q60 0 99 47q39 48 39 124q0 74 -31 120q-35 53 -106 53q-66 0 -99 -49zM937 95q16 -16 16 -40t-16 -40q-15 -15 -40 -15t-40 15q-16 15 -16 40q0 26 16 39
q15 15 40 15q26 0 40 -14z" />
    <glyph glyph-name="uni249B" unicode="&#x249b;" 
d="M352 674q45 -54 45 -152q0 -81 -41 -151q-29 -48 -88 -105q-62 -61 -83 -87q-41 -53 -46 -106h254v-73h-336q2 104 49 180q25 41 105 121q59 61 80 94q35 58 35 126q0 61 -20 96q-23 41 -72 41q-52 0 -77 -47q-29 -48 -30 -146h-71q0 119 49 192q44 71 125 71
q77 0 122 -54zM756 633q46 -97 46 -276q0 -178 -46 -275q-48 -96 -135 -96q-89 0 -134 96q-46 93 -46 275q0 183 46 276q45 95 134 95q88 0 135 -95zM512 357q0 -300 109 -300q110 0 110 300t-110 300q-109 0 -109 -300zM937 95q16 -16 16 -40t-16 -40q-15 -15 -40 -15
t-40 15q-16 15 -16 40q0 26 16 39q15 15 40 15q26 0 40 -14z" />
    <glyph glyph-name="SF100000" unicode="&#x2500;" 
d="M0 382h1000v-43h-1000v43z" />
    <glyph glyph-name="uni2501" unicode="&#x2501;" 
d="M0 423h1000v-125h-1000v125z" />
    <glyph glyph-name="SF110000" unicode="&#x2502;" 
d="M479 860h43v-1000h-43v1000z" />
    <glyph glyph-name="uni2503" unicode="&#x2503;" 
d="M438 860h125v-1000h-125v1000z" />
    <glyph glyph-name="uni2504" unicode="&#x2504;" 
d="M40 382h254v-43h-254v43zM373 382h254v-43h-254v43zM707 382h254v-43h-254v43z" />
    <glyph glyph-name="uni2505" unicode="&#x2505;" 
d="M706 423h254v-125h-254v125zM373 423h254v-125h-254v125zM39 423h254v-125h-254v125z" />
    <glyph glyph-name="uni2506" unicode="&#x2506;" 
d="M479 820h43v-254h-43v254zM479 487h43v-254h-43v254zM479 153h43v-254h-43v254z" />
    <glyph glyph-name="uni2507" unicode="&#x2507;" 
d="M438 820h125v-254h-125v254zM438 488h125v-254h-125v254zM438 154h125v-254h-125v254z" />
    <glyph glyph-name="uni2508" unicode="&#x2508;" 
d="M782 382h186v-43h-186v43zM532 382h185v-43h-185v43zM282 382h185v-43h-185v43zM31 382h186v-43h-186v43z" />
    <glyph glyph-name="uni2509" unicode="&#x2509;" 
d="M782 423h186v-125h-186v125zM532 423h185v-125h-185v125zM282 423h185v-125h-185v125zM31 423h186v-125h-186v125z" />
    <glyph glyph-name="uni250A" unicode="&#x250a;" 
d="M479 827h43v-186h-43v186zM479 576h43v-185h-43v185zM479 326h43v-185h-43v185zM479 76h43v-185h-43v185z" />
    <glyph glyph-name="uni250B" unicode="&#x250b;" 
d="M438 829h125v-185h-125v185zM438 579h125v-185h-125v185zM438 329h125v-185h-125v185zM438 79h125v-186h-125v186z" />
    <glyph glyph-name="SF010000" unicode="&#x250c;" 
d="M479 382h521v-43h-478v-479h-43v522z" />
    <glyph glyph-name="uni250D" unicode="&#x250d;" 
d="M479 423h521v-125h-478v-438h-43v563z" />
    <glyph glyph-name="uni250E" unicode="&#x250e;" 
d="M438 382h562v-43h-437v-479h-125v522z" />
    <glyph glyph-name="uni250F" unicode="&#x250f;" 
d="M438 423h562v-125h-437v-438h-125v563z" />
    <glyph glyph-name="SF030000" unicode="&#x2510;" 
d="M0 382h522v-522h-43v479h-479v43z" />
    <glyph glyph-name="uni2511" unicode="&#x2511;" 
d="M0 423h522v-563h-43v438h-479v125z" />
    <glyph glyph-name="uni2512" unicode="&#x2512;" 
d="M0 382h563v-522h-125v479h-438v43z" />
    <glyph glyph-name="uni2513" unicode="&#x2513;" 
d="M0 423h563v-563h-125v438h-438v125z" />
    <glyph glyph-name="SF020000" unicode="&#x2514;" 
d="M479 860h43v-478h478v-43h-521v521z" />
    <glyph glyph-name="uni2515" unicode="&#x2515;" 
d="M479 860h43v-437h478v-125h-521v562z" />
    <glyph glyph-name="uni2516" unicode="&#x2516;" 
d="M438 860h125v-478h437v-43h-562v521z" />
    <glyph glyph-name="uni2517" unicode="&#x2517;" 
d="M438 860h125v-437h437v-125h-562v562z" />
    <glyph glyph-name="SF040000" unicode="&#x2518;" 
d="M479 860h43v-521h-522v43h479v478z" />
    <glyph glyph-name="uni2519" unicode="&#x2519;" 
d="M479 860h43v-562h-522v125h479v437z" />
    <glyph glyph-name="uni251A" unicode="&#x251a;" 
d="M438 860h125v-521h-563v43h438v478z" />
    <glyph glyph-name="uni251B" unicode="&#x251b;" 
d="M438 860h125v-562h-563v125h438v437z" />
    <glyph glyph-name="SF080000" unicode="&#x251c;" 
d="M479 860h43v-478h478v-43h-478v-479h-43v1000z" />
    <glyph glyph-name="uni251D" unicode="&#x251d;" 
d="M479 860h43v-437h478v-125h-478v-438h-43v1000z" />
    <glyph glyph-name="uni251E" unicode="&#x251e;" 
d="M438 860h125v-478h437v-43h-478v-479h-43v479h-41v521z" />
    <glyph glyph-name="uni251F" unicode="&#x251f;" 
d="M479 860h43v-478h478v-43h-437v-479h-125v522h41v478z" />
    <glyph glyph-name="uni2520" unicode="&#x2520;" 
d="M438 860h125v-478h437v-43h-437v-479h-125v1000z" />
    <glyph glyph-name="uni2521" unicode="&#x2521;" 
d="M438 860h125v-437h437v-125h-478v-438h-43v438h-41v562z" />
    <glyph glyph-name="uni2522" unicode="&#x2522;" 
d="M479 860h43v-437h478v-125h-437v-438h-125v563h41v437z" />
    <glyph glyph-name="uni2523" unicode="&#x2523;" 
d="M438 860h125v-437h437v-125h-437v-438h-125v1000z" />
    <glyph glyph-name="SF090000" unicode="&#x2524;" 
d="M479 860h43v-1000h-43v479h-479v43h479v478z" />
    <glyph glyph-name="uni2525" unicode="&#x2525;" 
d="M479 860h43v-1000h-43v438h-479v125h479v437z" />
    <glyph glyph-name="uni2526" unicode="&#x2526;" 
d="M438 860h125v-521h-41v-479h-43v479h-479v43h438v478z" />
    <glyph glyph-name="uni2527" unicode="&#x2527;" 
d="M479 860h43v-478h41v-522h-125v479h-438v43h479v478z" />
    <glyph glyph-name="uni2528" unicode="&#x2528;" 
d="M438 860h125v-1000h-125v479h-438v43h438v478z" />
    <glyph glyph-name="uni2529" unicode="&#x2529;" 
d="M438 860h125v-562h-41v-438h-43v438h-479v125h438v437z" />
    <glyph glyph-name="uni252A" unicode="&#x252a;" 
d="M479 860h43v-437h41v-563h-125v438h-438v125h479v437z" />
    <glyph glyph-name="uni252B" unicode="&#x252b;" 
d="M438 860h125v-1000h-125v438h-438v125h438v437z" />
    <glyph glyph-name="SF060000" unicode="&#x252c;" 
d="M0 382h1000v-43h-478v-479h-43v479h-479v43z" />
    <glyph glyph-name="uni252D" unicode="&#x252d;" 
d="M0 423h522v-41h478v-43h-478v-479h-43v438h-479v125z" />
    <glyph glyph-name="uni252E" unicode="&#x252e;" 
d="M479 423h521v-125h-478v-438h-43v479h-479v43h479v41z" />
    <glyph glyph-name="uni252F" unicode="&#x252f;" 
d="M0 423h1000v-125h-478v-438h-43v438h-479v125z" />
    <glyph glyph-name="uni2530" unicode="&#x2530;" 
d="M0 382h1000v-43h-437v-479h-125v479h-438v43z" />
    <glyph glyph-name="uni2531" unicode="&#x2531;" 
d="M0 423h563v-41h437v-43h-437v-479h-125v438h-438v125z" />
    <glyph glyph-name="uni2532" unicode="&#x2532;" 
d="M438 423h562v-125h-437v-438h-125v479h-438v43h438v41z" />
    <glyph glyph-name="uni2533" unicode="&#x2533;" 
d="M0 423h1000v-125h-437v-438h-125v438h-438v125z" />
    <glyph glyph-name="SF070000" unicode="&#x2534;" 
d="M479 860h43v-478h478v-43h-1000v43h479v478z" />
    <glyph glyph-name="uni2535" unicode="&#x2535;" 
d="M479 860h43v-478h478v-43h-478v-41h-522v125h479v437z" />
    <glyph glyph-name="uni2536" unicode="&#x2536;" 
d="M479 860h43v-437h478v-125h-521v41h-479v43h479v478z" />
    <glyph glyph-name="uni2537" unicode="&#x2537;" 
d="M479 860h43v-437h478v-125h-1000v125h479v437z" />
    <glyph glyph-name="uni2538" unicode="&#x2538;" 
d="M438 860h125v-478h437v-43h-1000v43h438v478z" />
    <glyph glyph-name="uni2539" unicode="&#x2539;" 
d="M438 860h125v-478h437v-43h-437v-41h-563v125h438v437z" />
    <glyph glyph-name="uni253A" unicode="&#x253a;" 
d="M438 860h125v-437h437v-125h-562v41h-438v43h438v478z" />
    <glyph glyph-name="uni253B" unicode="&#x253b;" 
d="M438 860h125v-437h437v-125h-1000v125h438v437z" />
    <glyph glyph-name="SF050000" unicode="&#x253c;" 
d="M479 860h43v-478h478v-43h-478v-479h-43v479h-479v43h479v478z" />
    <glyph glyph-name="uni253D" unicode="&#x253d;" 
d="M479 860h43v-478h478v-43h-478v-479h-43v438h-479v125h479v437z" />
    <glyph glyph-name="uni253E" unicode="&#x253e;" 
d="M479 860h43v-437h478v-125h-478v-438h-43v479h-479v43h479v478z" />
    <glyph glyph-name="uni253F" unicode="&#x253f;" 
d="M479 860h43v-437h478v-125h-478v-438h-43v438h-479v125h479v437z" />
    <glyph glyph-name="uni2540" unicode="&#x2540;" 
d="M438 860h125v-478h437v-43h-478v-479h-43v479h-479v43h438v478z" />
    <glyph glyph-name="uni2541" unicode="&#x2541;" 
d="M479 860h43v-478h478v-43h-437v-479h-125v479h-438v43h479v478z" />
    <glyph glyph-name="uni2542" unicode="&#x2542;" 
d="M438 860h125v-478h437v-43h-437v-479h-125v479h-438v43h438v478z" />
    <glyph glyph-name="uni2543" unicode="&#x2543;" 
d="M438 860h125v-478h437v-43h-437v-41h-41v-438h-43v438h-479v125h438v437z" />
    <glyph glyph-name="uni2544" unicode="&#x2544;" 
d="M438 860h125v-437h437v-125h-478v-438h-43v438h-41v41h-438v43h438v478z" />
    <glyph glyph-name="uni2545" unicode="&#x2545;" 
d="M479 860h43v-437h41v-41h437v-43h-437v-479h-125v438h-438v125h479v437z" />
    <glyph glyph-name="uni2546" unicode="&#x2546;" 
d="M479 860h43v-437h478v-125h-437v-438h-125v479h-438v43h438v41h41v437z" />
    <glyph glyph-name="uni2547" unicode="&#x2547;" 
d="M438 860h125v-437h437v-125h-478v-438h-43v438h-479v125h438v437z" />
    <glyph glyph-name="uni2548" unicode="&#x2548;" 
d="M479 860h43v-437h478v-125h-437v-438h-125v438h-438v125h479v437z" />
    <glyph glyph-name="uni2549" unicode="&#x2549;" 
d="M438 860h125v-478h437v-43h-437v-479h-125v438h-438v125h438v437z" />
    <glyph glyph-name="uni254A" unicode="&#x254a;" 
d="M438 860h125v-437h437v-125h-437v-438h-125v479h-438v43h438v478z" />
    <glyph glyph-name="uni254B" unicode="&#x254b;" 
d="M438 860h125v-437h437v-125h-437v-438h-125v438h-438v125h438v437z" />
    <glyph glyph-name="SF430000" unicode="&#x2550;" 
d="M0 418h1000v-31h-1000v31zM0 334h1000v-31h-1000v31z" />
    <glyph glyph-name="SF240000" unicode="&#x2551;" 
d="M527 860h31v-1000h-31v1000zM443 860h31v-1000h-31v1000z" />
    <glyph glyph-name="SF510000" unicode="&#x2552;" 
d="M485 418h515v-31h-484v-53h484v-31h-484v-443h-31v558z" />
    <glyph glyph-name="SF520000" unicode="&#x2553;" 
d="M443 376h557v-31h-442v-485h-31v485h-53v-485h-31v516z" />
    <glyph glyph-name="SF390000" unicode="&#x2554;" 
d="M443 418h557v-31h-526v-527h-31v558zM527 334h473v-31h-442v-443h-31v474z" />
    <glyph glyph-name="SF220000" unicode="&#x2555;" 
d="M0 418h516v-558h-31v443h-485v31h485v53h-485v31z" />
    <glyph glyph-name="SF210000" unicode="&#x2556;" 
d="M0 376h558v-516h-31v485h-53v-485h-31v485h-443v31z" />
    <glyph glyph-name="SF250000" unicode="&#x2557;" 
d="M0 418h558v-558h-31v527h-527v31zM0 334h474v-474h-31v443h-443v31z" />
    <glyph glyph-name="SF500000" unicode="&#x2558;" 
d="M485 860h31v-442h484v-31h-484v-53h484v-31h-515v557z" />
    <glyph glyph-name="SF490000" unicode="&#x2559;" 
d="M443 860h31v-484h53v484h31v-484h442v-31h-557v515z" />
    <glyph glyph-name="SF380000" unicode="&#x255a;" 
d="M527 860h31v-442h442v-31h-473v473zM443 860h31v-526h526v-31h-557v557z" />
    <glyph glyph-name="SF280000" unicode="&#x255b;" 
d="M485 860h31v-557h-516v31h485v53h-485v31h485v442z" />
    <glyph glyph-name="SF270000" unicode="&#x255c;" 
d="M443 860h31v-484h53v484h31v-515h-558v31h443v484z" />
    <glyph glyph-name="SF260000" unicode="&#x255d;" 
d="M443 860h31v-473h-474v31h443v442zM527 860h31v-557h-558v31h527v526z" />
    <glyph glyph-name="SF360000" unicode="&#x255e;" 
d="M485 860h31v-442h484v-31h-484v-53h484v-31h-484v-443h-31v1000z" />
    <glyph glyph-name="SF370000" unicode="&#x255f;" 
d="M527 860h31v-484h442v-31h-442v-485h-31v1000zM443 860h31v-1000h-31v1000z" />
    <glyph glyph-name="SF420000" unicode="&#x2560;" 
d="M527 860h31v-442h442v-31h-473v473zM527 334h473v-31h-442v-443h-31v474zM443 860h31v-1000h-31v1000z" />
    <glyph glyph-name="SF190000" unicode="&#x2561;" 
d="M485 860h31v-1000h-31v443h-485v31h485v53h-485v31h485v442z" />
    <glyph glyph-name="SF200000" unicode="&#x2562;" 
d="M527 860h31v-1000h-31v1000zM443 860h31v-1000h-31v485h-443v31h443v484z" />
    <glyph glyph-name="SF230000" unicode="&#x2563;" 
d="M527 860h31v-1000h-31v1000zM443 860h31v-473h-474v31h443v442zM0 334h474v-474h-31v443h-443v31z" />
    <glyph glyph-name="SF470000" unicode="&#x2564;" 
d="M0 418h1000v-31h-1000v31zM0 334h1000v-31h-484v-443h-31v443h-485v31z" />
    <glyph glyph-name="SF480000" unicode="&#x2565;" 
d="M0 376h1000v-31h-442v-485h-31v485h-53v-485h-31v485h-443v31z" />
    <glyph glyph-name="SF410000" unicode="&#x2566;" 
d="M0 418h1000v-31h-1000v31zM527 334h473v-31h-442v-443h-31v474zM0 334h474v-474h-31v443h-443v31z" />
    <glyph glyph-name="SF450000" unicode="&#x2567;" 
d="M485 860h31v-442h484v-31h-1000v31h485v442zM0 334h1000v-31h-1000v31z" />
    <glyph glyph-name="SF460000" unicode="&#x2568;" 
d="M443 860h31v-484h53v484h31v-484h442v-31h-1000v31h443v484z" />
    <glyph glyph-name="SF400000" unicode="&#x2569;" 
d="M527 860h31v-442h442v-31h-473v473zM443 860h31v-473h-474v31h443v442zM0 334h1000v-31h-1000v31z" />
    <glyph glyph-name="SF540000" unicode="&#x256a;" 
d="M485 860h31v-442h484v-31h-484v-53h484v-31h-484v-443h-31v443h-485v31h485v53h-485v31h485v442z" />
    <glyph glyph-name="SF530000" unicode="&#x256b;" 
d="M443 860h31v-484h53v484h31v-484h442v-31h-442v-485h-31v485h-53v-485h-31v485h-443v31h443v484z" />
    <glyph glyph-name="SF440000" unicode="&#x256c;" 
d="M527 860h31v-442h442v-31h-473v473zM443 860h31v-473h-474v31h443v442zM527 334h473v-31h-442v-443h-31v474zM0 334h474v-474h-31v443h-443v31z" />
    <glyph glyph-name="uni256D" unicode="&#x256d;" 
d="M1000 376v-31h-192q-130 0 -210 -83q-82 -83 -82 -215v-187h-31v204q0 130 89 220q89 92 220 92h206z" />
    <glyph glyph-name="uni256E" unicode="&#x256e;" 
d="M0 376h206q131 0 220 -92q90 -91 90 -220v-204h-31v187q0 129 -83 214q-82 84 -210 84h-192v31z" />
    <glyph glyph-name="uni256F" unicode="&#x256f;" 
d="M485 860h31v-204q0 -127 -90 -220q-91 -91 -220 -91h-206v31h192q128 0 210 84q83 85 83 213v187z" />
    <glyph glyph-name="uni2570" unicode="&#x2570;" 
d="M485 860h31v-187q0 -130 82 -213q81 -84 210 -84h192v-31h-206q-129 0 -220 91q-89 92 -89 220v204z" />
    <glyph glyph-name="uni2571" unicode="&#x2571;" 
d="M980 860h20v-22l-978 -978h-22v20z" />
    <glyph glyph-name="uni2572" unicode="&#x2572;" 
d="M0 860h19l981 -980v-20h-23l-977 978v22z" />
    <glyph glyph-name="uni2573" unicode="&#x2573;" 
d="M0 860h19l481 -480l480 480h20v-22l-478 -479l478 -479v-20h-23l-477 477l-478 -477h-22v20l478 479l-478 479v22z" />
    <glyph glyph-name="uni2581" unicode="&#x2581;" 
d="M0 -11h1000v-129h-1000v129z" />
    <glyph glyph-name="uni2582" unicode="&#x2582;" 
d="M0 114h1000v-254h-1000v254z" />
    <glyph glyph-name="uni2583" unicode="&#x2583;" 
d="M0 239h1000v-379h-1000v379z" />
    <glyph glyph-name="dnblock" unicode="&#x2584;" 
d="M0 362h1000v-502h-1000v502z" />
    <glyph glyph-name="uni2585" unicode="&#x2585;" 
d="M0 487h1000v-627h-1000v627z" />
    <glyph glyph-name="uni2586" unicode="&#x2586;" 
d="M0 612h1000v-752h-1000v752z" />
    <glyph glyph-name="uni2587" unicode="&#x2587;" 
d="M0 737h1000v-877h-1000v877z" />
    <glyph glyph-name="block" unicode="&#x2588;" 
d="M0 860h1000v-1000h-1000v1000z" />
    <glyph glyph-name="uni2589" unicode="&#x2589;" 
d="M0 860h867v-1000h-867v1000z" />
    <glyph glyph-name="uni258A" unicode="&#x258a;" 
d="M0 860h746v-1000h-746v1000z" />
    <glyph glyph-name="uni258B" unicode="&#x258b;" 
d="M0 860h625v-1000h-625v1000z" />
    <glyph glyph-name="lfblock" unicode="&#x258c;" 
d="M0 860h500v-1000h-500v1000z" />
    <glyph glyph-name="uni258D" unicode="&#x258d;" 
d="M0 860h375v-1000h-375v1000z" />
    <glyph glyph-name="uni258E" unicode="&#x258e;" 
d="M0 860h250v-1000h-250v1000z" />
    <glyph glyph-name="uni258F" unicode="&#x258f;" 
d="M0 860h125v-1000h-125v1000z" />
    <glyph glyph-name="dkshade" unicode="&#x2593;" 
d="M0 860h1000v-1000h-1000v1000zM777 751v-113h109v113h-109zM554 751v-113h110v113h-110zM777 528v-113h109v113h-109zM332 751v-113h113v113h-113zM777 306v-110h109v110h-109zM554 528v-113h110v113h-110zM109 751v-113h113v113h-113zM777 83v-109h109v109h-109z
M554 306v-110h110v110h-110zM332 528v-113h113v113h-113zM332 306v-110h113v110h-113zM554 83v-109h110v109h-110zM109 528v-113h113v113h-113zM332 83v-109h113v109h-113zM109 306v-110h113v110h-113zM109 83v-109h113v109h-113z" />
    <glyph glyph-name="uni2594" unicode="&#x2594;" 
d="M0 860h1000v-119h-1000v119z" />
    <glyph glyph-name="uni2595" unicode="&#x2595;" 
d="M880 860h120v-1000h-120v1000z" />
    <glyph glyph-name="filledbox" unicode="&#x25a0;" 
d="M147 718h706v-708h-706v708z" />
    <glyph glyph-name="H22073" unicode="&#x25a1;" 
d="M147 718h706v-708h-706v708zM213 652v-575h574v575h-574z" />
    <glyph glyph-name="triagup" unicode="&#x25b2;" 
d="M500 715l407 -705h-814z" />
    <glyph glyph-name="uni25B3" unicode="&#x25b3;" 
d="M500 715l407 -705h-814zM500 579l-292 -502h584z" />
    <glyph glyph-name="triagdn" unicode="&#x25bc;" 
d="M93 715h814l-407 -705z" />
    <glyph glyph-name="uni25BD" unicode="&#x25bd;" 
d="M93 715h814l-407 -705zM208 648l292 -502l292 502h-584z" />
    <glyph glyph-name="uni25C6" unicode="&#x25c6;" 
d="M500 756l399 -399l-399 -400l-399 399z" />
    <glyph glyph-name="uni25C7" unicode="&#x25c7;" 
d="M499 755l392 -391l-392 -387l-390 389zM500 654l-290 -288l290 -288l287 288z" />
    <glyph glyph-name="circle" unicode="&#x25cb;" 
d="M770 635q110 -112 110 -271q0 -160 -110 -270q-112 -109 -270 -109q-161 0 -270 109q-110 110 -110 270q0 161 110 271q110 111 270 111q159 0 270 -111zM272 593q-93 -93 -93 -229q0 -133 93 -226t228 -93q130 0 226 94q94 96 94 225q0 131 -94 228q-95 95 -226 95
q-135 0 -228 -94z" />
    <glyph glyph-name="uni25CE" unicode="&#x25ce;" 
d="M770 635q110 -112 110 -271q0 -158 -110 -270q-112 -109 -272 -109q-161 0 -269 111q-109 110 -109 270q0 161 110 270q109 110 270 110q159 0 270 -111zM668 534q69 -67 69 -168q0 -99 -69 -168t-168 -69q-100 0 -168 69q-69 69 -69 168q0 103 68 168q67 68 169 68
q100 0 168 -68zM374 490q-49 -49 -49 -124q0 -76 50 -126t125 -50q72 0 124 52q50 53 50 126q0 75 -51 124q-50 49 -125 49q-74 0 -124 -51zM272 593q-93 -93 -93 -229q0 -133 93 -226t228 -93q130 0 226 94q94 96 94 225q0 131 -94 228q-95 95 -226 95q-135 0 -228 -94z
" />
    <glyph glyph-name="H18533" unicode="&#x25cf;" 
d="M770 635q110 -112 110 -271q0 -160 -110 -270q-112 -109 -270 -109q-161 0 -270 109q-110 110 -110 270q0 161 110 271q110 111 270 111q159 0 270 -111z" />
    <glyph glyph-name="uni25E2" unicode="&#x25e2;" 
d="M1000 859v-999h-999z" />
    <glyph glyph-name="uni25E3" unicode="&#x25e3;" 
d="M0 859l999 -999h-999v999z" />
    <glyph glyph-name="uni25E4" unicode="&#x25e4;" 
d="M0 860z" />
    <glyph glyph-name="uni25E5" unicode="&#x25e5;" 
d="M1 860h999v-999z" />
    <glyph glyph-name="uni2605" unicode="&#x2605;" 
d="M500 770l100 -302h308l-246 -190l101 -303l-263 192l-262 -192l100 303l-246 190h307z" />
    <glyph glyph-name="uni2606" unicode="&#x2606;" 
d="M500 770l100 -302h308l-246 -190l101 -303l-263 192l-262 -192l100 303l-246 190h307zM500 556l-52 -155h-157l127 -99l-48 -147l130 97l131 -97l-48 147l127 99h-160z" />
    <glyph glyph-name="uni2609" unicode="&#x2609;" 
d="M742 603q100 -100 100 -242q0 -140 -100 -242q-102 -100 -242 -100q-142 0 -242 100t-100 242q0 143 100 242q99 100 242 100q142 0 242 -100zM302 559q-82 -81 -82 -198q0 -116 82 -198t198 -82q114 0 198 82q82 84 82 198q0 116 -82 198t-198 82q-117 0 -198 -82z
M553 414q22 -22 22 -53q0 -29 -22 -53q-24 -22 -53 -22q-31 0 -53 22t-22 53q0 32 22 53q21 22 53 22q31 0 53 -22z" />
    <glyph glyph-name="female" unicode="&#x2640;" 
d="M646 730q60 -60 60 -146q0 -85 -60 -145q-47 -47 -112 -58v-111h279v-67h-279v-269h-68v269h-278v67h278v111q-64 11 -112 58q-60 60 -60 145q0 86 60 146t146 60q85 0 146 -60zM402 682q-41 -40 -41 -98q0 -57 41 -98q42 -40 98 -40q55 0 98 40q41 43 41 98q0 57 -41 98
t-98 41q-58 0 -98 -41z" />
    <glyph glyph-name="male" unicode="&#x2642;" 
d="M500 804l225 -241l-37 -35l-154 142v-340q63 -9 112 -58q60 -60 60 -145t-60 -145q-63 -61 -146 -61q-85 0 -146 61q-60 60 -60 145t60 145q49 49 112 58v340l-153 -142l-37 35zM402 225q-41 -40 -41 -98q0 -57 41 -98t98 -41q55 0 98 41q41 43 41 98q0 57 -41 98
q-41 40 -98 40q-58 0 -98 -40z" />
    </font>
</defs>
</svg>
